<svg xmlns="http://www.w3.org/2000/svg" width="264" height="213" fill="none" viewBox="0 0 264 213"><path fill="#FFCF2D" d="M177.13 6.3208L193.267 21.8955L209.486 109.693H57.3516L177.13 6.3208Z"/><path fill="#fff" stroke="#FFCF2D" stroke-linecap="round" stroke-miterlimit="10" stroke-width=".489" d="M193.406 21.7731L177.22 6.14946L179.927 3.33623C183.914 -0.806149 191.098 -0.333199 195.241 3.64609C199.383 7.63354 200.109 14.8175 196.121 18.9598L193.406 21.7731Z"/><path stroke="#FFCF2D" stroke-linecap="round" stroke-miterlimit="10" stroke-width=".489" d="M196.113 18.96L179.919 3.33643"/><path stroke="#3FB1B5" stroke-linecap="round" stroke-miterlimit="10" stroke-width=".489" d="M196.129 4.35555L197.94 2.96932C200.37 1.11015 203.86 1.5994 205.678 4.07015L250.168 58.2309L227.393 109.024"/><path fill="#fff" stroke="#FFCF2D" stroke-linecap="round" stroke-miterlimit="10" stroke-width=".489" d="M249.442 60.9953C250.82 60.9953 251.937 59.8782 251.937 58.5001C251.937 57.122 250.82 56.0049 249.442 56.0049C248.064 56.0049 246.947 57.122 246.947 58.5001C246.947 59.8782 248.064 60.9953 249.442 60.9953Z"/><path fill="#fff" stroke="#FFCF2D" stroke-linecap="round" stroke-miterlimit="10" stroke-width=".489" d="M221.065 103.349H233.223C236.721 103.349 239.551 106.186 239.551 109.676V109.856H214.729V109.676C214.738 106.186 217.567 103.349 221.065 103.349Z"/><path fill="#fff" stroke="#3FB1B5" stroke-linecap="round" stroke-miterlimit="10" stroke-width=".489" d="M162.167 91.3372H85.1984C82.3037 91.3372 79.9634 88.9969 79.9634 86.1021V32.2675C79.9634 29.3728 82.3037 27.0325 85.1984 27.0325H162.167C165.062 27.0325 167.402 29.3728 167.402 32.2675V86.094C167.41 88.9887 165.062 91.3372 162.167 91.3372Z"/><path fill="#66B0F0" stroke="#66B0F0" stroke-linejoin="round" stroke-miterlimit="10" stroke-width=".489" d="M162.216 86.3303H85.9895C84.856 86.3303 83.9427 85.4089 83.9427 84.2836V32.7811C83.9427 31.6477 84.8642 30.7344 85.9895 30.7344H162.216C163.349 30.7344 164.262 31.6558 164.262 32.7811V84.2754C164.271 85.4089 163.349 86.3303 162.216 86.3303Z"/><path stroke="#fff" stroke-linecap="round" stroke-miterlimit="10" stroke-width=".489" d="M88.7212 35.5456H87.5143C87.1229 35.5456 86.7968 35.2275 86.7968 34.828V33.6211C86.7968 33.2297 87.1148 32.9036 87.5143 32.9036H88.7212C89.1126 32.9036 89.4387 33.2216 89.4387 33.6211V34.828C89.4306 35.2275 89.1126 35.5456 88.7212 35.5456Z"/><path stroke="#fff" stroke-linecap="round" stroke-miterlimit="10" stroke-width=".489" d="M94.209 35.5453H93.0021C92.6107 35.5453 92.2845 35.2273 92.2845 34.8277V33.6209C92.2845 33.2295 92.6026 32.9033 93.0021 32.9033H94.209C94.6004 32.9033 94.9265 33.2213 94.9265 33.6209V34.8277C94.9265 35.2273 94.6004 35.5453 94.209 35.5453Z"/><path stroke="#fff" stroke-linecap="round" stroke-miterlimit="10" stroke-width=".489" d="M99.6969 35.5453H98.49C98.0986 35.5453 97.7725 35.2273 97.7725 34.8277V33.6209C97.7725 33.2295 98.0905 32.9033 98.49 32.9033H99.6969C100.088 32.9033 100.414 33.2213 100.414 33.6209V34.8277C100.414 35.2273 100.096 35.5453 99.6969 35.5453Z"/><path fill="#fff" stroke="#3FB1B5" stroke-linecap="round" stroke-miterlimit="10" stroke-width=".489" d="M139.93 109.693H110.053L115.916 91.3374H134.059L139.93 109.693Z"/><path fill="#3FB1B5" d="M112.401 102.345L115.916 91.3372H134.059L112.401 102.345Z"/><path stroke="#fff" stroke-linecap="round" stroke-miterlimit="10" stroke-width=".489" d="M157.78 47.622H143.257C141.895 47.622 140.794 46.5211 140.794 45.1594V35.7819C140.794 34.4202 141.895 33.3193 143.257 33.3193H157.78C159.142 33.3193 160.242 34.4202 160.242 35.7819V45.1594C160.242 46.5211 159.142 47.622 157.78 47.622Z"/><path stroke="#fff" stroke-linecap="round" stroke-miterlimit="10" stroke-width=".489" d="M144.945 36.6626H156.026"/><path stroke="#fff" stroke-linecap="round" stroke-miterlimit="10" stroke-width=".489" d="M144.945 39.1904H156.026"/><path stroke="#fff" stroke-linecap="round" stroke-miterlimit="10" stroke-width=".489" d="M144.945 41.7183H156.026"/><path stroke="#fff" stroke-linecap="round" stroke-miterlimit="10" stroke-width=".489" d="M144.945 44.2461H156.026"/><path fill="#3F3D56" stroke="#3FB1B5" stroke-miterlimit="10" stroke-width=".489" d="M161.792 86.3307H104.068L100.684 91.1825C96.8592 96.6621 88.7783 96.7437 84.8479 91.3374L64.2339 62.9849C65.0982 64.0613 69.0531 62.8626 72.8204 60.3837C76.6447 57.8641 79.1155 54.692 78.3408 53.5178L92.6353 71.7345L97.0141 64.0042C98.2128 61.9575 100.202 60.4897 102.518 59.9515L117.416 56.7958H130.259L144.415 59.9189C146.878 60.4816 148.965 62.088 150.147 64.3141L161.792 86.3307Z"/><path stroke="#3F3D56" stroke-linecap="round" stroke-miterlimit="10" stroke-width=".489" d="M145.948 85.9966L141.846 77.8994"/><path stroke="#3F3D56" stroke-linecap="round" stroke-miterlimit="10" stroke-width=".489" d="M103.741 86.7549L107.802 78.7393"/><path stroke="#3F3D56" stroke-linecap="round" stroke-miterlimit="10" stroke-width=".489" d="M87.0741 64.6648L96.3781 76.5619"/><path stroke="#3F3D56" stroke-linecap="round" stroke-miterlimit="10" stroke-width=".489" d="M125.44 60.7101L128.865 64.877L136.53 58.3699"/><path stroke="#3F3D56" stroke-linecap="round" stroke-miterlimit="10" stroke-width=".489" d="M122.822 60.7917L119.496 65.0401L111.072 58.3699"/><path stroke="#3F3D56" stroke-linecap="round" stroke-miterlimit="10" stroke-width=".489" d="M81.1785 57.1631C81.9531 58.3455 79.4742 61.5582 75.6254 64.1105C71.8418 66.6221 67.8299 67.8289 66.9574 66.7444"/><path stroke="#3F3D56" stroke-linecap="round" stroke-miterlimit="10" stroke-width=".489" d="M78.6181 59.2262C79.127 59.2262 79.5395 58.8136 79.5395 58.3047C79.5395 57.7958 79.127 57.3833 78.6181 57.3833C78.1092 57.3833 77.6967 57.7958 77.6967 58.3047C77.6967 58.8136 78.1092 59.2262 78.6181 59.2262Z"/><path stroke="#3F3D56" stroke-linecap="round" stroke-miterlimit="10" stroke-width=".489" d="M124.119 65.0155C124.628 65.0155 125.04 64.6029 125.04 64.094C125.04 63.5852 124.628 63.1726 124.119 63.1726C123.61 63.1726 123.198 63.5852 123.198 64.094C123.198 64.6029 123.61 65.0155 124.119 65.0155Z"/><path stroke="#3F3D56" stroke-linecap="round" stroke-miterlimit="10" stroke-width=".489" d="M124.119 72.4359C124.628 72.4359 125.04 72.0233 125.04 71.5145C125.04 71.0056 124.628 70.593 124.119 70.593C123.61 70.593 123.198 71.0056 123.198 71.5145C123.198 72.0233 123.61 72.4359 124.119 72.4359Z"/><path fill="#3F3D56" d="M100.39 91.574L104.068 86.3308V91.574H100.39Z"/><path fill="#FE5244" d="M72.7306 60.139C68.9633 62.6179 65.0085 63.8166 64.1441 62.7403C64.1278 62.724 64.1197 62.7076 64.1034 62.6832C63.924 62.4141 63.9403 62.0471 64.1034 61.5987C64.666 60.1227 66.99 57.8395 69.9418 55.8988C72.2903 54.3495 74.6061 53.2731 76.2125 52.9388C77.1421 52.7513 77.8352 52.8083 78.1695 53.1671L78.251 53.265C79.0175 54.4392 76.555 57.6194 72.7306 60.139Z"/><path fill="#E57281" d="M72.7305 60.139C70.5859 61.5497 68.3761 62.5527 66.7126 62.9441L59.2678 52.4414C58.2322 50.9736 58.5746 48.9432 60.0506 47.9076L66.7534 43.1944L62.9535 36.7281C62.399 35.7903 62.717 34.5753 63.6629 34.029C63.9728 33.8496 64.3071 33.7681 64.6414 33.7681C65.2856 33.7681 65.9216 34.0861 66.2967 34.6732L78.1775 53.1508L78.2591 53.2813C79.0174 54.4392 76.5548 57.6194 72.7305 60.139Z"/><path stroke="#9A3B82" stroke-linecap="round" stroke-miterlimit="10" stroke-width=".489" d="M66.7373 43.2681L70.8878 49.7018C71.2711 50.3052 71.0998 51.1043 70.4964 51.4957L69.575 52.0992C68.9716 52.4987 68.1561 52.3275 67.7647 51.7241L63.8425 45.853"/><path stroke="#9A3B82" stroke-linecap="round" stroke-miterlimit="10" stroke-width=".489" d="M67.7484 51.7075C68.148 52.3191 67.9686 53.1427 67.357 53.5341L66.5171 54.0641C65.9137 54.4474 65.1146 54.2761 64.7231 53.6809"/><path stroke="#9A3B82" stroke-linecap="round" stroke-miterlimit="10" stroke-width=".489" d="M60.8661 47.9241L64.7068 53.6321C65.1063 54.2436 64.9351 55.0672 64.3072 55.4586L63.5244 55.8908C62.9373 56.2659 62.1626 56.111 61.7549 55.5402L59.5288 52.4008"/><path fill="#E57281" d="M75.4052 48.8454L73.4563 45.8202C72.8122 44.8172 71.4667 44.54 70.48 45.2086L65.6445 48.4866C65.6445 48.4866 67.0471 51.0063 70.4556 49.0085L71.5972 50.8269C69.265 52.3029 68.5964 55.4096 70.1131 57.7173L75.4052 48.8454Z"/><path stroke="#9A3B82" stroke-linecap="round" stroke-miterlimit="10" stroke-width=".489" d="M75.1524 48.927L73.2035 45.9017C72.5594 44.8988 71.2139 44.6215 70.2272 45.2902L65.6445 48.4866C65.6445 48.4866 67.0471 51.0063 70.4556 49.0085L71.5972 50.8269C69.265 52.3029 68.5964 55.4096 70.1131 57.7173"/><path fill="#9A3B82" d="M72.7306 60.1392C70.586 61.5499 68.3762 62.5529 66.7127 62.9443L64.8617 60.3349C65.8973 58.9813 67.7483 57.3504 69.9418 55.9071C72.2902 54.3578 74.6061 53.2814 76.2125 52.9471C77.142 52.7596 77.8352 52.8166 78.1695 53.1754L78.251 53.2733C78.2592 53.2896 78.2673 53.2977 78.2755 53.3141C78.2836 53.3222 78.2836 53.3304 78.2918 53.3467C78.3 53.363 78.3081 53.3711 78.3163 53.3874C78.8708 54.635 76.4326 57.6929 72.7306 60.1392Z"/><path fill="#E57281" d="M130.251 49.6201V56.7877C130.251 58.8671 127.364 60.5469 123.817 60.5469C120.262 60.5469 117.383 58.8671 117.383 56.7877V49.6201H130.251Z"/><path fill="#9A3B82" d="M119.267 59.4463C118.101 58.7695 117.375 57.8236 117.375 56.788V49.6204H130.251V51.61C130.251 53.673 128.995 55.5241 127.087 56.2987L119.267 59.4463Z"/><path fill="#E57281" d="M133.839 49.1961V49.3184C133.839 50.5579 132.836 51.5608 131.596 51.5608H130.121C129.623 53.5668 127.813 55.059 125.644 55.059H121.991C119.83 55.059 118.011 53.5749 117.522 51.5608H116.046C114.807 51.5608 113.804 50.5579 113.804 49.3184V49.1961C113.804 47.9566 114.807 46.9537 116.046 46.9537H117.384V45.1842C117.384 43.2924 118.778 41.7268 120.596 41.4658C120.996 42.1345 122.203 43.7327 124.665 43.643C125.823 43.6022 126.9 43.3821 127.788 43.1211C128.857 42.8113 129.925 43.4636 130.194 44.4829C130.235 44.7112 130.259 44.9395 130.259 45.176V46.9455H131.596C132.828 46.9455 133.839 47.9566 133.839 49.1961Z"/><path fill="#9A3B82" d="M131.278 46.9455H130.251V44.9803C130.251 44.8091 130.226 44.6378 130.186 44.4829C129.917 43.4636 128.848 42.8113 127.78 43.1211C126.891 43.3821 125.823 43.6022 124.657 43.643C122.194 43.7327 120.988 42.1345 120.588 41.4658C118.77 41.7267 117.375 43.2924 117.375 45.1842V46.9536H116.095C116.095 46.9536 114.627 41.6452 115.728 40.1448C116.813 38.6689 118.117 39.3131 118.117 39.3131C118.117 39.3131 117.335 34.8934 121.705 34.975C126.068 35.0565 131.743 40.1203 132.159 41.0499C132.811 42.4769 131.278 46.9455 131.278 46.9455Z"/><path stroke="#9A3B82" stroke-linecap="round" stroke-miterlimit="10" stroke-width=".408" d="M130.749 49.6121C130.749 48.7396 131.458 48.0383 132.322 48.0383"/><path stroke="#9A3B82" stroke-linecap="round" stroke-miterlimit="10" stroke-width=".408" d="M116.903 49.6121C116.903 48.7396 116.193 48.0383 115.329 48.0383"/><path stroke="#9A3B82" stroke-linecap="round" stroke-miterlimit="10" stroke-width=".408" d="M128.196 45.1844C128.196 45.1844 127.038 44.3364 125.562 44.948"/><path stroke="#9A3B82" stroke-linecap="round" stroke-miterlimit="10" stroke-width=".408" d="M119.357 45.1849C119.357 45.1849 120.515 44.3369 121.991 44.9484"/><path stroke="#9A3B82" stroke-linecap="round" stroke-miterlimit="10" stroke-width=".408" d="M125.848 51.2021C125.848 51.2021 125.22 52.5558 123.296 51.8463"/><path stroke="#9A3B82" stroke-linecap="round" stroke-miterlimit="10" stroke-width=".408" d="M123.206 50.501C123.703 50.5336 124.462 50.501 124.462 50.501"/><path fill="#9A3B82" d="M126.883 48.5848C127.109 48.5848 127.291 48.2781 127.291 47.8998C127.291 47.5215 127.109 47.2148 126.883 47.2148C126.658 47.2148 126.476 47.5215 126.476 47.8998C126.476 48.2781 126.658 48.5848 126.883 48.5848Z"/><path fill="#9A3B82" d="M121.037 48.5848C121.262 48.5848 121.445 48.2781 121.445 47.8998C121.445 47.5215 121.262 47.2148 121.037 47.2148C120.812 47.2148 120.629 47.5215 120.629 47.8998C120.629 48.2781 120.812 48.5848 121.037 48.5848Z"/><path stroke="#fff" stroke-miterlimit="10" stroke-width=".408" d="M122.007 50.2075H119.438C118.941 50.2075 118.542 49.8079 118.542 49.3105V46.7419C118.542 46.2445 118.941 45.845 119.438 45.845H122.007C122.504 45.845 122.904 46.2445 122.904 46.7419V49.3105C122.912 49.7998 122.504 50.2075 122.007 50.2075Z"/><path stroke="#fff" stroke-miterlimit="10" stroke-width=".408" d="M128.294 50.2073H125.725C125.228 50.2073 124.828 49.8077 124.828 49.3103V46.7417C124.828 46.2443 125.228 45.8447 125.725 45.8447H128.294C128.791 45.8447 129.191 46.2443 129.191 46.7417V49.3103C129.191 49.7996 128.791 50.2073 128.294 50.2073Z"/><path stroke="#fff" stroke-miterlimit="10" stroke-width=".408" d="M122.912 47.5408H124.828"/><path stroke="#66B0F0" stroke-linejoin="round" stroke-miterlimit="10" stroke-width=".489" d="M128.971 83.1668H120.058C119.251 83.1668 118.59 82.5145 118.59 81.6991V76.9614C118.59 76.1541 119.243 75.4937 120.058 75.4937H128.971C129.778 75.4937 130.438 76.146 130.438 76.9614V81.6991C130.438 82.5063 129.786 83.1668 128.971 83.1668Z"/><path fill="#66B0F0" d="M124.738 81.2586H121.721C121.24 81.2586 120.849 80.8672 120.849 80.3861V78.2741C120.849 77.793 121.24 77.4016 121.721 77.4016H124.738C125.22 77.4016 125.611 77.793 125.611 78.2741V80.3861C125.611 80.8672 125.22 81.2586 124.738 81.2586Z"/><path fill="#66B0F0" d="M127.674 81.2014L126.745 80.5816C126.492 80.4104 126.337 80.1169 126.337 79.7988V78.8692C126.337 78.5512 126.492 78.2577 126.745 78.0864L127.674 77.4667C127.894 77.3199 128.18 77.483 128.18 77.7603V80.916C128.188 81.1851 127.894 81.3482 127.674 81.2014Z"/><path stroke="#3FB1B5" stroke-linecap="round" stroke-miterlimit="10" stroke-width=".489" d="M248.17 109.855H31.6981"/><path fill="#fff" stroke="#3FB1B5" stroke-linecap="round" stroke-miterlimit="10" stroke-width=".489" d="M101.393 111.283V211.956H95.7094V192.793C95.7094 191.007 94.2579 189.556 92.4722 189.556H51.7904C50.0046 189.556 48.5532 191.007 48.5532 192.793V211.956H42.8696V111.283H101.393Z"/><path fill="#D0F0E4" d="M101.564 111.283V137.996L42.8696 186.327L42.8778 111.283H101.564Z"/><path stroke="#3FB1B5" stroke-linecap="round" stroke-miterlimit="10" stroke-width=".489" d="M95.7095 118.948V137.205C95.7095 138.901 94.3396 140.271 92.6435 140.271H51.6274C49.9313 140.271 48.5614 138.901 48.5614 137.205V118.948C48.5614 117.252 49.9313 115.882 51.6274 115.882H92.6435C94.3396 115.882 95.7095 117.252 95.7095 118.948Z"/><path fill="#FFCF2D" d="M82.5648 154.101H62.3748L61.5349 148.32H81.7331L82.5648 154.101Z"/><path fill="#fff" stroke="#3FB1B5" stroke-linecap="round" stroke-miterlimit="10" stroke-width=".489" d="M93.3366 144.985C90.8169 144.985 88.7784 147.023 88.7784 149.543V154.101H71.5973V149.543C71.5973 147.023 73.6359 144.985 76.1555 144.985H93.3366Z"/><path fill="#fff" stroke="#3FB1B5" stroke-linecap="round" stroke-miterlimit="10" stroke-width=".489" d="M97.6176 148.319H80.4365C79.9065 146.395 78.137 144.984 76.0414 144.984H93.2225C95.3181 144.984 97.0794 146.395 97.6176 148.319Z"/><path stroke="#3FB1B5" stroke-linecap="round" stroke-miterlimit="10" stroke-width=".489" d="M95.7095 157.167V175.424C95.7095 177.12 94.3396 178.49 92.6435 178.49H51.6274C49.9313 178.49 48.5614 177.12 48.5614 175.424V157.167C48.5614 155.471 49.9313 154.101 51.6274 154.101H92.6435C94.3396 154.101 95.7095 155.471 95.7095 157.167Z"/><path stroke="#3FB1B5" stroke-linecap="round" stroke-miterlimit="10" stroke-width=".489" d="M63.7365 127.714C63.7365 126.262 64.9107 125.08 66.3703 125.08H77.9086C79.3601 125.08 80.5424 126.254 80.5424 127.714"/><path stroke="#3FB1B5" stroke-linecap="round" stroke-miterlimit="10" stroke-width=".489" d="M63.7365 165.933C63.7365 164.481 64.9107 163.299 66.3703 163.299H77.9086C79.3601 163.299 80.5424 164.473 80.5424 165.933"/><path fill="#fff" stroke="#3FB1B5" stroke-linecap="round" stroke-miterlimit="10" stroke-width=".489" d="M239.551 111.283H233.492V212.176H239.551V111.283Z"/><path stroke="#3FB1B5" stroke-linecap="round" stroke-miterlimit="10" stroke-width=".489" d="M136.587 212.176H263.027"/><path fill="#fff" stroke="#3FB1B5" stroke-linecap="round" stroke-miterlimit="10" stroke-width=".489" d="M60.0752 96.0175H56.4139C56.4139 96.0175 51.187 74.2374 46.5961 73.5279C42.0053 72.8185 41.7688 81.2011 41.7688 81.2011C41.7688 81.2011 41.8503 68.456 53.3234 70.201C64.8047 71.946 60.0752 96.0175 60.0752 96.0175Z"/><path stroke="#3FB1B5" stroke-linecap="round" stroke-miterlimit="10" stroke-width=".489" d="M47.5338 70.7556C47.5338 70.7556 57.9958 66.8905 58.4687 95.6914"/><path fill="#FE5244" d="M70.0479 95.6912H52.8505V109.692H70.0479V95.6912Z"/><path fill="#fff" stroke="#3FB1B5" stroke-linecap="round" stroke-miterlimit="10" stroke-width=".489" d="M73.6684 102.696C72.5757 103.169 71.271 103.112 70.056 102.582C69.1591 102.19 68.311 101.546 67.6261 100.665C66.6802 99.4423 66.0441 97.7707 66.0441 95.6913C66.0441 90.652 62.0322 87.4881 60.3851 94.1583C60.2709 94.6231 60.1649 95.1287 60.0752 95.6913V95.675V95.6424C60.0752 95.6261 60.0752 95.6016 60.0834 95.5772V95.5446C60.116 95.1287 60.2383 93.8974 60.6134 92.4133C60.8906 91.3125 61.3065 90.0893 61.9262 88.9559C62.2361 88.3933 62.5949 87.8551 63.0189 87.374C64.1116 86.1182 65.612 85.2375 67.6587 85.2375C71.426 85.2375 74.1821 89.6735 75.234 94.0931C76.1554 97.9338 75.7804 101.774 73.6684 102.696Z"/><path stroke="#3FB1B5" stroke-linecap="round" stroke-miterlimit="10" stroke-width=".489" d="M63.027 87.3739C63.027 87.3739 70.5778 82.0002 72.7958 102.851"/><path fill="#3FB1B5" d="M41.5241 81.2012C41.5241 82.5466 41.3692 87.692 46.2781 87.9284C51.1869 88.1649 51.6762 80.7527 51.6762 80.7527C51.6762 80.7527 49.2625 74.1966 46.5961 73.528C42.0868 72.3945 41.5241 81.2012 41.5241 81.2012Z"/><path fill="#3FB1B5" d="M66.0441 95.6914H60.0752C61.4533 87.056 66.0441 90.3014 66.0441 95.6914Z"/><path fill="#fff" d="M167.41 32.2675V86.094C167.41 88.9887 165.062 91.329 162.175 91.329H100.569C96.7042 96.6538 88.7374 96.6782 84.8397 91.329L84.8315 91.3209C83.2822 91.2149 81.9123 90.4239 81.0316 89.2578L82.4505 88.0347L118.656 56.7875L153.132 27.0325H162.175C165.062 27.0325 167.41 29.3809 167.41 32.2675Z" opacity=".4"/><path fill="#fff" d="M73.6683 102.941C72.5838 103.43 71.2709 103.357 70.056 102.826V109.692H57.3597L67.6341 100.829L70.0641 98.7331L71.9151 97.1348L75.4949 94.0933C76.5386 98.5455 75.9597 101.889 73.6683 102.941Z" opacity=".4"/><path fill="#FFCF2D" d="M6.84385 34.6974C6.746 34.6974 6.64814 34.6321 6.61553 34.5343C6.57476 34.4038 6.63999 34.2652 6.76231 34.2244L7.52881 33.9553C7.65928 33.9146 7.7979 33.9798 7.83867 34.1021C7.87944 34.2326 7.81421 34.3712 7.69189 34.412L6.92539 34.6811C6.89278 34.6892 6.86831 34.6974 6.84385 34.6974ZM8.76826 34.0287C8.67041 34.0287 8.57256 33.9635 8.53994 33.8656C8.49917 33.7352 8.5644 33.5965 8.68672 33.5558L9.45322 33.2867C9.58369 33.2459 9.72231 33.3111 9.76308 33.4335C9.80386 33.5639 9.73862 33.7025 9.61631 33.7433L8.8498 34.0124C8.82534 34.0206 8.79272 34.0287 8.76826 34.0287ZM10.6927 33.3519C10.5948 33.3519 10.497 33.2867 10.4644 33.1888C10.4236 33.0584 10.4888 32.9197 10.6111 32.879L11.3776 32.6099C11.5081 32.5691 11.6467 32.6343 11.6875 32.7567C11.7283 32.8871 11.663 33.0257 11.5407 33.0665L10.7742 33.3356C10.7498 33.3519 10.7171 33.3519 10.6927 33.3519ZM12.6171 32.6833C12.5192 32.6833 12.4214 32.618 12.3888 32.5202C12.348 32.3897 12.4132 32.2511 12.5355 32.2103L13.302 31.9412C13.4325 31.9005 13.5711 31.9657 13.6119 32.088C13.6527 32.2185 13.5874 32.3571 13.4651 32.3979L12.6986 32.667C12.6742 32.6833 12.6497 32.6833 12.6171 32.6833ZM14.5415 32.0146C14.4436 32.0146 14.3458 31.9494 14.3132 31.8515C14.2724 31.7211 14.3376 31.5824 14.46 31.5417L15.2265 31.2726C15.3569 31.2318 15.4955 31.297 15.5363 31.4193C15.5771 31.5498 15.5119 31.6884 15.3895 31.7292L14.623 31.9983C14.5986 32.0146 14.5741 32.0146 14.5415 32.0146ZM16.4741 31.346C16.3762 31.346 16.2784 31.2807 16.2457 31.1829C16.205 31.0524 16.2702 30.9138 16.3925 30.873L17.159 30.6039C17.2895 30.5631 17.4281 30.6284 17.4689 30.7507C17.5097 30.8812 17.4444 31.0198 17.3221 31.0606L16.5556 31.3297C16.523 31.346 16.4985 31.346 16.4741 31.346ZM18.3985 30.6773C18.3006 30.6773 18.2028 30.6121 18.1702 30.5142C18.1294 30.3838 18.1946 30.2451 18.3169 30.2044L19.0834 29.9353C19.2139 29.8945 19.3525 29.9597 19.3933 30.082C19.4341 30.2125 19.3688 30.3511 19.2465 30.3919L18.48 30.661C18.4474 30.6692 18.4229 30.6773 18.3985 30.6773ZM20.3229 30.0087C20.225 30.0087 20.1272 29.9434 20.0946 29.8456C20.0538 29.7151 20.119 29.5765 20.2413 29.5357L21.0078 29.2666C21.1383 29.2258 21.2769 29.2911 21.3177 29.4134C21.3585 29.5439 21.2932 29.6825 21.1709 29.7233L20.4044 29.9923C20.3718 30.0005 20.3473 30.0087 20.3229 30.0087ZM22.2473 29.34C22.1494 29.34 22.0516 29.2748 22.019 29.1769C21.9782 29.0465 22.0434 28.9078 22.1658 28.8671L22.9323 28.598C23.0627 28.5572 23.2013 28.6224 23.2421 28.7447C23.2829 28.8752 23.2177 29.0138 23.0953 29.0546L22.3288 29.3237C22.3044 29.3319 22.2718 29.34 22.2473 29.34ZM24.1717 28.6714C24.0739 28.6714 23.976 28.6061 23.9434 28.5083C23.9026 28.3778 23.9679 28.2392 24.0902 28.1984L24.8567 27.9293C24.9871 27.8885 25.1258 27.9538 25.1665 28.0761C25.2073 28.2066 25.1421 28.3452 25.0198 28.386L24.2533 28.655C24.2288 28.6632 24.1962 28.6714 24.1717 28.6714ZM26.0961 28.0027C25.9983 28.0027 25.9004 27.9375 25.8678 27.8396C25.827 27.7092 25.8923 27.5705 26.0146 27.5298L26.7811 27.2607C26.9115 27.2199 27.0502 27.2851 27.0909 27.4074C27.1317 27.5379 27.0665 27.6765 26.9442 27.7173L26.1777 27.9864C26.1532 27.9946 26.1206 28.0027 26.0961 28.0027ZM28.0205 27.3259C27.9227 27.3259 27.8248 27.2607 27.7922 27.1628C27.7514 27.0323 27.8167 26.8937 27.939 26.8529L28.7055 26.5839C28.836 26.5431 28.9746 26.6083 29.0154 26.7306C29.0561 26.8611 28.9909 26.9997 28.8686 27.0405L28.1021 27.3096C28.0776 27.3259 28.0531 27.3259 28.0205 27.3259ZM29.9449 26.6572C29.8471 26.6572 29.7492 26.592 29.7166 26.4942C29.6759 26.3637 29.7411 26.2251 29.8634 26.1843L30.6299 25.9152C30.7604 25.8744 30.899 25.9397 30.9398 26.062C30.9805 26.1925 30.9153 26.3311 30.793 26.3718L30.0265 26.6409C30.002 26.6572 29.9776 26.6572 29.9449 26.6572ZM31.8775 25.9886C31.7797 25.9886 31.6818 25.9234 31.6492 25.8255C31.6084 25.695 31.6737 25.5564 31.796 25.5156L32.5625 25.2466C32.6929 25.2058 32.8316 25.271 32.8723 25.3933C32.9131 25.5238 32.8479 25.6624 32.7256 25.7032L31.9591 25.9723C31.9264 25.9886 31.902 25.9886 31.8775 25.9886ZM33.8019 25.3199C33.7041 25.3199 33.6062 25.2547 33.5736 25.1569C33.5328 25.0264 33.5981 24.8878 33.7204 24.847L34.4869 24.5779C34.6173 24.5371 34.756 24.6024 34.7967 24.7247C34.8375 24.8552 34.7723 24.9938 34.65 25.0345L33.8835 25.3036C33.8508 25.3199 33.8264 25.3199 33.8019 25.3199ZM35.7263 24.6513C35.6285 24.6513 35.5306 24.5861 35.498 24.4882C35.4572 24.3577 35.5225 24.2191 35.6448 24.1783L36.4113 23.9093C36.5418 23.8685 36.6804 23.9337 36.7212 24.056C36.7619 24.1865 36.6967 24.3251 36.5744 24.3659L35.8079 24.635C35.7753 24.6513 35.7508 24.6513 35.7263 24.6513ZM37.6507 23.9826C37.5529 23.9826 37.455 23.9174 37.4224 23.8196C37.3817 23.6891 37.4469 23.5505 37.5692 23.5097L38.3357 23.2406C38.4662 23.1998 38.6048 23.2651 38.6456 23.3874C38.6863 23.5178 38.6211 23.6565 38.4988 23.6972L37.7323 23.9663C37.7078 23.9745 37.6752 23.9826 37.6507 23.9826ZM39.5752 23.314C39.4773 23.314 39.3794 23.2488 39.3468 23.1509C39.3061 23.0204 39.3713 22.8818 39.4936 22.841L40.2601 22.5719C40.3906 22.5312 40.5292 22.5964 40.57 22.7187C40.6107 22.8492 40.5455 22.9878 40.4232 23.0286L39.6567 23.2977C39.6322 23.3058 39.5996 23.314 39.5752 23.314Z"/><path fill="#3FB1B5" d="M15.5201 34.6971C15.3815 34.6971 15.2754 34.5911 15.2754 34.4525C15.2754 32.2427 14.5905 30.6363 13.2287 29.6904C12.2094 28.981 11.1738 28.9158 11.1657 28.9158C11.0271 28.9076 10.9292 28.7934 10.9374 28.6548C10.9455 28.5162 11.0597 28.4183 11.1901 28.4265C11.2391 28.4265 12.3562 28.4917 13.4897 29.2745C15.3733 30.5792 15.7647 32.8135 15.7647 34.4525C15.7647 34.583 15.6587 34.6971 15.5201 34.6971Z"/><path fill="#3FB1B5" d="M54.4812 34.6973H6.84392C6.75422 34.6973 6.66452 34.6484 6.62375 34.5587C6.58298 34.4771 6.59113 34.3793 6.64821 34.3059L26.0065 8.49759C26.0473 8.44051 26.1125 8.40789 26.1777 8.39974C26.243 8.39158 26.3163 8.41605 26.3653 8.46497L54.6525 34.2733C54.7259 34.3385 54.7503 34.4445 54.7177 34.5424C54.6769 34.6321 54.5872 34.6973 54.4812 34.6973ZM7.33317 34.2081H53.8534L26.2348 9.00316L7.33317 34.2081Z"/><path fill="#FFCF2D" d="M2.56289 36.3936C1.39683 36.3936 0.450928 35.4477 0.450928 34.2816C0.450928 33.1156 1.39683 32.1697 2.56289 32.1697C3.72895 32.1697 4.67485 33.1156 4.67485 34.2816C4.67485 35.4477 3.72895 36.3936 2.56289 36.3936ZM2.56289 32.6508C1.66592 32.6508 0.940185 33.3765 0.940185 34.2735C0.940185 35.1705 1.66592 35.8962 2.56289 35.8962C3.45986 35.8962 4.18559 35.1705 4.18559 34.2735C4.18559 33.3765 3.45986 32.6508 2.56289 32.6508Z"/><path fill="#FFCF2D" d="M4.67493 34.2817H4.18567V36.1491H4.67493V34.2817Z"/><path fill="#FFCF2D" d="M27.6455 6.89116C26.4795 6.89116 25.5336 5.94526 25.5336 4.7792C25.5336 3.61313 26.4795 2.66724 27.6455 2.66724C28.8116 2.66724 29.7575 3.61313 29.7575 4.7792C29.7575 5.9371 28.8116 6.89116 27.6455 6.89116ZM27.6455 3.14834C26.7486 3.14834 26.0228 3.87407 26.0228 4.77104C26.0228 5.66801 26.7486 6.4019 27.6455 6.4019C28.5425 6.4019 29.2682 5.67617 29.2682 4.7792C29.2682 3.88222 28.5425 3.14834 27.6455 3.14834Z"/><path fill="#FFCF2D" d="M26.0065 1.50952H25.5172V6.63857H26.0065V1.50952Z"/><path fill="#FFCF2D" d="M58.2893 36.3445C57.1233 36.3445 56.1774 35.3986 56.1774 34.2326C56.1774 33.0665 57.1233 32.1206 58.2893 32.1206V32.6099C57.3924 32.6099 56.6666 33.3356 56.6666 34.2326C56.6666 35.1295 57.3924 35.8553 58.2893 35.8553V36.3445Z"/><path fill="#A0505A" d="M181.786 139.17V184.557H171.3L164.621 165.908L155.056 139.17H181.786Z"/><path fill="#73325A" d="M155.056 139.17H181.786V153.742L158.236 148.05L155.056 139.17Z"/><path stroke="#fff" stroke-linecap="round" stroke-miterlimit="10" stroke-width=".489" d="M181.786 165.908V184.557H171.3L164.621 165.908C164.621 165.908 170.028 168.893 181.786 165.908Z"/><path stroke="#fff" stroke-linecap="round" stroke-miterlimit="10" stroke-width=".489" d="M170.077 170.287C170.734 170.287 171.267 169.754 171.267 169.097C171.267 168.439 170.734 167.906 170.077 167.906C169.419 167.906 168.886 168.439 168.886 169.097C168.886 169.754 169.419 170.287 170.077 170.287Z"/><path stroke="#fff" stroke-linecap="round" stroke-miterlimit="10" stroke-width=".489" d="M175.752 174.128C176.409 174.128 176.942 173.595 176.942 172.937C176.942 172.28 176.409 171.747 175.752 171.747C175.094 171.747 174.561 172.28 174.561 172.937C174.561 173.595 175.094 174.128 175.752 174.128Z"/><path stroke="#fff" stroke-linecap="round" stroke-miterlimit="10" stroke-width=".489" d="M179.976 169.863C180.633 169.863 181.166 169.33 181.166 168.672C181.166 168.015 180.633 167.482 179.976 167.482C179.318 167.482 178.785 168.015 178.785 168.672C178.785 169.33 179.318 169.863 179.976 169.863Z"/><path stroke="#fff" stroke-linecap="round" stroke-miterlimit="10" stroke-width=".489" d="M178.304 178.596C178.962 178.596 179.495 178.063 179.495 177.406C179.495 176.748 178.962 176.215 178.304 176.215C177.647 176.215 177.114 176.748 177.114 177.406C177.114 178.063 177.647 178.596 178.304 178.596Z"/><path stroke="#fff" stroke-linecap="round" stroke-miterlimit="10" stroke-width=".489" d="M171.267 176.427C171.925 176.427 172.458 175.894 172.458 175.237C172.458 174.579 171.925 174.046 171.267 174.046C170.61 174.046 170.077 174.579 170.077 175.237C170.077 175.894 170.61 176.427 171.267 176.427Z"/><path stroke="#fff" stroke-linecap="round" stroke-miterlimit="10" stroke-width=".489" d="M173.208 182.951C173.865 182.951 174.398 182.418 174.398 181.76C174.398 181.103 173.865 180.57 173.208 180.57C172.55 180.57 172.017 181.103 172.017 181.76C172.017 182.418 172.55 182.951 173.208 182.951Z"/><path fill="#66B0F0" d="M186.744 193.021L179.552 207.952C178.533 210.357 176.176 211.923 173.558 211.923H164.385C162.036 211.923 160.609 209.542 161.506 207.373L170.729 185.128C171.243 183.774 172.148 182.649 173.281 181.858C174.423 181.067 175.793 180.618 177.236 180.618C179.242 180.618 181.232 181.98 182.553 183.489L185.749 186.938C187.225 188.618 187.608 190.974 186.744 193.021Z"/><path fill="#fff" stroke="#66B0F0" stroke-linejoin="round" stroke-miterlimit="10" stroke-width=".489" d="M186.744 193.021L179.552 207.952C178.533 210.357 176.176 211.923 173.558 211.923H163.806C162.901 211.923 162.387 211.36 162.085 210.585H164.254C166.872 210.585 169.228 209.02 170.248 206.614L178.541 189.319C179.315 187.705 180.954 186.669 182.748 186.669C185.089 186.669 186.866 188.381 187.192 190.55C187.225 191.382 187.078 192.222 186.744 193.021Z"/><path fill="#fff" d="M185.089 186.22C184.224 185.747 183.181 185.405 182.267 185.405C180.514 185.405 178.891 186.424 178.133 188.006L169.547 205.913C168.454 208.498 165.926 210.169 163.113 210.169H161.531C161.449 210.014 161.392 209.851 161.335 209.68H163.113C165.73 209.68 168.079 208.123 169.098 205.717L169.106 205.709L177.701 187.794C178.541 186.041 180.335 184.916 182.275 184.916C182.895 184.916 183.637 185.119 184.273 185.34L185.089 186.22Z"/><path fill="#A0505A" d="M155.056 139.17L153.01 165.908L152.096 177.887C152.096 177.887 146.136 184.524 139.351 180.431L136.212 165.916L129.028 132.704C127.087 123.726 133.219 114.993 142.328 113.778L155.056 139.17Z"/><path stroke="#fff" stroke-linecap="round" stroke-miterlimit="10" stroke-width=".489" d="M153.009 165.908L152.096 178.213C152.096 178.213 146.135 184.851 139.351 180.757L136.212 165.916C144.097 168.281 153.009 165.908 153.009 165.908Z"/><path stroke="#fff" stroke-linecap="round" stroke-miterlimit="10" stroke-width=".489" d="M143.64 173.304C144.298 173.304 144.831 172.771 144.831 172.114C144.831 171.456 144.298 170.923 143.64 170.923C142.983 170.923 142.45 171.456 142.45 172.114C142.45 172.771 142.983 173.304 143.64 173.304Z"/><path stroke="#fff" stroke-linecap="round" stroke-miterlimit="10" stroke-width=".489" d="M151.207 171.478C151.865 171.478 152.398 170.945 152.398 170.287C152.398 169.63 151.865 169.097 151.207 169.097C150.55 169.097 150.017 169.63 150.017 170.287C150.017 170.945 150.55 171.478 151.207 171.478Z"/><path stroke="#fff" stroke-linecap="round" stroke-miterlimit="10" stroke-width=".489" d="M139.074 169.863C139.731 169.863 140.264 169.33 140.264 168.673C140.264 168.015 139.731 167.482 139.074 167.482C138.416 167.482 137.883 168.015 137.883 168.673C137.883 169.33 138.416 169.863 139.074 169.863Z"/><path stroke="#fff" stroke-linecap="round" stroke-miterlimit="10" stroke-width=".489" d="M142.45 179.787C143.107 179.787 143.64 179.254 143.64 178.597C143.64 177.939 143.107 177.406 142.45 177.406C141.792 177.406 141.259 177.939 141.259 178.597C141.259 179.254 141.792 179.787 142.45 179.787Z"/><path stroke="#fff" stroke-linecap="round" stroke-miterlimit="10" stroke-width=".489" d="M148.003 177.406C148.66 177.406 149.193 176.873 149.193 176.215C149.193 175.558 148.66 175.025 148.003 175.025C147.345 175.025 146.812 175.558 146.812 176.215C146.812 176.873 147.345 177.406 148.003 177.406Z"/><path fill="#66B0F0" d="M159.957 180.741L152.096 212.176H149.617C149.503 212.176 149.397 212.167 149.283 212.159C147.407 211.988 145.826 210.406 145.426 208.539L139.343 180.415C146.127 184.516 152.096 177.879 152.096 177.879L159.957 180.741Z"/><path fill="#fff" stroke="#66B0F0" stroke-linejoin="round" stroke-miterlimit="10" stroke-width=".489" d="M160.356 196.87C162.012 188.129 162.468 181.45 159.614 180.912C156.76 180.374 151.68 186.172 150.025 194.913C148.37 203.654 149.234 211.385 152.088 211.923C154.942 212.469 158.701 205.619 160.356 196.87Z"/><path fill="#fff" d="M148.883 194.774C148.027 199.308 147.774 203.687 148.182 207.112C148.476 209.574 149.095 211.327 149.943 212.176H149.617C149.503 212.176 149.397 212.167 149.283 212.159C148.516 211.148 147.97 209.452 147.693 207.169C147.277 203.703 147.53 199.267 148.402 194.685C149.226 190.347 150.889 186.278 153.099 183.22C154.42 181.393 155.806 180.113 157.07 179.534L157.804 179.779C154.893 180.643 150.473 186.384 148.883 194.774Z"/><path fill="#FE5244" d="M142.327 113.77L179.527 109.937L216.71 120.367L216.392 125.308C215.887 133.104 209.168 139.17 201.356 139.17H155.064L142.327 113.77Z"/><path stroke="#fff" stroke-linecap="round" stroke-linejoin="round" stroke-miterlimit="10" stroke-width=".489" d="M214.591 120.008C214.591 127.085 207.529 135.745 199.717 135.745H153.425"/><path stroke="#fff" stroke-linecap="round" stroke-linejoin="round" stroke-miterlimit="10" stroke-width=".489" d="M210.179 118.597C209.021 124.916 202.84 131.668 196.072 131.668H151.55"/><path stroke="#fff" stroke-linecap="round" stroke-linejoin="round" stroke-miterlimit="10" stroke-width=".489" d="M205.164 117.096C203.207 122.462 197.899 127.509 192.15 127.509H149.185"/><path stroke="#fff" stroke-linecap="round" stroke-linejoin="round" stroke-miterlimit="10" stroke-width=".489" d="M201.307 116.045C198.739 119.951 194.523 123.025 190.03 123.025H147.065"/><path stroke="#fff" stroke-linecap="round" stroke-linejoin="round" stroke-miterlimit="10" stroke-width=".489" d="M197.002 114.838C194.531 117.325 191.335 118.948 187.991 118.948H145.026"/><path stroke="#fff" stroke-linecap="round" stroke-linejoin="round" stroke-miterlimit="10" stroke-width=".489" d="M191.4 113.215C189.655 114.202 187.747 114.789 185.79 114.789H142.825"/><path stroke="#fff" stroke-linecap="round" stroke-linejoin="round" stroke-miterlimit="10" stroke-width=".489" d="M154.975 139.17L142.246 113.77"/><path fill="#fff" stroke="#3FB1B5" stroke-linejoin="round" stroke-miterlimit="10" stroke-width=".489" d="M218.75 86.3304C215.243 87.3252 211.794 87.0316 211.427 85.9634C211.084 84.9442 212.634 83.1991 215.773 82.0412C215.928 81.9841 216.091 81.9271 216.254 81.87C217.2 81.552 218.146 81.3481 219.035 81.2421C221.669 80.9078 223.813 81.3807 224.082 82.1799C224.449 83.2481 222.46 85.2785 218.75 86.3304Z"/><path fill="#A0505A" d="M216.532 110.108H215.186L211.655 86.2733V86.257L211.566 85.6618C211.737 84.5772 213.433 83.0442 216.426 82.0494C217.918 81.552 219.402 81.3318 220.666 81.3074L221.954 84.8382L222.076 85.1725L226.154 96.352C228.6 103.03 223.65 110.108 216.532 110.108Z"/><path fill="#73325A" d="M222.036 85.091C221.179 85.6291 220.07 86.1266 218.749 86.5017C215.716 87.3579 212.642 87.0072 211.655 86.2733V86.257L211.566 85.6618C211.737 84.5772 213.433 83.0442 216.426 82.0494C217.918 81.552 219.402 81.3318 220.666 81.3074L222.036 85.091Z"/><path fill="#A0505A" d="M172.857 90.4975L168.576 101.147C166.464 106.407 161.36 109.856 155.684 109.856H98.1394V104.588C98.1394 103.316 98.9222 102.174 100.113 101.726L106.025 99.4835C106.563 99.2797 107.125 99.1737 107.696 99.1737H114.407L152.39 95.3411L158.946 80.3291L172.857 90.4975Z"/><path stroke="#73325A" stroke-linecap="round" stroke-miterlimit="10" stroke-width=".489" d="M104.337 102.721L99.8764 104.409C98.9794 104.751 98.3842 105.607 98.3842 106.57"/><path stroke="#73325A" stroke-linecap="round" stroke-miterlimit="10" stroke-width=".489" d="M104.337 105.412L99.8764 107.1C98.9794 107.442 98.3842 108.298 98.3842 109.26"/><path stroke="#73325A" stroke-linecap="round" stroke-miterlimit="10" stroke-width=".489" d="M104.337 108.005L99.8763 109.611"/><path fill="#FE5244" d="M103.872 100.388C103.872 100.388 108.047 89.7308 109.384 89.9102C110.722 90.0896 105.682 99.7035 105.682 99.7035L103.872 100.388Z"/><path fill="#73325A" d="M158.946 80.3372L157.984 82.5307L170.305 96.8414L172.857 90.4974L158.946 80.3372Z"/><path fill="#E4363D" d="M211.655 86.2815L216.711 120.366L179.535 109.937L172.857 90.4891L155.619 77.8907L161.669 70.6824C167.068 64.2486 175.034 60.5303 183.433 60.5303H195.379C205.768 60.5303 215.333 66.2056 220.315 75.3221L224.188 82.025C224.188 82.025 223.022 80.3126 216.735 82.0331C211.199 83.558 211.655 86.2815 211.655 86.2815Z"/><path stroke="#E4363D" stroke-linecap="round" stroke-linejoin="round" stroke-miterlimit="10" stroke-width=".489" d="M172.857 90.3343L174.79 81.9517"/><path stroke="#E4363D" stroke-linecap="round" stroke-linejoin="round" stroke-miterlimit="10" stroke-width=".489" d="M215.773 112.408L209.486 73.3245"/><path stroke="#E4363D" stroke-linecap="round" stroke-linejoin="round" stroke-miterlimit="10" stroke-width=".489" d="M179.527 109.782L216.629 120.366"/><path fill="#A0505A" d="M181.533 55.0834V60.5631L191.204 60.4815V50.8105L181.533 55.0834Z"/><path fill="#A0505A" d="M191.987 49.1226V49.2694C191.987 50.7372 190.878 51.9277 189.41 51.9277H188.839C188.472 53.3792 185.211 55.0753 182.895 55.0753H180.196C177.244 55.0753 174.985 52.4251 175.466 49.5059L175.597 48.7149L174.798 48.2664C174.341 48.0055 174.211 47.4102 174.529 46.9862L176.257 44.703L176.632 42.4524C176.934 40.6014 178.149 39.0929 179.764 38.3508C180.4 45.5184 186.727 46.3665 188.399 46.4643H189.329C190.796 46.4643 191.987 47.6549 191.987 49.1226Z"/><path stroke="#73325A" stroke-linecap="round" stroke-miterlimit="10" stroke-width=".489" d="M187.706 49.8239C187.706 48.666 188.644 47.7283 189.802 47.7283"/><path fill="#73325A" d="M178.867 46.5377C179.096 46.5377 179.283 46.1069 179.283 45.5755C179.283 45.0441 179.096 44.6133 178.867 44.6133C178.637 44.6133 178.451 45.0441 178.451 45.5755C178.451 46.1069 178.637 46.5377 178.867 46.5377Z"/><path stroke="#73325A" stroke-linecap="round" stroke-miterlimit="10" stroke-width=".489" d="M178.231 42.5994C178.231 42.5994 179.38 42.4852 180.563 44.1161"/><path fill="#73325A" d="M188.399 46.4643H189.329C190.797 46.4643 191.987 47.6548 191.987 49.1226V49.2694C191.987 50.7371 190.878 51.9277 189.41 51.9277L188.782 52.368C186.14 54.0641 182.487 60.7343 183.384 65.4556C184.395 70.7641 189.019 71.9464 193.292 71.131C197.565 70.3156 200.68 67.8285 199.668 62.5119C199.554 61.8841 199.367 61.2562 199.13 60.6365C199.204 60.6609 199.269 60.6854 199.342 60.7098C204.479 62.1124 210.514 62.2755 212.177 58.2636C213.841 54.2516 213.465 50.2805 208.467 48.2093C205.564 47.0025 201.617 47.0106 198.559 47.8424C200.101 42.485 197.361 36.5242 192.33 35.929C184.428 34.9912 179.894 38.2529 179.772 38.3426C179.764 39.2885 180.408 45.9995 188.399 46.4643Z"/><path stroke="#fff" stroke-linecap="round" stroke-linejoin="round" stroke-miterlimit="10" stroke-width=".489" d="M198.763 47.6548C198.119 49.7504 196.79 51.9929 194.629 53.5177C194.629 53.5177 198.445 56.0374 199.342 60.7179"/><path stroke="#FE5244" stroke-linejoin="round" stroke-miterlimit="10" stroke-width=".489" d="M200.982 47.4754H198.821V45.3146C198.821 44.1811 199.734 43.2678 200.868 43.2678H200.982C202.115 43.2678 203.029 44.1811 203.029 45.3146V45.4287C203.037 46.554 202.115 47.4754 200.982 47.4754Z"/><path stroke="#FE5244" stroke-linejoin="round" stroke-miterlimit="10" stroke-width=".489" d="M200.191 49.6933L198.804 47.4917L201.006 46.1054C202.107 45.4123 203.567 45.7385 204.26 46.8393L204.39 47.0432C205.083 48.144 204.757 49.6036 203.656 50.2967L203.452 50.4272C202.335 51.1203 200.884 50.7942 200.191 49.6933Z"/><path stroke="#FE5244" stroke-linejoin="round" stroke-miterlimit="10" stroke-width=".489" d="M187.421 53.6239L188.962 52.1479L190.471 53.8522C191.213 54.7084 191.115 56.0049 190.259 56.7388L190.169 56.8122C189.313 57.5542 188.016 57.4564 187.283 56.6002L187.209 56.5105C186.467 55.6624 186.565 54.3659 187.421 53.6239Z"/><path stroke="#FE5244" stroke-linejoin="round" stroke-miterlimit="10" stroke-width=".489" d="M189.672 54.6839L188.979 52.1806L191.482 51.4875C192.738 51.1368 194.034 51.8707 194.385 53.1265L194.45 53.363C194.801 54.6187 194.067 55.9152 192.811 56.2659L192.575 56.3311C191.319 56.6736 190.022 55.9315 189.672 54.6839Z"/><path stroke="#FFCF2D" stroke-linecap="round" stroke-miterlimit="10" stroke-width=".489" d="M167.418 145.441L153.213 211.923"/><path stroke="#FFCF2D" stroke-linecap="round" stroke-miterlimit="10" stroke-width=".489" d="M203.77 145.441L217.975 211.923"/><path stroke="#FFCF2D" stroke-linecap="round" stroke-miterlimit="10" stroke-width=".489" d="M156.361 197.163H214.631"/><path fill="#fff" stroke="#66B0F0" stroke-linejoin="round" stroke-miterlimit="10" stroke-width=".489" d="M214.949 145.441H156.23C155.488 145.441 154.885 144.837 154.885 144.095V140.516C154.885 139.774 155.488 139.17 156.23 139.17H214.949C215.692 139.17 216.295 139.774 216.295 140.516V144.095C216.295 144.837 215.692 145.441 214.949 145.441Z"/></svg>