<svg xmlns="http://www.w3.org/2000/svg" width="126" height="126" fill="none" viewBox="0 0 126 126"><path fill="url(#paint0_linear)" d="M14.2258 28.4516C12.6088 28.4516 11.0581 29.0939 9.91473 30.2373C8.77137 31.3807 8.12903 32.9314 8.12903 34.5484V109.742H117.871V34.5484C117.871 32.9314 117.229 31.3807 116.085 30.2373C114.942 29.0939 113.391 28.4516 111.774 28.4516H14.2258Z"/><path fill="url(#paint1_linear)" d="M109.742 36.5806V101.613H16.2581V36.5806H109.742Z"/><path fill="#AAE0E5" d="M109.742 36.5806V40.6451H16.2581V36.5806H109.742Z"/><path fill="#77CACB" d="M109.742 97.5484V101.613H16.2581V97.5484H109.742Z"/><path fill="url(#paint2_linear)" d="M4.06452 109.742H121.935C123.013 109.742 124.047 110.17 124.81 110.932C125.572 111.695 126 112.728 126 113.806V117.871C126 120.027 125.144 122.095 123.619 123.619C122.095 125.144 120.027 126 117.871 126H8.12903C5.97308 126 3.90543 125.144 2.38094 123.619C0.856449 122.095 0 120.027 0 117.871V113.806C0 112.728 0.428225 111.695 1.19047 110.932C1.95271 110.17 2.98654 109.742 4.06452 109.742Z"/><path fill="#8288A1" d="M126 113.806V117.871C126 120.027 125.144 122.095 123.619 123.619C122.095 125.144 120.027 126 117.871 126H8.12903C5.97308 126 3.90543 125.144 2.38094 123.619C0.856449 122.095 0 120.027 0 117.871V113.806C0 115.962 0.856449 118.03 2.38094 119.555C3.90543 121.079 5.97308 121.935 8.12903 121.935H117.871C120.027 121.935 122.095 121.079 123.619 119.555C125.144 118.03 126 115.962 126 113.806Z"/><path fill="#D7DBE2" d="M79.2581 115.839H46.742L42.6775 109.742H83.3227L79.2581 115.839Z"/><path fill="#8288A1" d="M117.871 105.677H8.12903V109.742H117.871V105.677Z"/><path fill="url(#paint3_linear)" d="M119.903 10.1613V14.2258H99.5807V10.1613C99.5807 7.46635 100.651 4.88179 102.557 2.97617C104.462 1.07056 107.047 0 109.742 0C112.437 0 115.021 1.07056 116.927 2.97617C118.833 4.88179 119.903 7.46635 119.903 10.1613Z"/><path fill="url(#paint4_linear)" d="M109.742 0C107.047 0 104.462 1.07056 102.557 2.97617C100.651 4.88178 99.5806 7.46635 99.5806 10.1613V101.613H26.4193V10.1613C26.4193 7.46635 27.4899 4.88178 29.3955 2.97617C31.3011 1.07056 33.8857 0 36.5806 0H109.742Z"/><path fill="url(#paint5_linear)" d="M42.6775 22.3548C46.0446 22.3548 48.7742 19.6252 48.7742 16.258C48.7742 12.8909 46.0446 10.1613 42.6775 10.1613C39.3103 10.1613 36.5807 12.8909 36.5807 16.258C36.5807 19.6252 39.3103 22.3548 42.6775 22.3548Z"/><path fill="#9CA0AD" d="M73.1613 18.2903H56.9032C56.3642 18.2903 55.8473 18.0762 55.4662 17.6951C55.0851 17.314 54.871 16.7971 54.871 16.2581C54.871 15.7191 55.0851 15.2022 55.4662 14.8211C55.8473 14.4399 56.3642 14.2258 56.9032 14.2258H73.1613C73.7003 14.2258 74.2172 14.4399 74.5983 14.8211C74.9794 15.2022 75.1936 15.7191 75.1936 16.2581C75.1936 16.7971 74.9794 17.314 74.5983 17.6951C74.2172 18.0762 73.7003 18.2903 73.1613 18.2903Z"/><path fill="#9CA0AD" d="M89.4194 36.5807H46.742C46.203 36.5807 45.6861 36.3666 45.3049 35.9855C44.9238 35.6043 44.7097 35.0874 44.7097 34.5484C44.7097 34.0094 44.9238 33.4925 45.3049 33.1114C45.6861 32.7303 46.203 32.5162 46.742 32.5162H89.4194C89.9584 32.5162 90.4753 32.7303 90.8564 33.1114C91.2375 33.4925 91.4517 34.0094 91.4517 34.5484C91.4517 35.0874 91.2375 35.6043 90.8564 35.9855C90.4753 36.3666 89.9584 36.5807 89.4194 36.5807Z"/><path fill="#9CA0AD" d="M89.4193 46.7419H36.5806C36.0416 46.7419 35.5247 46.5278 35.1436 46.1467C34.7625 45.7656 34.5483 45.2487 34.5483 44.7097C34.5483 44.1707 34.7625 43.6538 35.1436 43.2727C35.5247 42.8915 36.0416 42.6774 36.5806 42.6774H89.4193C89.9583 42.6774 90.4752 42.8915 90.8563 43.2727C91.2375 43.6538 91.4516 44.1707 91.4516 44.7097C91.4516 45.2487 91.2375 45.7656 90.8563 46.1467C90.4752 46.5278 89.9583 46.7419 89.4193 46.7419Z"/><path fill="#9CA0AD" d="M89.4193 56.9033H36.5806C36.0416 56.9033 35.5247 56.6892 35.1436 56.308C34.7625 55.9269 34.5483 55.41 34.5483 54.871C34.5483 54.332 34.7625 53.8151 35.1436 53.434C35.5247 53.0529 36.0416 52.8387 36.5806 52.8387H89.4193C89.9583 52.8387 90.4752 53.0529 90.8563 53.434C91.2375 53.8151 91.4516 54.332 91.4516 54.871C91.4516 55.41 91.2375 55.9269 90.8563 56.308C90.4752 56.6892 89.9583 56.9033 89.4193 56.9033Z"/><path fill="#9CA0AD" d="M77.2258 67.0645H36.5806C36.0416 67.0645 35.5247 66.8504 35.1436 66.4693C34.7625 66.0882 34.5483 65.5712 34.5483 65.0323C34.5483 64.4933 34.7625 63.9764 35.1436 63.5952C35.5247 63.2141 36.0416 63 36.5806 63H77.2258C77.7647 63 78.2817 63.2141 78.6628 63.5952C79.0439 63.9764 79.258 64.4933 79.258 65.0323C79.258 65.5712 79.0439 66.0882 78.6628 66.4693C78.2817 66.8504 77.7647 67.0645 77.2258 67.0645Z"/><path fill="#5B8DC9" d="M51.3349 82.4284L44.222 90.7403C43.8717 91.1499 43.373 91.4036 42.8356 91.4455C42.2982 91.4875 41.7662 91.3142 41.3565 90.9639C40.9469 90.6135 40.6932 90.1148 40.6513 89.5774C40.6094 89.04 40.7826 88.508 41.133 88.0984L53.3265 73.8726C53.6242 73.5257 54.03 73.2893 54.4786 73.2015C54.9271 73.1137 55.3922 73.1797 55.7986 73.3888C56.205 73.5978 56.5291 73.9378 56.7185 74.3538C56.9079 74.7698 56.9515 75.2375 56.8423 75.6813C55.8528 79.3734 55.2668 83.1621 55.0946 86.9806C57.431 85.5249 59.5985 83.8141 61.5572 81.8797C61.7849 81.6526 62.0633 81.4829 62.3694 81.3843C62.6755 81.2858 63.0006 81.2613 63.318 81.3129C63.6354 81.3645 63.9361 81.4906 64.1952 81.681C64.4544 81.8714 64.6647 82.1206 64.8088 82.4081L65.5811 83.9526L67.6133 81.9203C67.8927 81.6219 68.2556 81.4147 68.6546 81.3257C69.0535 81.2367 69.4701 81.2701 69.8498 81.4216C70.2295 81.573 70.5547 81.8354 70.7829 82.1746C71.0112 82.5137 71.1318 82.9138 71.1291 83.3226C71.1291 83.3226 71.2511 87.3871 73.1614 87.3871H87.3872C87.9262 87.3871 88.4431 87.6012 88.8242 87.9823C89.2053 88.3634 89.4194 88.8804 89.4194 89.4193C89.4194 89.9583 89.2053 90.4752 88.8242 90.8564C88.4431 91.2375 87.9262 91.4516 87.3872 91.4516H73.1614C71.9556 91.4338 70.7873 91.0292 69.8288 90.2975C68.8702 89.5658 68.172 88.5455 67.8369 87.3871C66.2314 88.9926 65.8046 89.4193 64.7072 89.4193C63.6098 89.4193 63.2236 88.3626 62.3904 86.6555C53.8143 94.0326 49.8514 93.4839 51.3349 82.4284Z"/><defs><linearGradient id="paint0_linear" x1="63" x2="63" y1="109.742" y2="28.452" gradientUnits="userSpaceOnUse"><stop stop-color="#A0A6BA"/><stop offset="1" stop-color="#C6CCDA"/></linearGradient><linearGradient id="paint1_linear" x1="63" x2="63" y1="101.613" y2="36.581" gradientUnits="userSpaceOnUse"><stop stop-color="#9DD5DF"/><stop offset="1" stop-color="#C3E1F5"/></linearGradient><linearGradient id="paint2_linear" x1="4032" x2="4032" y1="1134" y2="1003.94" gradientUnits="userSpaceOnUse"><stop stop-color="#A0A6BA"/><stop offset="1" stop-color="#C6CCDA"/></linearGradient><linearGradient id="paint3_linear" x1="1115.71" x2="1318.94" y1="64.016" y2="64.016" gradientUnits="userSpaceOnUse"><stop stop-color="#A0A6BA"/><stop offset="1" stop-color="#C6CCDA"/></linearGradient><linearGradient id="paint4_linear" x1="68.081" x2="68.081" y1="101.613" y2="0" gradientUnits="userSpaceOnUse"><stop stop-color="#D4D8E1"/><stop offset="1" stop-color="#F3F4F5"/></linearGradient><linearGradient id="paint5_linear" x1="42.678" x2="42.678" y1="22.355" y2="10.161" gradientUnits="userSpaceOnUse"><stop stop-color="#FBCC88"/><stop offset="1" stop-color="#FFE5C3"/></linearGradient></defs></svg>