<svg xmlns="http://www.w3.org/2000/svg" width="264" height="226" fill="none" viewBox="0 0 264 226"><path stroke="#E4363D" stroke-linecap="round" stroke-linejoin="round" stroke-miterlimit="2.287" stroke-width=".448" d="M95.8304 13.3058C95.8304 13.3058 133.8 -12.0307 166.2 10.4181"/><path stroke="#E4363D" stroke-linecap="round" stroke-linejoin="round" stroke-miterlimit="2.287" stroke-width=".448" d="M100.75 29.1369C110.72 23.7493 137.733 11.94 162.677 25.8092"/><path fill="#A52929" fill-rule="evenodd" d="M165.442 8.98304C165.531 8.59682 165.916 8.35574 166.303 8.4453L167.703 8.7692C168.089 8.85851 168.33 9.24462 168.241 9.63084L158.987 49.6111C158.898 49.9973 158.511 50.2381 158.126 50.1488L156.726 49.8249C156.339 49.7353 156.099 49.3495 156.188 48.9633L165.442 8.98304Z" clip-rule="evenodd"/><path fill="#A52929" fill-rule="evenodd" d="M96.9896 11.7831C96.8906 11.3993 96.4994 11.1678 96.1148 11.267L94.7238 11.6255C94.3403 11.7244 94.1086 12.1164 94.2076 12.5003L104.451 52.2383C104.55 52.6222 104.942 52.8534 105.326 52.7545L106.717 52.3959C107.101 52.2968 107.332 51.9051 107.233 51.5212L96.9896 11.7831Z" clip-rule="evenodd"/><path fill="#69BAC9" fill-rule="evenodd" d="M54.8009 18.7158C54.8009 18.7158 56.3225 15.7439 58.6099 17.1214C58.6099 17.1214 59.5581 16.4478 60.0247 16.1163C60.0612 16.0903 60.1103 16.0906 60.1466 16.117C60.183 16.1434 60.1983 16.19 60.1849 16.2328C60.0229 16.7494 59.706 17.7602 59.706 17.7602C59.706 17.7602 61.7536 22.9279 58.6153 26.7006C57.7091 27.7901 52.2531 33.2896 47.0825 27.6259C46.8134 27.3308 46.6911 26.9306 46.7487 26.5356C46.8586 25.7693 47.1734 24.4891 48.0521 23.7421L49.7526 24.7281C49.104 24.0146 48.489 23.2751 48.0521 22.3982C48.0521 22.3982 46.8137 17.3812 50.3421 13.8365C50.4068 13.7722 50.4981 13.7424 50.5882 13.7565C50.6783 13.7705 50.7564 13.8264 50.7985 13.9073C51.352 14.9784 53.1469 18.2194 54.8009 18.7158Z" clip-rule="evenodd"/><path fill="#fff" fill-rule="evenodd" d="M47.9419 18.8891C48.3575 19.7616 49.3283 21.5646 50.6788 22.6039C50.8066 22.7022 50.8304 22.8858 50.7321 23.0136C50.6338 23.1412 50.4502 23.1652 50.3224 23.0669C49.254 22.2445 48.3978 20.9479 47.855 19.9776C47.8661 19.591 47.8997 19.239 47.9419 18.8891ZM48.5434 16.5547C48.7447 17.0866 49.798 19.7172 51.4423 21.1312C51.5646 21.2363 51.5784 21.4208 51.4734 21.543C51.3683 21.6653 51.1837 21.6791 51.0614 21.5741C49.6997 20.4031 48.7174 18.4438 48.255 17.3862C48.341 17.0886 48.4379 16.8117 48.5434 16.5547ZM49.6677 14.6298C49.674 14.6423 49.6795 14.6558 49.6841 14.6696C49.6841 14.6696 50.6902 17.7595 52.5485 19.4064C52.6691 19.5133 52.6802 19.698 52.5733 19.8187C52.4664 19.9393 52.2817 19.9505 52.161 19.8436C50.5985 18.4588 49.6007 16.1108 49.2599 15.2141C49.4051 14.9885 49.5417 14.7958 49.6677 14.6298Z" clip-rule="evenodd"/><path fill="#000" fill-rule="evenodd" d="M54.8199 18.6915L55.138 18.1853C55.138 18.1853 55.7525 18.5587 56.2738 18.634C56.4335 18.657 56.5443 18.8053 56.5213 18.9648C56.4983 19.1244 56.3501 19.2352 56.1905 19.2122C55.6213 19.1301 54.8199 18.6915 54.8199 18.6915Z" clip-rule="evenodd"/><path fill="#000" fill-rule="evenodd" d="M48.2446 23.8352C48.2446 23.8352 49.7571 26.088 52.0979 26.5636C52.256 26.5956 52.4175 26.5815 52.4915 26.4383C52.5656 26.2951 52.5204 26.0915 52.3662 26.0446C50.5178 25.4831 49.754 24.7004 49.754 24.7004L48.2446 23.8352Z" clip-rule="evenodd"/><path fill="#69BAC9" fill-rule="evenodd" d="M209.481 44.9683C209.481 44.9683 207.959 41.9964 205.672 43.3739C205.672 43.3739 204.724 42.7004 204.257 42.3688C204.22 42.3428 204.171 42.3431 204.135 42.3696C204.099 42.396 204.083 42.4426 204.097 42.4854C204.259 43.002 204.576 44.0127 204.576 44.0127C204.576 44.0127 202.528 49.1805 205.666 52.9531C206.572 54.0427 212.029 59.5422 217.199 53.8785C217.468 53.5833 217.591 53.1832 217.533 52.7881C217.423 52.0218 217.108 50.7417 216.23 49.9947L214.529 50.9806C215.178 50.2672 215.793 49.5276 216.23 48.6508C216.23 48.6508 217.468 43.6338 213.94 40.089C213.875 40.0248 213.784 39.995 213.693 40.009C213.603 40.023 213.525 40.079 213.483 40.1599C212.93 41.231 211.135 44.4719 209.481 44.9683Z" clip-rule="evenodd"/><path fill="#fff" fill-rule="evenodd" d="M216.34 45.1416C215.924 46.0141 214.953 47.8172 213.603 48.8565C213.475 48.9548 213.451 49.1384 213.55 49.2661C213.648 49.3938 213.831 49.4177 213.959 49.3195C215.028 48.4971 215.884 47.2005 216.427 46.2301C216.416 45.8435 216.382 45.4916 216.34 45.1416ZM215.738 42.8072C215.537 43.3391 214.484 45.9697 212.839 47.3837C212.717 47.4889 212.703 47.6734 212.808 47.7956C212.913 47.9178 213.098 47.9317 213.22 47.8267C214.582 46.6557 215.564 44.6963 216.027 43.6388C215.941 43.3412 215.844 43.0643 215.738 42.8072ZM214.614 40.8823C214.608 40.8949 214.602 40.9083 214.598 40.9222C214.598 40.9222 213.591 44.0121 211.733 45.6589C211.612 45.7658 211.601 45.9506 211.708 46.0712C211.815 46.1919 212 46.2031 212.121 46.0962C213.683 44.7114 214.681 42.3634 215.022 41.4667C214.876 41.241 214.74 41.0484 214.614 40.8823Z" clip-rule="evenodd"/><path fill="#000" fill-rule="evenodd" d="M209.462 44.9441L209.144 44.4379C209.144 44.4379 208.529 44.8113 208.008 44.8865C207.848 44.9096 207.737 45.0578 207.76 45.2173C207.783 45.3769 207.932 45.4878 208.091 45.4647C208.66 45.3826 209.462 44.9441 209.462 44.9441Z" clip-rule="evenodd"/><path fill="#000" fill-rule="evenodd" d="M216.037 50.0878C216.037 50.0878 214.525 52.3405 212.184 52.8162C212.026 52.8482 211.864 52.834 211.79 52.6909C211.716 52.5476 211.761 52.3441 211.915 52.2972C213.764 51.7356 214.528 50.953 214.528 50.953L216.037 50.0878Z" clip-rule="evenodd"/><path fill="#FF7867" fill-rule="evenodd" d="M31.1129 163.171L31.1969 152.03H32.0731L31.9892 163.391C31.9892 163.534 31.9192 163.668 31.8015 163.75C31.8015 163.75 29.0792 165.625 28.4078 168.242C34.3729 165.394 38.3657 164.346 43.8563 164.132C47.5426 163.988 51.2004 164.904 55.1165 166.425L54.7598 152.056L55.6358 152.03L56.0119 167.064C56.0163 167.211 55.9459 167.351 55.8247 167.436C55.7035 167.521 55.5479 167.538 55.4108 167.483C51.3839 165.867 47.6539 164.86 43.8906 165.007C38.2918 165.226 34.2867 166.338 28.029 169.399C27.8877 169.468 27.7202 169.456 27.59 169.367C27.4599 169.278 27.3874 169.127 27.3998 168.97C27.6319 166.053 30.3655 163.75 31.1129 163.171Z" clip-rule="evenodd"/><path fill="#FF7867" fill-rule="evenodd" d="M141.44 221.416C140.999 220.448 139.576 218.383 135.294 217.575C135.123 217.543 134.987 217.411 134.949 217.242L131.492 202.108L132.338 201.856L135.739 216.77C141.879 218.035 142.485 221.777 142.485 221.777C142.507 221.904 142.472 222.035 142.389 222.134C142.306 222.234 142.183 222.292 142.053 222.292H111.922C111.722 222.292 111.548 222.156 111.497 221.964L108.104 209.095L108.906 208.854L112.261 221.416H141.44Z" clip-rule="evenodd"/><path fill="#000" fill-rule="evenodd" d="M31.182 152.055H55.6335V108.122L88.7002 130.003L108.091 209.102L132.324 201.862L115.627 111.021L80.2472 87.8855C80.2472 87.8855 64.7329 79.8914 50.9603 72.7947C46.555 70.5249 41.2825 70.7301 37.067 73.3356C32.8515 75.9409 30.3101 80.5653 30.3706 85.5205C30.6958 112.193 31.182 152.055 31.182 152.055Z" clip-rule="evenodd"/><path fill="#3768BE" fill-rule="evenodd" d="M94.858 97.4301L95.5926 97.9097L91.8801 103.828L93.8546 105.403L97.7979 99.3523L98.531 99.8319L94.3249 106.285C94.2577 106.389 94.1496 106.459 94.0269 106.479C93.9057 106.498 93.7816 106.466 93.6837 106.389L91.0271 104.269C90.8533 104.13 90.811 103.883 90.9293 103.694L94.8536 97.4371L94.858 97.4301Z" clip-rule="evenodd"/><path fill="#3768BE" fill-rule="evenodd" d="M37.4315 73.71C37.2829 73.6335 37.1037 73.6484 36.9697 73.7482C31.9197 77.5054 31.5404 81.8003 31.5404 81.8003C31.5253 81.9604 31.5989 82.1158 31.7324 82.2053C31.8659 82.295 32.0377 82.3042 32.1801 82.2295C32.2835 82.1753 32.4351 82.1752 32.6146 82.1857C32.8663 82.2003 33.16 82.2547 33.4732 82.3321C35.034 82.7178 37.0434 83.672 37.0434 83.672C37.1492 83.7221 37.2707 83.728 37.3806 83.688C37.4908 83.6481 37.5801 83.5657 37.6291 83.4594C39.0037 80.4746 41.9884 78.2127 41.9884 78.2127C42.0826 78.1412 42.1438 78.0348 42.1584 77.9176C42.1729 77.8004 42.1394 77.6822 42.0655 77.5899C40.0253 75.0415 37.4315 73.71 37.4315 73.71ZM37.2683 74.6209C33.8475 77.2539 32.8187 80.1105 32.5243 81.3061C32.8529 81.3099 33.2532 81.375 33.6833 81.4813C34.8838 81.778 36.3386 82.3947 37.0246 82.7005C38.2261 80.3601 40.2814 78.4926 41.1037 77.8024C39.6055 76.0553 37.8871 74.9777 37.2683 74.6209Z" clip-rule="evenodd"/><path fill="#3768BE" fill-rule="evenodd" d="M31.1108 148.084L31.1001 147.208H55.6104V148.084H49.358V152.034H48.4817V148.084H47.391V152.034H46.5148V148.084H36.3977V152.034H35.5214V148.084H31.1108Z" clip-rule="evenodd"/><path fill="#3768BE" fill-rule="evenodd" d="M131.577 197.911L131.737 198.777L123.694 201.056L124.907 204.02L124.062 204.267L122.845 201.297L122.175 201.487L123.219 204.512L122.378 204.759L121.331 201.727L112.949 204.103L113.95 207.22L113.108 207.465L112.105 204.343L107.242 205.721L107.033 204.87L131.577 197.911Z" clip-rule="evenodd"/><path fill="#3768BE" fill-rule="evenodd" d="M114.743 161.43C114.629 161.452 114.528 161.519 114.462 161.615C114.398 161.712 114.373 161.83 114.395 161.944L115.796 169.124C115.818 169.239 115.885 169.34 115.983 169.404C116.081 169.47 116.2 169.493 116.314 169.47L123.208 168.046C123.322 168.022 123.422 167.955 123.485 167.857C123.549 167.76 123.571 167.641 123.548 167.527L122.055 160.462C122.006 160.228 121.778 160.078 121.544 160.123L114.743 161.43ZM115.34 162.208L116.571 168.522L122.599 167.278L121.287 161.065L115.34 162.208Z" clip-rule="evenodd"/><path fill="#E0755E" fill-rule="evenodd" d="M111.952 106.577C112.805 111.447 116.757 126.526 129.211 124.609C133.477 123.952 141.018 120.222 140.49 104.935C139.926 88.5626 139.602 77.1336 137.894 64.534C137.632 62.5835 136.945 60.7518 136.117 59.6653C135.34 58.6474 134.408 58.8488 134.769 60.2993C133.068 58.2681 131.192 58.3648 131.76 59.8831C131.76 59.8831 129.43 58.9291 130.284 61.207C130.284 61.207 128.292 60.6748 129.009 62.4908C129.64 64.0866 129.253 69.7706 128.951 70.0766C128.542 70.4883 128.344 68.5037 126.836 67.321C126.363 66.951 125.542 66.7096 125.561 68.7081C125.561 68.7081 124.267 89.7988 121.634 103.401L111.952 106.577Z" clip-rule="evenodd"/><path fill="#A52929" fill-rule="evenodd" d="M131.541 73.138C131.322 72.685 131.03 72.2531 130.757 71.8934C130.346 71.3525 129.854 70.9028 129.317 70.4909C129.277 70.4601 128.756 70.0994 128.756 70.0994C128.937 70.2028 129.071 69.9281 129.09 69.7163C129.154 69.76 129.609 70.0408 129.642 70.067C130.216 70.508 130.742 70.9912 131.182 71.5704C131.425 71.8912 131.68 72.2654 131.893 72.6621C132.568 71.8758 133.55 71.3107 134.558 71.2077C134.706 71.1928 134.837 71.2997 134.852 71.4464C134.866 71.5932 134.76 71.7243 134.614 71.7394C133.659 71.8368 132.731 72.4144 132.148 73.1957C132.271 73.4919 132.362 73.7926 132.401 74.086C132.426 74.2744 132.386 74.7641 132.223 75.0342C132.137 75.1741 132.021 75.2654 131.888 75.2991C131.76 75.3318 131.601 75.3174 131.418 75.1882C131.167 75.0111 131.071 74.7286 131.084 74.4129C131.098 74.0416 131.272 73.6231 131.396 73.3879C131.442 73.3032 131.49 73.2198 131.541 73.138ZM131.794 73.7896C131.712 73.9728 131.627 74.214 131.617 74.4349C131.612 74.5601 131.626 74.6813 131.725 74.7516C131.734 74.7576 131.745 74.7635 131.754 74.7685C131.769 74.7459 131.791 74.7076 131.802 74.6788C131.869 74.4995 131.886 74.2597 131.871 74.157C131.855 74.0355 131.829 73.9127 131.794 73.7896Z" clip-rule="evenodd"/><path fill="#A52929" fill-opacity=".86" fill-rule="evenodd" d="M130.305 61.2279L130.129 60.5596C130.129 60.5596 131.677 62.8416 132.144 67.5505C132.164 67.7511 132.021 67.9314 131.821 67.9533C131.621 67.9754 131.434 67.8312 131.418 67.6304C131.1 63.7107 129.809 61.0677 129.73 61.1573L130.305 61.2279Z" clip-rule="evenodd"/><path fill="#A52929" fill-opacity=".86" fill-rule="evenodd" d="M131.776 58.9523C131.605 59.1848 131.642 59.5127 131.754 59.8749L131.435 59.7712C131.435 59.7712 133.362 63.5577 133.446 67.3288C133.45 67.5303 133.617 67.6903 133.818 67.6857C134.02 67.6813 134.18 67.5141 134.176 67.3127C134.077 62.8162 131.776 58.9523 131.776 58.9523Z" clip-rule="evenodd"/><path fill="#A52929" fill-opacity=".86" fill-rule="evenodd" d="M134.698 59.5227C134.669 59.6702 134.697 59.9506 134.76 60.3217C134.531 59.9677 134.243 59.7004 133.919 59.488C133.919 59.488 135.573 64.6503 135.721 67.3632C135.732 67.5644 135.905 67.7188 136.105 67.7078C136.306 67.6969 136.461 67.5245 136.45 67.3234C136.306 64.7004 134.698 59.5227 134.698 59.5227Z" clip-rule="evenodd"/><path fill="#A52929" fill-rule="evenodd" d="M119.843 104.009C119.843 104.009 119.926 106.635 120.027 109.792C120.037 110.094 120.281 110.335 120.583 110.342C120.884 110.348 121.138 110.117 121.161 109.816C121.417 106.368 121.635 103.421 121.635 103.421L119.843 104.009Z" clip-rule="evenodd"/><path fill="#E0755E" fill-rule="evenodd" d="M99.7756 68.7119L101.147 66.6351C101.147 66.6351 101.081 66.5486 100.973 66.4046C99.5697 64.5402 99.5171 61.9867 100.843 60.0666C102.72 57.3463 105.759 54.1982 109.326 55.271C109.326 55.271 114.985 57.4692 113.152 62.9147L112.92 63.9205C112.92 63.9205 115.008 64.937 113.152 66.6351C113.152 66.6351 111.687 67.9505 110.506 67.169L109.844 73.9225C109.844 73.9225 102.292 75.528 99.7756 68.7119Z" clip-rule="evenodd"/><path fill="#A52929" fill-rule="evenodd" d="M101.182 66.5991L100.75 67.2769C100.75 67.2769 101.354 67.7812 101.753 68.0245C102.862 68.7031 104.506 69.2839 106.869 69.2144C107.11 69.2072 107.301 69.0051 107.294 68.7634C107.287 68.5217 107.084 68.3312 106.843 68.3384C104.705 68.4015 103.214 67.8909 102.21 67.2769C101.833 67.0469 101.182 66.5991 101.182 66.5991Z" clip-rule="evenodd"/><path fill="#A52929" fill-rule="evenodd" d="M112.905 63.9397L113.117 63.0525C113.117 63.0525 112.754 62.9528 112.535 62.9469C112.013 62.9327 111.303 63.1171 110.244 63.8371C110.044 63.973 109.993 64.2459 110.129 64.4458C110.264 64.6457 110.537 64.6976 110.738 64.5616C111.564 63.9986 112.103 63.8118 112.512 63.8228C112.717 63.8283 112.905 63.9397 112.905 63.9397Z" clip-rule="evenodd"/><path fill="#A52929" fill-rule="evenodd" d="M109.563 67.6043L110.376 68.2262L110.528 67.1787L110.153 66.9571C109.975 66.7941 109.697 66.8068 109.533 66.9854C109.371 67.164 109.383 67.4413 109.563 67.6043Z" clip-rule="evenodd"/><path fill="#A52929" fill-rule="evenodd" d="M104.856 63.0415C104.411 63.3281 104.097 63.9244 104.472 64.3878C104.711 64.6815 105.074 64.797 105.475 64.7895C105.975 64.7802 106.536 64.5762 106.879 64.4182C107.025 64.3506 107.088 64.177 107.021 64.0308C106.953 63.8845 106.78 63.8207 106.634 63.8881C106.348 64.0201 105.881 64.198 105.463 64.2058C105.252 64.2098 105.052 64.1746 104.926 64.0199C104.874 63.9558 104.881 63.8832 104.911 63.8174C104.961 63.7027 105.065 63.6013 105.171 63.532C105.307 63.4447 105.347 63.2639 105.258 63.1285C105.171 62.9932 104.99 62.9541 104.856 63.0415Z" clip-rule="evenodd"/><path fill="#A52929" fill-rule="evenodd" d="M106.9 64.4063C107.748 64.0148 107.646 63.2135 107.307 62.901C107.071 62.6847 106.706 62.5925 106.307 62.6066C105.781 62.6254 105.199 62.8213 104.877 63.0295C104.742 63.1168 104.703 63.2976 104.79 63.433C104.877 63.5684 105.058 63.6074 105.193 63.5201C105.449 63.3552 105.911 63.2048 106.327 63.1901C106.558 63.1819 106.776 63.2063 106.912 63.331C107.043 63.4514 106.982 63.7249 106.656 63.8762C106.508 63.9438 106.445 64.1174 106.512 64.2636C106.58 64.41 106.753 64.4739 106.9 64.4063Z" clip-rule="evenodd"/><path fill="#000" fill-rule="evenodd" d="M85.9889 66.2236C85.9889 66.2236 90.845 65.4253 99.7407 69.2248C99.8137 69.2558 100.025 69.3571 100.025 69.3571L99.7977 68.7426L99.9437 68.5127C99.9437 68.5127 99.8137 68.4674 99.7407 68.4363C90.5033 64.4876 85.8005 65.3677 85.8005 65.3677C85.5639 65.4196 85.415 65.6535 85.4661 65.8897C85.5187 66.1259 85.7524 66.2755 85.9889 66.2236Z" clip-rule="evenodd"/><path fill="#000" fill-rule="evenodd" d="M109.942 73.077L109.858 73.9574C109.858 73.9574 109.959 73.999 110.014 74.0221C112.136 74.9177 118.144 78.0628 123.561 86.6544C123.655 86.804 123.843 87.1082 123.843 87.1082L123.997 85.6803C123.997 85.6803 123.91 85.5756 123.843 85.4733C118.26 76.9667 112.173 73.946 110.157 73.1327C110.106 73.1122 109.942 73.077 109.942 73.077Z" clip-rule="evenodd"/><path fill="#000" fill-rule="evenodd" d="M81.1634 87.8692L83.8857 86.3227C84.0755 86.1722 84.1062 85.8964 83.9558 85.7072C83.8053 85.5179 83.5585 85.2992 83.3687 85.4498L80.488 87.1007L81.1634 87.8692Z" clip-rule="evenodd"/><path fill="#000" fill-rule="evenodd" d="M82.0067 78.424L84.3276 90.5448L85.3587 91.2069L82.8656 78.2505C82.8177 78.0134 82.5863 77.8598 82.3493 77.9077C82.1123 77.9556 81.9588 78.1869 82.0067 78.424Z" clip-rule="evenodd"/><path fill="#000" fill-rule="evenodd" d="M108.94 95.707L110.863 107.899L112.455 108.939L109.801 95.5487C109.758 95.3108 109.53 95.1532 109.292 95.1968C109.054 95.2407 108.896 95.4692 108.94 95.707Z" clip-rule="evenodd"/><path fill="#000" fill-rule="evenodd" d="M108.591 106.407L108.967 95.4818C110.464 99.5456 111.147 104.169 111.913 108.58C110.789 107.835 109.7 107.139 108.591 106.407Z" clip-rule="evenodd"/><path fill="#E0755E" fill-rule="evenodd" d="M99.2759 32.0665C80.0144 44.671 71.2926 51.117 55.827 68.4817C51.9164 72.863 51.0317 79.169 53.5856 84.457C54.1235 85.5576 54.7934 86.7022 55.6339 87.8709C55.6341 87.8709 55.6341 87.871 55.6342 87.871C60.0511 94.0117 68.4598 95.7003 74.9048 91.741C78.262 89.6786 81.2047 87.8709 81.2047 87.8709L72.9856 78.6061L103.776 47.9989C103.776 47.9989 106.212 46.4837 106.407 48.5678C106.407 48.5678 108.426 48.4959 108.091 45.3803C108.091 45.3803 110.159 43.9137 108.954 41.725C108.954 41.725 110.186 39.1209 108.091 37.332C108.091 37.332 108.224 34.8423 105.616 34.0829C105.616 34.0829 102.733 33.12 99.882 34.0829L99.2759 32.0665Z" clip-rule="evenodd"/><path fill="#A52929" fill-rule="evenodd" d="M72.8385 78.4347L73.4196 79.0906L68.4593 83.5856C68.2801 83.748 68.0028 83.7344 67.8404 83.5552C67.6781 83.376 67.6917 83.0987 67.8709 82.9363L72.8385 78.4347Z" clip-rule="evenodd"/><path fill="#A52929" fill-rule="evenodd" d="M108.074 45.4816C107.54 44.5415 106.515 44.2117 105.473 44.1302C103.655 43.9878 101.751 44.6151 101.751 44.6151C101.52 44.6906 101.273 44.5653 101.197 44.3355C101.121 44.1058 101.247 43.858 101.476 43.7826C101.476 43.7826 103.557 43.1012 105.542 43.2565C106.772 43.3528 107.953 43.7698 108.666 44.7804C108.438 45.037 108.074 45.3725 108.074 45.3725V45.4816ZM108.876 41.765C105.446 39.2372 100.901 41.1697 100.901 41.1697C100.677 41.2636 100.42 41.1589 100.327 40.936C100.233 40.7131 100.338 40.456 100.56 40.3622C100.56 40.3622 105.415 38.3356 109.192 40.9151C109.138 41.1638 109.03 41.5659 108.876 41.765ZM108.074 37.3561C103.732 35.5605 99.4824 37.8332 99.4824 37.8332C99.2692 37.9472 99.0034 37.8664 98.8895 37.6532C98.7756 37.4398 98.8559 37.1741 99.0691 37.0602C99.0691 37.0602 103.388 34.7588 107.941 36.368C107.991 36.5797 108.107 37.1021 108.074 37.3561ZM99.6256 33.2842C99.6913 33.5041 99.8286 33.975 99.8724 34.1286L97.8905 34.9073C97.6656 34.9958 97.41 34.8848 97.3224 34.6598C97.2333 34.4346 97.3443 34.1802 97.5692 34.0918L99.6256 33.2842Z" clip-rule="evenodd"/><path fill="#A52929" fill-rule="evenodd" d="M156.585 47.7305C156.533 48.2317 156.305 48.6986 155.943 49.0492C155.665 49.3207 155.331 49.4924 155.034 49.2351C154.831 49.0592 154.529 47.8818 154.419 47.4121C154.419 47.4121 154.069 46.2616 154.885 45.0713C154.885 45.0713 153.267 43.9105 154.773 42.1511C154.773 42.1511 153.821 40.2003 155.478 39.0685C155.478 39.0685 154.349 37.1856 157.19 35.3487C158.03 34.8056 160.537 32.5818 165.174 35.6594L177.927 44.1614L169.69 57.0684C169.69 57.0684 158.742 46.5227 157.814 46.3527C157.814 46.3527 156.775 45.784 156.585 47.7305Z" clip-rule="evenodd"/><path fill="#000" fill-rule="evenodd" d="M154.375 44.431C155.022 43.7529 156.163 42.7433 157.661 42.724C158.634 42.7114 159.662 43.0206 160.785 44.2223C160.978 44.4284 161.038 44.6607 160.832 44.8534C160.626 45.046 160.302 45.035 160.109 44.829C159.246 43.9054 158.421 43.566 157.673 43.5755C156.429 43.5915 155.376 44.5459 154.889 45.092C154.482 44.8125 154.455 44.6599 154.375 44.431ZM154.542 41.2463C154.559 41.676 154.606 41.764 154.786 42.1308C154.786 42.1308 155.738 41.097 156.614 40.747C157.648 40.3342 159.056 40.2789 160.883 41.1639C161.137 41.2869 161.444 41.1804 161.566 40.9266C161.689 40.6726 161.547 40.5004 161.293 40.3776C159.114 39.3226 157.54 39.5622 156.307 40.0543C155.58 40.3449 154.542 41.2463 154.542 41.2463ZM155.276 38.3129C155.295 38.7527 155.335 38.6307 155.457 39.0616C155.457 39.0616 155.565 38.9976 155.603 38.9672C156.705 38.0908 159.073 36.7543 161.955 38.1793C162.208 38.3043 162.443 38.2585 162.568 38.0057C162.694 37.7527 162.532 37.6197 162.279 37.4946C159.246 35.9949 156.862 37.2113 155.441 38.1968C155.397 38.2265 155.276 38.3129 155.276 38.3129Z" clip-rule="evenodd"/><path fill="#A52929" fill-rule="evenodd" d="M124.868 84.403C124.868 84.403 124.563 65.6679 127.59 63.8609C127.59 63.8609 128.637 63.6402 128.874 65.5838C128.874 65.5838 132.62 59.6172 134.998 58.71C135.37 58.5677 136.486 58.3847 136.208 59.7051C136.208 59.7051 137.635 59.2197 137.815 61.0317C137.815 61.0317 139.442 61.0457 139.192 62.7777C139.192 62.7777 140.769 63.2861 139.89 65.0673C139.89 65.0673 136.197 71.3271 138.719 85.0102L124.868 84.403Z" clip-rule="evenodd"/><path fill="#000" fill-rule="evenodd" d="M139.197 62.7796C139.283 62.7932 139.599 62.8971 139.809 63.2234C139.225 63.6938 137.512 65.289 135.122 69.2845C135.019 69.4574 134.794 69.5139 134.621 69.4104C134.447 69.307 134.392 69.0827 134.496 68.9098C136.717 65.1961 138.424 63.4482 139.197 62.7796ZM128.648 64.6445C128.75 64.894 128.832 65.3132 128.877 65.5954C128.188 66.7113 127.868 67.9584 127.868 67.9584C127.817 68.1535 127.618 68.2711 127.423 68.2208C127.228 68.1706 127.11 67.9714 127.16 67.7763C127.16 67.7763 127.599 66.0761 128.547 64.7765C128.563 64.7538 128.628 64.662 128.648 64.6445ZM137.774 61.0333C137.872 61.0251 138.268 61.0476 138.578 61.2643C137.82 62.0079 134.881 64.9697 133.136 67.8785C133.032 68.0513 132.809 68.1075 132.635 68.0038C132.463 67.9003 132.406 67.6758 132.509 67.503C134.115 64.8267 136.707 62.1054 137.774 61.0333ZM136.213 59.6819C136.342 59.648 136.952 59.5414 137.2 59.8264C136.147 60.6175 133.487 62.975 131.432 66.8533C131.337 67.0313 131.116 67.0994 130.938 67.005C130.76 66.9107 130.691 66.6894 130.786 66.5114C132.612 63.0655 134.905 60.7815 136.213 59.6819Z" clip-rule="evenodd"/><path fill="#A52929" fill-rule="evenodd" d="M171.756 63.0155C171.756 63.0155 165.967 83.0939 140.591 88.5524C140.591 88.5524 142.474 80.7494 153.172 74.6587L152.929 68.1527C152.929 68.1527 149.55 69.207 149.503 66.0857C149.488 65.2092 150.391 64.8413 151.045 64.5448C151.045 64.5448 152.553 67.5358 155.329 66.3122C156.434 65.8246 158.488 63.0187 158.881 58.4248C158.881 58.4248 160.533 59.0613 160.714 57.7346C160.714 57.7346 161.768 60.3595 162.566 62.3481C163.093 63.6589 162.733 65.1591 161.67 66.0889L162.338 68.2398C162.338 68.2398 167.486 62.2203 171.756 63.0155Z" clip-rule="evenodd"/><path fill="#000" fill-rule="evenodd" d="M159.288 63.6535C159.034 63.7674 158.777 63.9411 158.616 64.1465C158.41 64.4102 158.342 64.7212 158.521 65.0528C158.673 65.3308 158.939 65.4849 159.246 65.5356C159.643 65.6015 160.107 65.4826 160.388 65.2946C160.522 65.2049 160.559 65.0234 160.468 64.8895C160.379 64.7554 160.198 64.7193 160.063 64.809C159.915 64.9088 159.682 64.9743 159.465 64.9702C159.291 64.9669 159.117 64.9251 159.035 64.7738C158.981 64.6754 159.016 64.5845 159.078 64.5062C159.183 64.37 159.358 64.2621 159.526 64.1866C159.674 64.1205 159.739 63.9476 159.674 63.8006C159.608 63.6535 159.434 63.5876 159.288 63.6535Z" clip-rule="evenodd"/><path fill="#000" fill-rule="evenodd" d="M160.372 65.2793C160.515 65.184 160.723 65.032 160.866 64.8435C161.053 64.5961 161.138 64.2952 160.968 63.9629C160.859 63.7496 160.65 63.598 160.381 63.5273C160.052 63.4408 159.629 63.4781 159.273 63.6381C159.125 63.7042 159.059 63.8771 159.125 64.0243C159.191 64.1714 159.365 64.2372 159.511 64.1712C159.743 64.0669 160.019 64.036 160.232 64.0923C160.326 64.1169 160.41 64.1543 160.448 64.2286C160.499 64.3287 160.457 64.4166 160.4 64.4911C160.299 64.6241 160.149 64.7265 160.048 64.7937C159.914 64.8833 159.877 65.0649 159.968 65.1988C160.057 65.3329 160.238 65.3689 160.372 65.2793Z" clip-rule="evenodd"/><path fill="#000" fill-rule="evenodd" d="M161.687 66.1121L161.878 66.7317C161.008 67.541 159.47 68.6457 157.504 68.7281C157.343 68.7348 157.206 68.6096 157.2 68.4485C157.193 68.2874 157.319 68.1512 157.479 68.1445C159.447 68.0619 160.944 66.8573 161.687 66.1121Z" clip-rule="evenodd"/><path fill="#000" fill-rule="evenodd" d="M162.669 69.4095L162.314 68.2303C162.314 68.2303 162.522 68.0235 162.764 67.7681L163.226 69.2341C163.274 69.3879 163.189 69.552 163.034 69.6004C162.881 69.6489 162.717 69.5633 162.669 69.4095Z" clip-rule="evenodd"/><path fill="#000" fill-rule="evenodd" d="M150.093 61.3577C148.843 61.8679 147.41 62.0075 146.079 61.8466C143.201 61.4981 140.632 59.7284 138.726 57.6206C137.344 56.0928 136.283 54.2794 134.485 53.1851C132.025 51.6887 129.37 52.7524 126.749 53.156C122.259 53.8473 117.142 52.897 114.725 48.6141C114.076 47.4677 113.721 46.1785 113.664 44.8638C113.596 43.2939 114.009 41.7069 114.695 40.303C116.839 35.9155 122.093 32.9529 126.911 34.5567C129.207 35.3207 131.107 37.0022 132.571 38.8851C133.88 40.5674 134.726 42.5024 135.701 44.3816C136.166 45.2752 136.683 46.4924 137.623 46.9867C138.701 47.553 139.737 46.5939 140.47 45.8994C141.824 44.6176 143.366 43.1574 145.311 42.9472C147.509 42.7098 149.013 44.4543 150.015 46.1771C151.829 49.2971 152.52 52.5219 152.722 55.9981C153.215 55.6673 153.796 55.3672 154.477 55.1091C154.477 55.1091 159.428 53.7728 160.712 57.5887C160.712 57.5887 160.62 59.1476 158.879 58.2789C158.879 58.2789 159.116 65.3017 154.601 66.401C153.843 66.5854 152.329 66.7247 150.814 64.5026C150.814 64.5026 150.172 63.1166 150.093 61.3577Z" clip-rule="evenodd"/><path stroke="#668DDB" stroke-linecap="round" stroke-linejoin="round" stroke-miterlimit="2.287" stroke-width=".384" d="M203.52 154.738V164.574C203.52 164.574 227.476 163.486 232.243 167.587C232.243 167.587 233.706 165.347 228.383 162.622V147.646"/><path fill="#668DDB" fill-rule="evenodd" d="M129.332 219.815L131.771 209.405C132.091 209.467 132.384 209.532 132.622 209.608L130.118 220.296C130.077 220.47 129.935 220.601 129.759 220.628C129.759 220.628 127.581 220.965 125.462 222.084C124.279 222.707 123.109 223.573 122.37 224.775H152.537L154.505 215.31L155.336 215.482L153.322 225.302C153.279 225.505 153.1 225.652 152.892 225.652H121.644C121.497 225.652 121.358 225.577 121.278 225.451C121.196 225.327 121.184 225.171 121.244 225.035C122.008 223.322 123.512 222.12 125.053 221.308C126.827 220.373 128.638 219.953 129.332 219.815Z" clip-rule="evenodd"/><path fill="#F76" fill-rule="evenodd" d="M227.947 147.323V94.2204C227.947 88.2846 224.953 82.7493 219.985 79.5005C215.018 76.2517 208.747 75.7278 203.309 78.1072C192.321 82.9149 179.464 88.9259 179.464 88.9259C179.244 89.0227 178.984 88.9217 178.887 88.7001C178.791 88.4786 178.892 88.2201 179.114 88.1231C179.114 88.1231 191.97 82.1121 202.957 77.3044C208.666 74.8064 215.25 75.3565 220.465 78.7672C225.681 82.1778 228.824 87.9889 228.824 94.2204V147.654C228.824 147.746 228.829 147.992 228.829 147.992C228.829 147.992 228.605 148.046 228.505 148.074L203.642 155.168C203.512 155.204 203.097 155.309 203.097 155.309C203.097 155.309 203.09 154.897 203.084 154.763L201.308 110.51L179.625 122.068L155.437 215.129C155.407 215.241 155.321 215.5 155.321 215.5C155.321 215.5 155.014 215.472 154.902 215.443L132.211 209.513L131.756 209.423C131.114 208.833 141.086 156.44 144.563 129.13C148.327 99.5673 160.297 97.9335 160.42 98.0858C160.661 98.0623 160.875 98.2386 160.899 98.4791C160.922 98.7198 160.745 98.9343 160.504 98.9579C160.504 98.9579 156.964 100.36 154.077 103.964C151.068 107.72 147.616 114.989 145.765 129.015C142.124 156.631 136.087 184.418 132.808 208.762L154.699 214.483L178.824 121.662C178.855 121.542 178.935 121.442 179.044 121.384L201.511 109.408C201.644 109.337 201.805 109.339 201.935 109.415C202.066 109.489 202.15 109.626 202.155 109.777L203.937 154.172L227.947 147.323Z" clip-rule="evenodd"/><path fill="#FF7B6B" fill-rule="evenodd" d="M153.208 213.846C153.096 213.703 152.985 213.551 152.878 213.39C151.697 211.61 150.899 208.746 150.899 205.51C150.899 202.272 151.697 199.408 152.878 197.628C153.833 196.191 155.063 195.422 156.337 195.422C157.612 195.422 158.841 196.191 159.796 197.628C159.811 197.651 159.826 197.673 159.84 197.696L159.04 200.79C158.784 200.007 158.465 199.319 158.094 198.759C157.585 197.996 157.014 197.467 156.337 197.467C155.66 197.467 155.089 197.996 154.581 198.759C153.571 200.281 152.944 202.742 152.944 205.51C152.944 208.276 153.571 210.738 154.581 212.259C154.942 212.8 155.333 213.225 155.773 213.426L155.526 214.384L153.208 213.846ZM134.612 196.848C137.321 195.52 140.026 194.975 142.031 195.184C143.749 195.362 145 196.094 145.592 197.223C146.183 198.351 146.074 199.798 145.244 201.311C144.218 203.183 142.05 205.221 139.183 206.723C136.892 207.925 134.576 208.565 132.652 208.66L132.995 206.591C134.565 206.442 136.406 205.872 138.234 204.912C140.685 203.627 142.573 201.929 143.451 200.328C143.892 199.523 144.096 198.771 143.781 198.172C143.467 197.572 142.732 197.312 141.821 197.219C140.004 197.029 137.533 197.617 135.082 198.901C134.776 199.063 134.476 199.231 134.189 199.404L134.612 196.848ZM138.069 176.017C138.406 175.967 138.763 175.946 139.14 175.953C141.275 175.992 144.085 176.965 146.747 178.807C149.41 180.647 151.313 182.932 152.104 184.917C152.738 186.506 152.678 187.946 151.968 188.992L151.952 189.017C151.228 190.064 149.896 190.638 148.17 190.607C146.034 190.566 143.225 189.594 140.562 187.752C138.991 186.667 137.684 185.425 136.714 184.183L137.218 181.149C137.955 182.779 139.566 184.578 141.725 186.071C144.002 187.644 146.382 188.529 148.208 188.563C149.125 188.579 149.886 188.411 150.27 187.854C150.655 187.296 150.544 186.527 150.206 185.674C149.528 183.978 147.86 182.062 145.585 180.489C143.309 178.915 140.927 178.031 139.102 177.997C138.57 177.987 138.091 178.04 137.708 178.193L138.069 176.017ZM159.03 183.753C157.778 183.588 156.662 182.677 155.896 181.146C154.939 179.236 154.496 176.296 154.889 173.083C155.284 169.87 156.424 167.123 157.813 165.502C158.936 164.19 160.251 163.577 161.515 163.732C162.779 163.886 163.906 164.801 164.68 166.343C165.637 168.253 166.079 171.193 165.685 174.406C165.291 177.619 164.152 180.365 162.761 181.987C161.64 183.298 160.324 183.912 159.06 183.758L159.03 183.753ZM161.266 165.762C160.594 165.678 159.963 166.134 159.366 166.831C158.178 168.218 157.257 170.586 156.919 173.331C156.582 176.078 156.906 178.598 157.724 180.231C158.132 181.044 158.63 181.636 159.293 181.726L159.309 181.728C159.981 181.809 160.611 181.354 161.209 180.657C162.398 179.271 163.319 176.904 163.655 174.158C163.992 171.411 163.67 168.891 162.852 167.259C162.441 166.438 161.938 165.843 161.266 165.762ZM140.989 158.427C141.18 158.486 141.373 158.546 141.565 158.61C144.637 159.631 147.105 161.291 148.419 162.974C149.483 164.333 149.824 165.743 149.423 166.952C149.021 168.161 147.904 169.086 146.238 169.538C144.415 170.034 141.879 169.977 139.192 169.249L139.528 167.222C141.882 167.893 144.108 167.999 145.702 167.565C146.587 167.324 147.269 166.949 147.483 166.306C147.697 165.665 147.374 164.956 146.809 164.233C145.684 162.794 143.546 161.423 140.921 160.551C140.831 160.52 140.74 160.491 140.65 160.463L140.989 158.427ZM148.139 157.484C147.033 156.851 146.348 155.572 146.233 153.85C146.091 151.719 146.822 148.836 148.43 146.028C150.036 143.218 152.151 141.127 154.061 140.17C155.603 139.397 157.054 139.34 158.159 139.973C159.265 140.605 159.95 141.883 160.065 143.605C160.208 145.737 159.477 148.619 157.869 151.429C156.262 154.239 154.147 156.329 152.237 157.287C150.695 158.059 149.245 158.116 148.139 157.484ZM170.636 155.943C170.259 155.715 169.885 155.427 169.519 155.08C167.917 153.561 166.402 150.84 165.557 147.544C164.711 144.248 164.728 141.134 165.4 139.031C165.948 137.318 166.951 136.227 168.185 135.91C169.421 135.593 170.825 136.067 172.129 137.304C172.999 138.13 173.842 139.308 174.568 140.739L173.721 144.017C172.97 141.756 171.889 139.895 170.722 138.788C170.03 138.133 169.348 137.722 168.694 137.89C168.039 138.058 167.639 138.746 167.349 139.653C166.764 141.478 166.804 144.177 167.537 147.036C168.27 149.894 169.536 152.279 170.925 153.597C171.011 153.678 171.098 153.757 171.182 153.83L170.636 155.943ZM157.144 141.747C156.556 141.411 155.798 141.587 154.977 141.998C153.346 142.816 151.578 144.642 150.204 147.043C148.83 149.444 148.152 151.892 148.273 153.714C148.335 154.63 148.567 155.373 149.154 155.709C149.743 156.045 150.501 155.87 151.321 155.458C152.953 154.64 154.72 152.815 156.094 150.414C157.469 148.013 158.146 145.563 158.025 143.742C157.964 142.826 157.731 142.083 157.144 141.747ZM203.38 147.763C204.523 147.183 205.629 146.808 206.616 146.654C208.321 146.39 209.718 146.78 210.578 147.721C211.437 148.66 211.699 150.086 211.282 151.762C211.173 152.201 211.017 152.66 210.814 153.13L208.069 153.946C208.67 153.018 209.09 152.103 209.298 151.268C209.52 150.377 209.525 149.599 209.068 149.099C208.613 148.6 207.836 148.534 206.929 148.676C205.885 148.838 204.694 149.307 203.479 150.037L203.38 147.763ZM228.265 133.345L228.276 135.504C226.848 136.065 225.291 137.055 223.835 138.385C221.792 140.252 220.399 142.377 219.958 144.148C219.736 145.038 219.73 145.816 220.187 146.317C220.644 146.816 221.42 146.881 222.325 146.741C224.102 146.465 226.303 145.298 228.322 143.479L228.336 146.111C226.366 147.585 224.329 148.497 222.639 148.76C220.935 149.025 219.537 148.636 218.677 147.696C217.818 146.755 217.557 145.328 217.973 143.653C218.49 141.581 220.066 139.06 222.456 136.877C224.361 135.136 226.433 133.928 228.265 133.345ZM202.265 122.135C202.448 121.961 202.647 121.81 202.863 121.685C203.964 121.045 205.414 121.092 206.962 121.854C208.878 122.798 211.008 124.874 212.635 127.673C214.262 130.471 215.012 133.348 214.884 135.48C214.782 137.204 214.104 138.486 213.003 139.127C211.902 139.767 210.451 139.72 208.903 138.958C206.987 138.013 204.859 135.937 203.232 133.139C203.044 132.815 202.867 132.489 202.702 132.165L202.265 122.135ZM210.834 128.644C209.448 126.279 207.684 124.489 206.058 123.689C205.236 123.283 204.475 123.113 203.891 123.452C203.305 123.792 203.077 124.537 203.023 125.453C202.914 127.275 203.609 129.719 204.999 132.111C206.39 134.503 208.17 136.316 209.807 137.123C210.631 137.529 211.39 137.699 211.976 137.358C212.56 137.018 212.788 136.275 212.844 135.359C212.952 133.536 212.258 131.092 210.866 128.701L210.834 128.644ZM147.079 121.721C148.209 122.326 149.364 123.117 150.47 124.084C152.906 126.215 154.537 128.701 155.098 130.763C155.551 132.428 155.322 133.861 154.482 134.819C153.644 135.778 152.255 136.197 150.544 135.97C148.936 135.756 147.003 134.963 145.098 133.661L145.472 131.406C147.317 132.835 149.239 133.734 150.815 133.942C151.723 134.064 152.497 133.982 152.944 133.474C153.389 132.964 153.366 132.186 153.125 131.3C152.646 129.538 151.206 127.445 149.123 125.624C148.338 124.937 147.527 124.346 146.724 123.864L147.079 121.721ZM161.974 129.99C159.002 128.588 156.711 126.63 155.58 124.793C154.664 123.304 154.485 121.856 155.028 120.703C155.571 119.551 156.804 118.768 158.535 118.527C160.654 118.232 163.594 118.743 166.542 120.121L166.613 120.153C169.585 121.553 171.875 123.513 173.006 125.351C173.921 126.839 174.102 128.288 173.558 129.44C173.015 130.592 171.783 131.375 170.052 131.616C167.915 131.912 164.946 131.391 161.974 129.99ZM228.238 128.518C228.127 128.637 228.015 128.752 227.903 128.859C226.655 130.052 225.287 130.534 224.044 130.255C222.801 129.976 221.77 128.955 221.152 127.344C220.39 125.349 220.238 122.38 220.948 119.221C221.656 116.062 223.061 113.442 224.605 111.965C225.744 110.875 226.984 110.379 228.136 110.514L228.149 112.602C228.106 112.587 228.06 112.574 228.015 112.564C227.355 112.415 226.682 112.808 226.019 113.442C224.7 114.705 223.549 116.969 222.943 119.669C222.337 122.368 222.41 124.908 223.063 126.612C223.39 127.47 223.831 128.111 224.492 128.26C225.152 128.407 225.826 128.016 226.489 127.382C227.117 126.78 227.707 125.952 228.218 124.958L228.238 128.518ZM165.741 122.002C163.188 120.798 160.649 120.297 158.815 120.553C157.896 120.68 157.166 120.963 156.877 121.575C156.589 122.187 156.835 122.931 157.321 123.721C158.285 125.286 160.262 126.912 162.786 128.112L162.846 128.141C165.397 129.345 167.936 129.846 169.77 129.59C170.69 129.463 171.42 129.18 171.708 128.568C171.997 127.956 171.75 127.213 171.264 126.423C170.294 124.845 168.292 123.205 165.741 122.002ZM186.36 118.013C185.273 115.148 184.985 112.36 185.396 110.358C185.742 108.668 186.595 107.494 187.776 107.016C188.956 106.539 190.385 106.791 191.809 107.766C193.276 108.77 194.776 110.57 195.939 112.875L194.137 113.842C193.155 111.868 191.906 110.31 190.655 109.453C189.897 108.935 189.169 108.658 188.541 108.912C187.913 109.166 187.583 109.87 187.398 110.769C187.061 112.417 187.323 114.685 188.178 117.038L186.36 118.013ZM157.14 100C157.921 100.53 158.701 101.151 159.453 101.857C161.813 104.072 163.357 106.614 163.845 108.694C164.239 110.374 163.959 111.797 163.087 112.726C162.215 113.655 160.813 114.025 159.112 113.737C157.004 113.382 154.371 112.003 152.009 109.787C151.533 109.339 151.089 108.878 150.68 108.41C151.006 107.695 151.339 107.031 151.676 106.415C152.18 107.054 152.761 107.688 153.41 108.296C155.427 110.19 157.651 111.417 159.452 111.721C160.356 111.874 161.133 111.82 161.596 111.326C162.059 110.833 162.065 110.054 161.854 109.161C161.437 107.383 160.071 105.241 158.054 103.348C157.213 102.559 156.338 101.886 155.471 101.347C156.05 100.802 156.611 100.359 157.14 100ZM212.392 101.491C214.535 99.1059 217.013 97.5192 219.064 96.9821C220.733 96.5447 222.163 96.7892 223.114 97.6368C224.064 98.4845 224.47 99.8773 224.227 101.586C223.926 103.701 222.614 106.369 220.46 108.785C218.306 111.201 215.804 112.809 213.737 113.35C212.068 113.788 210.638 113.544 209.688 112.696C208.737 111.848 208.331 110.455 208.575 108.747C208.876 106.632 210.187 103.963 212.341 101.547L212.392 101.491ZM168.958 102.738C169.355 99.5249 170.499 96.7802 171.892 95.1597C173.015 93.8505 174.331 93.2385 175.596 93.395C176.859 93.5516 177.985 94.4663 178.756 96.0101C179.711 97.9215 180.15 100.862 179.752 104.075C179.354 107.287 178.21 110.032 176.818 111.652C175.694 112.961 174.379 113.573 173.115 113.417C171.851 113.261 170.725 112.347 169.954 110.802C168.999 108.891 168.561 105.95 168.958 102.738ZM218.934 107.425C220.775 105.359 221.945 103.104 222.202 101.297C222.332 100.389 222.258 99.6134 221.753 99.1629C221.247 98.7123 220.469 98.7275 219.582 98.96C217.815 99.4227 215.709 100.843 213.867 102.908C212.026 104.973 210.856 107.228 210.599 109.036C210.469 109.944 210.542 110.719 211.047 111.17C211.554 111.62 212.332 111.605 213.219 111.373C214.986 110.91 217.092 109.49 218.934 107.425ZM177.731 103.759C178.058 101.038 177.737 98.5445 176.928 96.9237C176.517 96.103 176.016 95.5075 175.343 95.4242C174.671 95.341 174.04 95.7962 173.442 96.492C172.253 97.8771 171.327 100.243 170.987 102.989C170.648 105.735 170.968 108.255 171.783 109.889C172.193 110.709 172.694 111.305 173.366 111.388C174.038 111.471 174.67 111.016 175.267 110.32C176.458 108.935 177.382 106.569 177.722 103.823L177.731 103.759ZM192.968 102.153C190.482 100.129 188.777 97.7313 188.14 95.7094C187.621 94.0635 187.795 92.6232 188.595 91.6322C189.396 90.6413 190.767 90.1677 192.486 90.3279C194.613 90.5262 197.342 91.7059 199.86 93.7397C202.379 95.7736 204.107 98.1935 204.748 100.231C205.267 101.877 205.091 103.318 204.291 104.309C203.491 105.299 202.119 105.773 200.402 105.613C198.274 105.415 195.546 104.235 193.027 102.201L192.968 102.153ZM198.576 95.3303C196.424 93.5919 194.115 92.5332 192.296 92.3638C191.384 92.2785 190.612 92.3902 190.187 92.9169C189.761 93.4437 189.815 94.2206 190.09 95.0955C190.634 96.8236 192.136 98.8402 194.261 100.57L194.312 100.61C196.465 102.349 198.773 103.407 200.592 103.577C201.505 103.662 202.276 103.551 202.701 103.024C203.126 102.497 203.073 101.72 202.797 100.845C202.249 99.1036 200.729 97.0688 198.576 95.3303ZM220.266 79.214C222.806 80.8255 224.558 82.9078 225.745 84.8219C225.564 85.2246 225.32 85.63 225.015 86.0322C223.724 87.734 221.281 89.4294 218.224 90.4945C215.167 91.5598 212.201 91.7495 210.132 91.2188C208.459 90.79 207.327 89.8814 206.91 88.6787C206.491 87.4759 206.812 86.0611 207.855 84.6864C209.146 82.9845 211.589 81.2892 214.646 80.2239C216.631 79.5323 218.577 79.2098 220.266 79.214ZM208.841 88.0059C208.617 87.3665 208.93 86.6531 209.483 85.9224C210.587 84.4678 212.705 83.0653 215.318 82.1548C217.93 81.2444 220.463 81.0268 222.232 81.4804C223.12 81.7084 223.807 82.0735 224.029 82.7127C224.253 83.352 223.94 84.0656 223.387 84.7962C222.283 86.2509 220.165 87.6533 217.552 88.5638C214.939 89.4743 212.408 89.6919 210.638 89.2382C209.75 89.0103 209.062 88.6451 208.841 88.0059ZM199.781 79.2339C200.215 79.5274 200.602 79.8355 200.938 80.1524C202.19 81.3393 202.737 82.6829 202.52 83.9379C202.302 85.1927 201.332 86.2731 199.753 86.9678C197.798 87.8279 194.839 88.123 191.649 87.5688C189.448 87.1864 187.487 86.4603 185.974 85.564L188.334 84.4822C189.409 84.9493 190.655 85.3207 192 85.5544C194.725 86.028 197.259 85.8313 198.93 85.0962C199.77 84.7269 200.389 84.2548 200.504 83.5878C200.621 82.9208 200.197 82.2674 199.531 81.6366C199.006 81.1394 198.325 80.676 197.526 80.2682L199.781 79.2339Z" clip-rule="evenodd"/><path fill="#E4363D" fill-rule="evenodd" d="M124.771 84.2418L139.711 85.0093L140.437 88.0757C140.437 88.0757 161.395 86.1242 171.726 62.8889L176.132 63.8239L169.68 56.8902L177.848 43.9995C177.848 43.9995 207.278 65.8024 207.87 78.2157C207.87 78.2157 207.88 78.3516 207.887 78.5958C207.975 82.2086 206.237 85.6224 203.262 87.6741C200.287 89.7259 196.478 90.1385 193.132 88.7715C187.759 86.5755 180.477 83.6004 180.477 83.6004C180.477 83.6004 181.828 86.6592 181.57 88.1146L159.739 99.7614C159.739 99.7614 155.087 99.0133 152.26 94.7794C152.26 94.7794 155.892 109.511 146.54 120.434C143.859 123.57 139.543 124.761 135.634 123.447C132.473 122.378 129.316 119.429 127.935 112.38C127.935 112.38 124.21 96.5698 124.771 84.2418Z" clip-rule="evenodd"/><path fill="#DE735A" fill-rule="evenodd" d="M143.463 109.682C143.457 109.606 143.439 109.378 143.413 109.149C143.071 106.132 140.445 88.0656 140.445 88.0656L141.459 87.9324C141.459 87.9324 144.088 106.015 144.428 109.035C144.467 109.372 144.486 109.6 144.488 109.698C144.489 109.794 144.475 109.857 144.466 109.888C144.403 110.11 144.257 110.189 144.165 110.227C144.044 110.277 143.914 110.284 143.775 110.227C143.555 110.137 143.43 109.908 143.463 109.682ZM143.835 109.261C143.94 109.232 144.054 109.237 144.162 109.281C144.048 109.234 143.939 109.231 143.835 109.261Z" clip-rule="evenodd"/><path fill="#DE735A" fill-rule="evenodd" d="M176.165 63.7987L174.442 63.4819L193.405 83.1867C193.6 83.39 193.923 83.3962 194.128 83.2006C194.331 83.0049 194.337 82.6811 194.141 82.4778L176.165 63.7987Z" clip-rule="evenodd"/><path fill="#DE735A" fill-rule="evenodd" d="M180.354 83.5755C179.26 80.8878 177.779 78.43 177.779 78.43C177.633 78.1882 177.712 77.8739 177.954 77.7285C178.195 77.5831 178.509 77.6614 178.655 77.9031C178.655 77.9031 180.507 80.9885 181.643 84.0804L180.354 83.5755Z" clip-rule="evenodd"/><path fill="#668DDB" fill-rule="evenodd" d="M68.7499 190.455C68.7499 190.455 71.9999 182.93 77.9724 181.594C77.9724 181.594 78.6689 186.161 76.897 192.675C76.897 192.675 81.418 189.644 83.9091 190.455C83.9091 190.455 83.8317 194.838 80.7837 198.73C80.7837 198.73 77.8125 191.606 69.0445 195.169C69.0445 195.169 68.9342 190.963 68.7499 190.455Z" clip-rule="evenodd"/><path fill="#668DDB" fill-rule="evenodd" d="M9.27047 210.361C9.27047 210.361 2.55903 206.15 0.366577 194.12C0.366577 194.12 1.47668 193.898 3.82584 195.001C3.82584 195.001 0.72176 189.305 2.12819 183.25C2.12819 183.25 7.19544 184.684 11.537 190.853C11.537 190.853 7.34163 201.101 9.27047 210.361Z" clip-rule="evenodd"/><path fill-rule="evenodd" stroke="#0D2E3A" stroke-linecap="round" stroke-linejoin="round" stroke-miterlimit="2.287" stroke-width=".384" d="M9.28049 210.35H83.8974C83.8974 210.35 82.7499 188.894 69.0328 195.186C68.8974 188.291 67.4875 180.266 63.2284 174.079C61.4302 171.468 58.9504 169.344 56.018 167.614C49.0136 163.476 37.763 163.371 27.4138 169.663C18.1734 175.28 7.25979 190.937 9.28049 210.35Z" clip-rule="evenodd"/><path fill-rule="evenodd" stroke="#0F303C" stroke-linecap="round" stroke-linejoin="round" stroke-miterlimit="2.287" stroke-width=".384" d="M95.7267 220.205L81.9492 220.238C81.9492 220.238 82.7795 215.099 87.3918 214.724C89.1575 214.58 93.3155 216.07 95.7267 220.205Z" clip-rule="evenodd"/><path stroke="#668DDB" stroke-linecap="round" stroke-linejoin="round" stroke-miterlimit="2.287" stroke-width=".384" d="M35.4349 181.594C35.4349 181.594 40.0791 193.31 43.7999 213.784"/><path fill="#668DDB" fill-rule="evenodd" d="M38.0268 189.303C38.0268 189.303 36.6924 184.66 39.6269 183.201C39.6269 183.201 41.3628 186.001 38.0268 189.303Z" clip-rule="evenodd"/><path fill="#668DDB" fill-rule="evenodd" d="M37.744 189.319C37.744 189.319 33.9836 188.666 32.8535 185.251C32.8977 184.83 37.2223 185.628 37.744 189.319Z" clip-rule="evenodd"/><path fill="#668DDB" fill-rule="evenodd" d="M40.7638 198.865C40.7638 198.865 37.0034 198.212 35.8733 194.798C35.9174 194.377 40.2421 195.175 40.7638 198.865Z" clip-rule="evenodd"/><path fill="#668DDB" fill-rule="evenodd" d="M40.8629 198.867C40.8629 198.867 43.2485 195.888 41.8341 192.58C41.5222 192.294 38.8101 195.756 40.8629 198.867Z" clip-rule="evenodd"/><path fill="#FDDB81" fill-rule="evenodd" d="M33.6729 176.193L34.4522 178.464C34.484 178.556 34.585 178.605 34.678 178.573C34.7709 178.541 34.8209 178.44 34.7891 178.348L34.0127 176.085C34.3883 175.979 34.7918 175.907 35.2238 175.876L35.9368 177.954C35.9686 178.047 36.0697 178.095 36.1627 178.063C36.2557 178.032 36.3055 177.931 36.2737 177.838L35.5954 175.862C35.9368 175.857 36.2949 175.878 36.6706 175.928C36.8715 176.258 37.0431 176.62 37.1772 177.011C37.9328 179.213 37.2041 181.463 35.5505 182.03C33.8969 182.598 31.9405 181.269 31.1849 179.068C31.0772 178.754 30.9996 178.439 30.9509 178.13C31.1896 177.845 31.4604 177.563 31.7665 177.302L32.4059 179.166C32.4377 179.258 32.5387 179.307 32.6317 179.275C32.7247 179.243 32.7746 179.143 32.7429 179.05L32.0612 177.064C32.2567 176.916 32.4643 176.776 32.6852 176.647L33.1773 178.081C33.2095 178.175 33.3107 178.224 33.4037 178.192C33.4966 178.16 33.5465 178.059 33.5142 177.966L33.0032 176.476C33.215 176.37 33.4381 176.275 33.6729 176.193Z" clip-rule="evenodd"/><path fill="#668DDB" fill-rule="evenodd" d="M12.0422 179.709C12.0422 179.709 21.4632 192.681 28.8095 211.994C28.8954 212.22 29.1488 212.334 29.3747 212.248C29.6008 212.162 29.7144 211.908 29.6286 211.683C22.2355 192.247 12.7512 179.193 12.7512 179.193C12.6091 178.998 12.3349 178.954 12.1393 179.097C11.9436 179.239 11.9001 179.513 12.0422 179.709Z" clip-rule="evenodd"/><path fill="#668DDB" fill-rule="evenodd" d="M20.9836 193.227C20.9889 192.961 20.7664 192.539 20.7077 192.271C20.5636 191.606 20.4695 190.92 20.4836 190.24C20.505 189.192 20.8316 188.219 21.3907 187.336C21.4317 187.271 21.865 186.546 21.9875 186.616C22.3525 186.823 22.4155 187.975 22.4526 188.31C22.6382 189.988 22.3182 191.843 21.1094 193.097" clip-rule="evenodd"/><path fill="#668DDB" fill-rule="evenodd" d="M20.7209 192.95C20.6639 193.01 20.4186 192.988 20.3298 192.985C19.9614 192.978 19.5925 192.925 19.229 192.868C18.0768 192.686 16.8939 192.398 15.9278 191.715C15.7262 191.572 15.533 191.418 15.3519 191.25C15.2342 191.141 14.7109 190.7 14.7357 190.497C14.7524 190.361 15.1438 190.37 15.2216 190.365C15.7541 190.34 16.2902 190.435 16.8052 190.564C17.2917 190.686 17.764 190.86 18.2241 191.059C18.9451 191.37 19.6236 191.808 20.1863 192.357" clip-rule="evenodd"/><path fill="#668DDB" fill-rule="evenodd" d="M25.1006 202.103C25.0851 202.157 24.7266 202.11 24.679 202.107C24.2213 202.069 23.7706 201.969 23.327 201.853C22.1367 201.544 20.872 201.084 19.9628 200.222C19.6184 199.895 19.3226 199.506 19.0864 199.096C19.0595 199.049 18.8816 198.801 18.9328 198.738C19.0443 198.599 19.6442 198.802 19.7673 198.831C19.9444 198.875 20.1207 198.925 20.2949 198.979C20.6184 199.078 20.9383 199.192 21.2515 199.321C21.7804 199.538 22.2956 199.8 22.7922 200.083C23.5061 200.491 24.2213 200.975 24.7984 201.565" clip-rule="evenodd"/><path fill="#668DDB" fill-rule="evenodd" d="M24.9898 201.33C25.0161 201.12 24.9166 200.8 24.9147 200.575C24.9095 199.969 24.9704 199.363 25.0915 198.769C25.1965 198.254 25.3421 197.746 25.5432 197.261C25.7608 196.736 26.0405 196.238 26.3844 195.785C26.4212 195.737 26.658 195.382 26.7514 195.431C26.9067 195.513 26.9612 195.986 26.9902 196.127C27.0245 196.295 27.048 196.464 27.0641 196.633C27.0924 196.933 27.1019 197.232 27.0907 197.533C27.0438 198.79 26.6955 200.087 26.0435 201.17C25.8658 201.465 25.5712 201.998 25.2214 202.139" clip-rule="evenodd"/><path fill="#FDDB81" fill-rule="evenodd" d="M10.6954 173.506C11.1009 173.431 11.5368 173.397 12.0052 173.417C12.2165 173.634 12.4162 173.87 12.6006 174.129C14.0737 176.184 14.0234 178.745 12.4885 179.845C10.9534 180.946 8.51117 180.171 7.03814 178.114C6.80578 177.79 6.6114 177.454 6.45483 177.112C6.63622 176.746 6.85588 176.36 7.1192 175.982L8.05302 177.293C8.15277 177.434 8.3476 177.466 8.48766 177.366C8.62787 177.266 8.66058 177.071 8.56083 176.931L7.5144 175.462C7.70704 175.23 7.91808 175.006 8.14898 174.798L9.5538 176.771C9.65355 176.911 9.84838 176.943 9.98858 176.844C10.1286 176.744 10.1615 176.549 10.0616 176.408L8.63371 174.403C9.0495 174.101 9.51948 173.848 10.049 173.674L11.0896 175.136C11.1894 175.277 11.3842 175.309 11.5243 175.209C11.6645 175.109 11.6972 174.914 11.5974 174.774L10.6954 173.506Z" clip-rule="evenodd"/><path fill="#668DDB" fill-rule="evenodd" d="M74.7059 174.449C74.7059 174.449 72.0706 178.247 68.5008 184.53C68.4261 184.662 68.2459 185.062 68.2459 185.062L67.9256 183.74L68.1111 183.377L73.9968 173.933C74.1389 173.737 74.4132 173.694 74.6087 173.837C74.8044 173.978 74.848 174.253 74.7059 174.449Z" clip-rule="evenodd"/><path fill="#668DDB" fill-rule="evenodd" d="M71.378 179.05C71.3734 178.806 71.5687 178.418 71.6203 178.172C71.7469 177.561 71.8295 176.931 71.8171 176.307C71.7983 175.344 71.5115 174.45 71.0206 173.639C70.9846 173.58 70.604 172.913 70.4964 172.978C70.176 173.168 70.1207 174.226 70.0881 174.534C69.9251 176.075 70.2061 177.779 71.2676 178.931" clip-rule="evenodd"/><path fill="#668DDB" fill-rule="evenodd" d="M71.0439 179.02C71.1009 179.08 71.3462 179.058 71.435 179.055C71.8033 179.048 72.1723 178.995 72.5358 178.938C73.6879 178.756 74.8709 178.468 75.837 177.785C76.0386 177.642 76.2318 177.488 76.4129 177.32C76.5306 177.211 77.0539 176.77 77.0291 176.567C77.0124 176.431 76.621 176.44 76.5432 176.435C76.0107 176.41 75.4745 176.505 74.9596 176.634C74.4731 176.757 74.0008 176.93 73.5407 177.129C72.8197 177.44 72.1411 177.878 71.5784 178.427" clip-rule="evenodd"/><path fill="#668DDB" fill-rule="evenodd" d="M68.7409 183.249C68.7542 183.296 69.0629 183.256 69.1039 183.253C69.4979 183.22 69.886 183.132 70.2678 183.032C71.2926 182.763 72.3814 182.362 73.1641 181.612C73.4606 181.328 73.7154 180.989 73.9187 180.632C73.9418 180.592 74.0949 180.376 74.0509 180.321C73.9549 180.2 73.4385 180.377 73.3325 180.402C73.18 180.44 73.0282 180.484 72.8782 180.531C72.5997 180.617 72.3243 180.716 72.0546 180.828C71.5994 181.017 71.1558 181.245 70.7283 181.492C70.1137 181.846 69.4979 182.268 69.001 182.782" clip-rule="evenodd"/><path fill="#668DDB" fill-rule="evenodd" d="M69.692 181.405C69.6638 181.228 69.7703 180.958 69.7724 180.769C69.778 180.258 69.7128 179.748 69.5831 179.247C69.4706 178.814 69.3146 178.385 69.0992 177.977C68.8661 177.534 68.5665 177.114 68.198 176.733C68.1586 176.692 67.905 176.393 67.8049 176.435C67.6386 176.504 67.5802 176.903 67.5491 177.021C67.5123 177.162 67.4871 177.305 67.4699 177.448C67.4396 177.7 67.4294 177.952 67.4415 178.206C67.4917 179.265 67.8648 180.358 68.5632 181.27C68.7536 181.518 69.0691 181.967 69.4438 182.087" clip-rule="evenodd"/><path fill="#FDDB81" fill-rule="evenodd" d="M76.1013 168.198C75.6959 168.122 75.2599 168.088 74.7915 168.108C74.5802 168.325 74.3806 168.561 74.1961 168.82C72.7231 170.875 72.7733 173.436 74.3083 174.536C75.8434 175.637 78.2856 174.862 79.7586 172.805C79.991 172.481 80.1854 172.145 80.3419 171.803C80.1605 171.437 79.9409 171.051 79.6776 170.673L78.7437 171.985C78.644 172.125 78.4491 172.157 78.3091 172.058C78.1689 171.957 78.1362 171.763 78.2359 171.622L79.2823 170.153C79.0897 169.921 78.8787 169.697 78.6478 169.489L77.2429 171.462C77.1432 171.602 76.9484 171.634 76.8082 171.535C76.6681 171.435 76.6352 171.24 76.7351 171.099L78.163 169.094C77.7472 168.792 77.2773 168.539 76.7477 168.365L75.7071 169.827C75.6074 169.968 75.4125 170 75.2725 169.9C75.1323 169.8 75.0996 169.605 75.1993 169.465L76.1013 168.198Z" clip-rule="evenodd"/><path fill="#668DDB" fill-rule="evenodd" d="M192.467 194.671C192.467 194.671 188.534 187.849 188.937 183.234C188.937 183.234 191.437 183.929 193.309 186.653C193.309 186.653 191.085 177.392 192.467 173.606C192.467 173.606 196.521 175.47 198.463 179.897C198.463 179.897 195.78 187.907 195.518 195.642L192.467 194.671Z" clip-rule="evenodd"/><path fill-rule="evenodd" stroke="#0D2E3A" stroke-linecap="round" stroke-linejoin="round" stroke-miterlimit="2.287" stroke-width=".384" d="M255.641 211.863L179.752 212.301C179.752 212.301 181.796 189.328 195.513 195.619C195.649 188.725 197.059 180.699 201.318 174.513C203.116 171.901 205.422 169.619 208.355 167.887C215.359 163.749 226.783 163.805 237.132 170.096C246.373 175.713 257.662 192.45 255.641 211.863Z" clip-rule="evenodd"/><path fill="#668DDB" fill-rule="evenodd" d="M243.507 213.968C243.507 213.968 251.02 201.157 260.216 201.78C260.216 201.78 260.247 204.786 257.141 208.843C257.141 208.843 259.324 207.317 263.161 207.484C263.161 207.484 262.753 210.273 258.981 214.342L243.507 213.968Z" clip-rule="evenodd"/><path fill="#668DDB" fill-rule="evenodd" d="M249.615 194.646C249.663 194.406 249.937 194.07 250.04 193.84C250.295 193.271 250.511 192.673 250.633 192.061C250.821 191.116 250.732 190.182 250.427 189.284C250.404 189.218 250.176 188.486 250.057 188.525C249.703 188.643 249.422 189.665 249.324 189.958C248.834 191.428 248.743 193.152 249.533 194.506" clip-rule="evenodd"/><path stroke="#668DDB" stroke-linecap="round" stroke-linejoin="round" stroke-miterlimit="2.287" stroke-width=".384" d="M256.53 188.269C256.53 188.269 243.024 197.696 237.663 214.397"/><path fill="#FDDB81" fill-rule="evenodd" d="M258.584 183.653C258.204 183.492 257.786 183.365 257.324 183.285C257.071 183.451 256.825 183.639 256.59 183.852C254.71 185.543 254.21 188.056 255.473 189.459C256.736 190.864 259.288 190.63 261.168 188.938C261.464 188.671 261.726 188.385 261.952 188.085C261.854 187.688 261.722 187.264 261.546 186.838L260.352 187.919C260.225 188.034 260.028 188.024 259.912 187.897C259.797 187.768 259.807 187.571 259.934 187.456L261.271 186.245C261.133 185.977 260.975 185.714 260.794 185.46L258.999 187.086C258.871 187.202 258.674 187.191 258.558 187.064C258.443 186.937 258.453 186.739 258.581 186.623L260.405 184.971C260.064 184.587 259.659 184.239 259.179 183.956L257.849 185.16C257.722 185.276 257.525 185.265 257.409 185.138C257.294 185.01 257.304 184.813 257.431 184.698L258.584 183.653Z" clip-rule="evenodd"/><path fill="#668DDB" fill-rule="evenodd" d="M250.159 194.384C250.201 194.455 250.446 194.486 250.533 194.502C250.894 194.574 251.266 194.602 251.633 194.624C252.798 194.693 254.015 194.666 255.105 194.206C255.333 194.109 255.554 194.001 255.767 193.875C255.906 193.794 256.511 193.475 256.531 193.272C256.544 193.135 256.159 193.06 256.084 193.039C255.57 192.901 255.025 192.878 254.495 192.893C253.993 192.909 253.495 192.977 253.003 193.072C252.232 193.222 251.475 193.504 250.808 193.92" clip-rule="evenodd"/><path fill="#668DDB" fill-rule="evenodd" d="M244.056 201.767C244.059 201.816 244.37 201.843 244.41 201.849C244.802 201.901 245.2 201.899 245.594 201.883C246.653 201.839 247.803 201.682 248.728 201.117C249.079 200.903 249.4 200.627 249.675 200.322C249.706 200.287 249.902 200.109 249.871 200.046C249.803 199.908 249.261 199.969 249.152 199.972C248.995 199.976 248.837 199.986 248.681 199.999C248.39 200.024 248.1 200.062 247.813 200.113C247.327 200.201 246.845 200.328 246.375 200.477C245.698 200.691 245.006 200.971 244.411 201.366" clip-rule="evenodd"/><path fill="#668DDB" fill-rule="evenodd" d="M244.651 200.318C244.661 200.139 244.823 199.899 244.866 199.714C244.981 199.216 245.026 198.704 245.007 198.187C244.99 197.74 244.93 197.288 244.807 196.843C244.674 196.36 244.472 195.886 244.194 195.434C244.164 195.386 243.98 195.04 243.874 195.059C243.696 195.091 243.554 195.468 243.498 195.576C243.432 195.707 243.377 195.841 243.329 195.976C243.245 196.216 243.181 196.46 243.139 196.711C242.961 197.756 243.091 198.903 243.577 199.944C243.71 200.227 243.922 200.734 244.262 200.93" clip-rule="evenodd"/><path fill="#668DDB" fill-rule="evenodd" d="M184.167 191.313C184.167 191.313 181.807 187.098 184.331 185.007C184.331 185.007 186.661 187.336 184.167 191.313Z" clip-rule="evenodd"/><path fill="#668DDB" fill-rule="evenodd" d="M184.264 191.784C184.264 191.784 180.524 192.544 178.229 189.774C178.117 189.366 182.436 188.536 184.264 191.784Z" clip-rule="evenodd"/><path fill="#668DDB" fill-rule="evenodd" d="M189.171 201.544C189.171 201.544 185.411 200.891 184.281 197.477C184.325 197.056 188.649 197.854 189.171 201.544Z" clip-rule="evenodd"/><path fill="#668DDB" fill-rule="evenodd" d="M189.952 202.033C189.952 202.033 192.338 199.053 190.923 195.746C190.611 195.46 187.899 198.922 189.952 202.033Z" clip-rule="evenodd"/><path stroke="#668DDB" stroke-linecap="round" stroke-linejoin="round" stroke-miterlimit="2.287" stroke-width=".384" d="M178.192 184.516C178.192 184.516 190.256 195.095 193.308 214.354"/><path fill="#FDDB81" fill-rule="evenodd" d="M174.722 181.465L176.453 183.129C176.524 183.196 176.636 183.194 176.704 183.123C176.772 183.052 176.771 182.94 176.7 182.872L174.975 181.214C175.261 180.948 175.587 180.7 175.957 180.475L177.541 181.997C177.612 182.065 177.724 182.062 177.792 181.991C177.86 181.92 177.858 181.808 177.788 181.74L176.281 180.292C176.583 180.132 176.911 179.987 177.268 179.86C177.597 180.061 177.915 180.305 178.213 180.591C179.892 182.204 180.272 184.538 179.061 185.799C177.849 187.059 175.502 186.772 173.824 185.159C173.584 184.93 173.372 184.685 173.187 184.433C173.269 184.069 173.381 183.695 173.534 183.323L174.954 184.688C175.025 184.756 175.137 184.753 175.205 184.683C175.273 184.612 175.272 184.499 175.201 184.432L173.687 182.976C173.794 182.756 173.914 182.536 174.052 182.321L175.145 183.371C175.216 183.44 175.329 183.437 175.397 183.366C175.465 183.295 175.463 183.183 175.392 183.114L174.256 182.023C174.396 181.832 174.551 181.645 174.722 181.465Z" clip-rule="evenodd"/><path fill="#FD4C3D" fill-rule="evenodd" d="M70.4059 35.4956L72.4587 33.195L75.8939 38.2964L73.7657 40.0112L70.4059 35.4956ZM75.7675 28.3644L79.1887 33.0434L81.2556 31.5225L77.8997 26.0757L75.7675 28.3644Z" clip-rule="evenodd"/><path fill="#FD4C3D" fill-rule="evenodd" d="M185.394 22.3181L191.127 17.4591L192.454 20.155L186.728 24.3097L185.394 22.3181ZM178.777 18.6461L182.003 12.5354L184.265 14.5541L180.978 19.3517L178.777 18.6461Z" clip-rule="evenodd"/></svg>