<svg xmlns="http://www.w3.org/2000/svg" width="126" height="126" fill="none" viewBox="0 0 126 126"><path fill="url(#paint0_linear)" d="M15.75 29.5312C14.1836 29.5312 12.6813 30.1535 11.5737 31.2611C10.466 32.3688 9.84375 33.8711 9.84375 35.4375V108.281H116.156V35.4375C116.156 33.8711 115.534 32.3688 114.426 31.2611C113.319 30.1535 111.816 29.5312 110.25 29.5312H15.75Z"/><path fill="url(#paint1_linear)" d="M108.281 37.4062V100.406H17.7188V37.4062H108.281Z"/><path fill="#AAE0E5" d="M108.281 37.4062V41.3438H17.7188V37.4062H108.281Z"/><path fill="#77CACB" d="M108.281 96.4688V100.406H17.7188V96.4688H108.281Z"/><path fill="url(#paint2_linear)" d="M5.90625 108.281H120.094C121.138 108.281 122.14 108.696 122.878 109.435C123.616 110.173 124.031 111.174 124.031 112.219V116.156C124.031 118.245 123.202 120.248 121.725 121.725C120.248 123.202 118.245 124.031 116.156 124.031H9.84375C7.75517 124.031 5.75213 123.202 4.27528 121.725C2.79844 120.248 1.96875 118.245 1.96875 116.156V112.219C1.96875 111.174 2.38359 110.173 3.12202 109.435C3.86044 108.696 4.86196 108.281 5.90625 108.281Z"/><path fill="#8288A1" d="M124.031 112.219V116.156C124.031 118.245 123.202 120.248 121.725 121.725C120.248 123.202 118.245 124.031 116.156 124.031H9.84375C7.75517 124.031 5.75213 123.202 4.27528 121.725C2.79844 120.248 1.96875 118.245 1.96875 116.156V112.219C1.96875 114.307 2.79844 116.31 4.27528 117.787C5.75213 119.264 7.75517 120.094 9.84375 120.094H116.156C118.245 120.094 120.248 119.264 121.725 117.787C123.202 116.31 124.031 114.307 124.031 112.219Z"/><path fill="#D7DBE2" d="M78.75 114.188H47.25L43.3125 108.281H82.6875L78.75 114.188Z"/><path fill="#8288A1" d="M116.156 104.344H9.84375V108.281H116.156V104.344Z"/><path fill="url(#paint3_linear)" d="M98.4375 1.96875H27.5625V100.406H98.4375V1.96875Z"/><path fill="#C7CDD8" d="M98.4375 96.4688H27.5625V100.406H98.4375V96.4688Z"/><path fill="url(#paint4_linear)" d="M98.4375 1.96875H27.5625V13.7812H98.4375V1.96875Z"/><path fill="#CF4055" d="M37.4062 7.875C37.4062 8.39715 37.1988 8.8979 36.8296 9.26712C36.4604 9.63633 35.9596 9.84375 35.4375 9.84375C34.9154 9.84375 34.4146 9.63633 34.0454 9.26712C33.6762 8.8979 33.4688 8.39715 33.4688 7.875C33.4688 7.35285 33.6762 6.8521 34.0454 6.48288C34.4146 6.11367 34.9154 5.90625 35.4375 5.90625C35.9596 5.90625 36.4604 6.11367 36.8296 6.48288C37.1988 6.8521 37.4062 7.35285 37.4062 7.875Z"/><path fill="#DD8B37" d="M45.2812 7.875C45.2812 8.39715 45.0738 8.8979 44.7046 9.26712C44.3354 9.63633 43.8346 9.84375 43.3125 9.84375C42.7904 9.84375 42.2896 9.63633 41.9204 9.26712C41.5512 8.8979 41.3438 8.39715 41.3438 7.875C41.3438 7.35285 41.5512 6.8521 41.9204 6.48288C42.2896 6.11367 42.7904 5.90625 43.3125 5.90625C43.8346 5.90625 44.3354 6.11367 44.7046 6.48288C45.0738 6.8521 45.2812 7.35285 45.2812 7.875Z"/><path fill="#7ECE67" d="M53.1562 7.875C53.1562 8.39715 52.9488 8.8979 52.5796 9.26712C52.2104 9.63633 51.7096 9.84375 51.1875 9.84375C50.6654 9.84375 50.1646 9.63633 49.7954 9.26712C49.4262 8.8979 49.2188 8.39715 49.2188 7.875C49.2188 7.35285 49.4262 6.8521 49.7954 6.48288C50.1646 6.11367 50.6654 5.90625 51.1875 5.90625C51.7096 5.90625 52.2104 6.11367 52.5796 6.48288C52.9488 6.8521 53.1562 7.35285 53.1562 7.875Z"/><path fill="url(#paint5_linear)" d="M63 61.0312C73.8731 61.0312 82.6875 52.2169 82.6875 41.3438C82.6875 30.4706 73.8731 21.6562 63 21.6562C52.1269 21.6562 43.3125 30.4706 43.3125 41.3438C43.3125 52.2169 52.1269 61.0312 63 61.0312Z"/><path fill="url(#paint6_linear)" d="M63 44.9269C61.0994 44.9269 59.2766 44.1718 57.9327 42.8279C56.5888 41.484 55.8337 39.6612 55.8337 37.7606V35.969C55.8337 34.0684 56.5888 32.2457 57.9327 30.9017C59.2766 29.5578 61.0994 28.8028 63 28.8028C64.9006 28.8028 66.7234 29.5578 68.0673 30.9017C69.4112 32.2457 70.1662 34.0684 70.1662 35.969V37.7606C70.1662 39.6612 69.4112 41.484 68.0673 42.8279C66.7234 44.1718 64.9006 44.9269 63 44.9269Z"/><path fill="url(#paint7_linear)" d="M75.7574 56.3259C72.1914 59.3761 67.6531 61.0522 62.9606 61.0522C58.268 61.0522 53.7297 59.3761 50.1637 56.3259C51.5812 52.1128 51.1087 53.5697 51.2071 53.2547C52.0536 50.8224 53.6362 48.7139 55.7353 47.2218C57.8343 45.7298 60.3458 44.9281 62.9212 44.9281C65.4966 44.9281 68.008 45.7298 70.1071 47.2218C72.2062 48.7139 73.7888 50.8224 74.6353 53.2547C74.8124 53.5697 74.3399 52.1128 75.7574 56.3259Z"/><path fill="#F6B756" d="M51.286 53.2547C51.1875 53.5697 51.66 52.1128 50.2425 56.3259C47.8184 54.2632 45.9305 51.6435 44.7407 48.6912C43.5509 45.739 43.0946 42.5422 43.411 39.375C43.6821 42.11 44.5228 44.758 45.8791 47.1485C47.2354 49.539 49.0772 51.619 51.286 53.2547Z"/><path fill="#F6B756" d="M75.7575 56.3259L74.8125 53.4122C74.6353 52.8609 81.6441 49.1006 82.6875 39.4144C82.9856 42.5835 82.5108 45.7776 81.3038 48.723C80.0969 51.6684 78.1937 54.2773 75.7575 56.3259Z"/><path fill="#5B8DC9" d="M75.7574 56.3259C72.1914 59.3761 67.6531 61.0522 62.9606 61.0522C58.268 61.0522 53.7297 59.3761 50.1637 56.3259C51.5812 52.1128 51.1087 53.5697 51.2071 53.2547C54.6032 55.7495 58.7072 57.095 62.9212 57.095C67.1352 57.095 71.2391 55.7495 74.6353 53.2547C74.8124 53.5697 74.3399 52.1128 75.7574 56.3259Z"/><path fill="url(#paint8_linear)" d="M84.6562 68.9062H41.3438V76.7812H84.6562V68.9062Z"/><path fill="url(#paint9_linear)" d="M84.6562 84.6562H41.3438V92.5312H84.6562V84.6562Z"/><defs><linearGradient id="paint0_linear" x1="63" x2="63" y1="108.281" y2="29.531" gradientUnits="userSpaceOnUse"><stop stop-color="#A0A6BA"/><stop offset="1" stop-color="#C6CCDA"/></linearGradient><linearGradient id="paint1_linear" x1="63" x2="63" y1="100.406" y2="37.406" gradientUnits="userSpaceOnUse"><stop stop-color="#9DD5DF"/><stop offset="1" stop-color="#C3E1F5"/></linearGradient><linearGradient id="paint2_linear" x1="1.969" x2="4.032" y1="1100.53" y2="972.596" gradientUnits="userSpaceOnUse"><stop stop-color="#A0A6BA"/><stop offset="1" stop-color="#C6CCDA"/></linearGradient><linearGradient id="paint3_linear" x1="63" x2="63" y1="100.406" y2="1.969" gradientUnits="userSpaceOnUse"><stop stop-color="#D4D8E1"/><stop offset="1" stop-color="#F3F4F5"/></linearGradient><linearGradient id="paint4_linear" x1="27.563" x2="29.584" y1="84.656" y2="11.869" gradientUnits="userSpaceOnUse"><stop stop-color="#A0A6BA"/><stop offset="1" stop-color="#C6CCDA"/></linearGradient><linearGradient id="paint5_linear" x1="63" x2="63" y1="61.031" y2="21.656" gradientUnits="userSpaceOnUse"><stop stop-color="#FBCC88"/><stop offset="1" stop-color="#FFE5C3"/></linearGradient><linearGradient id="paint6_linear" x1="63" x2="63" y1="44.927" y2="28.823" gradientUnits="userSpaceOnUse"><stop stop-color="#7AA8D7"/><stop offset="1" stop-color="#C3D2E7"/></linearGradient><linearGradient id="paint7_linear" x1="50.164" x2="60.413" y1="544.615" y2="411.857" gradientUnits="userSpaceOnUse"><stop stop-color="#7AA8D7"/><stop offset="1" stop-color="#C3D2E7"/></linearGradient><linearGradient id="paint8_linear" x1="950.906" x2="1903.78" y1="360.281" y2="360.281" gradientUnits="userSpaceOnUse"><stop stop-color="#A0A6BA"/><stop offset="1" stop-color="#C6CCDA"/></linearGradient><linearGradient id="paint9_linear" x1="950.906" x2="1903.78" y1="439.031" y2="439.031" gradientUnits="userSpaceOnUse"><stop stop-color="#A0A6BA"/><stop offset="1" stop-color="#C6CCDA"/></linearGradient></defs></svg>