<svg xmlns="http://www.w3.org/2000/svg" width="174" height="227" fill="none" viewBox="0 0 174 227"><g clip-path="url(#clip0)"><path fill="#fff" stroke="#3F4D79" stroke-linecap="round" stroke-miterlimit="10" stroke-width="5" d="M80.9325 225.793C80.6412 225.793 80.3612 225.68 80.1518 225.478C79.9424 225.277 79.82 225.002 79.8104 224.712L84.8056 155.103H91.751L82.0546 224.712C82.045 225.002 81.9226 225.277 81.7132 225.478C81.5038 225.68 81.2238 225.793 80.9325 225.793Z"/><path fill="#fff" stroke="#3F4D79" stroke-linecap="round" stroke-miterlimit="10" stroke-width="5" d="M124.089 225.793C123.798 225.793 123.518 225.68 123.308 225.478C123.099 225.277 122.977 225.002 122.967 224.712L113.271 155.103H120.216L125.211 224.712C125.202 225.002 125.079 225.277 124.87 225.478C124.66 225.68 124.38 225.793 124.089 225.793Z"/><path fill="#fff" stroke="#3F4D79" stroke-linecap="round" stroke-miterlimit="10" stroke-width="5" d="M144.106 225.793C143.815 225.793 143.535 225.68 143.326 225.478C143.116 225.277 142.994 225.002 142.984 224.712L133.288 155.103H140.233L145.228 224.712C145.219 225.002 145.096 225.277 144.887 225.478C144.678 225.68 144.398 225.793 144.106 225.793Z"/><path fill="#fff" stroke="#3F4D79" stroke-linecap="round" stroke-miterlimit="10" stroke-width="5" d="M146.674 140.178L144.668 148.19H138.075L140.081 140.178H146.674Z"/><path fill="#fff" stroke="#3F4D79" stroke-linecap="round" stroke-miterlimit="10" stroke-width="5" d="M120.94 140.178L118.934 148.19H112.341L114.347 140.178H120.94Z"/><path fill="#FF7867" d="M145.561 147.639H76.6481C74.3762 147.639 72.5344 149.474 72.5344 151.736C72.5344 153.999 74.3762 155.833 76.6481 155.833H145.561C147.833 155.833 149.675 153.999 149.675 151.736C149.675 149.474 147.833 147.639 145.561 147.639Z"/><path fill="#FF7867" d="M173.912 83.879L161.415 133.819C160.921 135.791 159.78 137.541 158.172 138.792C156.565 140.043 154.583 140.723 152.543 140.723H106.999C104.478 140.723 102.724 136.927 103.592 133.347L116.042 82.0644C116.633 79.6277 118.167 78.0106 119.884 78.0106H169.365C171.374 78.0106 174.597 81.0381 173.912 83.879Z"/><path fill="#E2631E" d="M30.1803 213.743C30.1803 215.009 34.1122 218.885 32.7881 225.365C32.7881 225.365 23.0879 225.379 18.3297 225.408C12.6734 225.443 0.642847 225.443 0.642847 225.443C0.642847 225.443 -0.525136 220.279 5.67105 219.564C11.8672 218.849 19.7217 212.325 19.7217 212.325L30.1803 213.743Z"/><path stroke="#3F4D79" stroke-linecap="round" stroke-miterlimit="10" stroke-width="7" d="M33.2049 225.957C27.5487 225.992 0.642822 225.992 0.642822 225.992"/><path fill="#FFC0B7" d="M19.9054 212.325C20.5187 210.622 21.4021 205.059 21.4021 205.059L31.3685 205.93C31.3685 205.93 29.7157 209.649 29.9967 213.56C30.0922 214.879 19.2314 214.193 19.9054 212.325Z"/><path fill="#3C4564" d="M120.486 142.912C109.405 147.424 57.4571 144.575 57.4571 144.575C57.4571 144.575 56.3938 185.114 36.8595 206.1C36.8595 206.1 23.3855 205.65 19.6924 204.701C19.6924 204.701 29.903 144.03 37.2029 132.112C41.0595 125.803 84.4805 116.175 93.8427 115.365C96.6312 117.215 99.5909 118.796 102.682 120.085C111.192 123.661 119.92 124.941 126.484 125.32C127.492 131.181 127.652 139.997 120.486 142.912Z"/><path fill="#FE7523" d="M37.7097 213.743C37.7097 215.009 41.6416 218.885 40.3175 225.365C40.3175 225.365 30.6174 225.379 25.8591 225.408C20.2029 225.443 8.17227 225.443 8.17227 225.443C8.17227 225.443 7.00428 220.279 13.2005 219.564C19.3967 218.849 27.2512 212.325 27.2512 212.325L37.7097 213.743Z"/><path stroke="#3F4D79" stroke-linecap="round" stroke-miterlimit="10" stroke-width="7" d="M40.7343 225.957C35.0781 225.992 8.17224 225.992 8.17224 225.992"/><path fill="#FFCFC9" d="M27.4348 212.325C28.0482 210.622 28.9315 205.059 28.9315 205.059L40.3671 206.296C40.3671 206.296 38.2919 208.191 37.5261 213.56C37.3388 214.868 26.7608 214.193 27.4348 212.325Z"/><path fill="#3F4D79" d="M128.506 147.681C117.425 152.198 65.4769 149.344 65.4769 149.344C65.4769 149.344 66.5493 184.65 42.0107 206.36C42.0107 206.36 29.7322 205.48 26.0336 204.531C26.0336 204.531 41.7609 147.208 45.2171 136.881C47.1087 131.229 95.3522 120.33 102.676 120.085C114.758 125.163 127.266 125.6 133.426 125.435C134.526 129.149 138.149 143.758 128.506 147.681Z"/><path fill="#FFC0B7" d="M96.8269 100.063C84.2582 102.56 54.0633 101.49 41.4047 98.9561C40.718 99.4849 39.9965 99.9671 39.245 100.399C37.5922 101.345 34.4096 102.11 33.6548 102.068C32.9001 102.026 28.2685 101.318 28.2685 101.318C28.2685 101.318 28.1032 100.796 28.7809 100.109C29.4585 99.4208 34.4261 99.9677 32.6099 98.4622C31.8019 97.789 27.7782 99.3037 26.0281 100.983C24.2779 102.662 23.457 101.332 23.457 101.332C23.457 101.332 25.1319 98.2226 25.7324 97.6591C26.3329 97.0957 30.3235 94.7066 33.0268 94.3426C34.9844 94.0792 39.6931 94.4414 42.1851 95.0396C51.4207 92.8554 69.1406 90.0712 81.757 90.1718C83.4336 83.2205 85.4703 74.7105 86.012 72.1934L94.9812 78.0472L96.8269 100.063Z"/><path fill="#FAB6AD" d="M86.012 72.1934L85.4464 74.6904C85.4464 74.6904 87.7695 80.5533 95.2677 82.4887L94.9812 78.0435L86.012 72.1934Z"/><path fill="#E4363D" d="M140.639 87.8175C140.639 87.8175 139.969 87.7754 138.839 87.6602C137.554 97.1158 136.423 105.059 136.423 106.802C136.423 111.487 137.341 125.207 137.341 125.207C137.341 125.207 112.575 127.974 93.6848 115.257C93.6848 115.257 98.0629 109.387 95.7912 90.8889C94.2817 78.5832 94.9814 78.0435 94.9814 78.0435C94.9814 78.0435 90.3535 75.6398 83.79 70.4611C83.79 70.4611 87.1967 53.6864 92.6307 50.3955C98.0648 47.1045 106.498 45.5698 112.097 43.4697C117.696 41.3697 126.208 39.1891 126.208 39.1891C128.48 41.0459 139.266 46.2978 141.941 49.4479C145.754 52.929 150.98 66.7348 140.639 87.8175Z"/><path stroke="#E4363D" stroke-miterlimit="10" stroke-width="5" d="M118.864 82.3003C118.864 82.3003 121.18 78.5118 123.973 64.7006"/><path stroke="#E4363D" stroke-miterlimit="10" stroke-width="5" d="M94.7757 77.6942C94.5113 74.3538 94.8675 68.1031 95.301 64.6293"/><path fill="#FFCFC9" d="M138.836 87.6608C138.836 87.6608 129.02 112.371 124.576 112.781C110.101 114.114 85.9111 100.384 80.6845 100.223L78.3927 100.149C77.1071 100.901 75.4727 101.542 74.0899 101.137C71.3021 100.325 69.069 98.3183 67.2215 99.1799C65.3741 100.042 63.2419 101.695 62.0703 101.558C59.6186 101.264 58.2046 99.9665 58.2046 99.9665C58.2046 99.9665 59.7307 98.3092 61.2714 96.7342C60.1788 97.1604 58.5168 98.3311 57.6665 98.7336C56.381 99.3391 55.7198 98.2561 55.7198 98.2561C55.7198 98.2561 58.5865 95.7335 59.5764 95.1354C60.5332 94.5591 63.2181 93.9536 64.5734 93.9244C66.2133 93.7048 75.2083 92.481 79.8435 92.9676C85.1581 92.7719 95.8206 93.1506 114.604 96.6683L119.986 82.9156C119.986 82.9156 128.16 86.5358 138.836 87.6608Z"/><path fill="#FAB6AD" d="M138.836 87.662C138.836 87.662 137.949 89.8956 136.586 93.031C132.122 91.7176 124.884 88.9279 119.691 83.6686L119.986 82.9113C119.986 82.9113 128.162 86.5352 138.836 87.662Z"/><path fill="#FFCFC9" d="M116.391 22.709C116.391 22.709 117.125 33.136 126.203 39.1891C126.203 39.1891 121.419 49.6162 110.389 50.3369C99.3594 51.0577 107.677 44.8874 107.677 44.8874C107.677 44.8874 104.799 35.4025 104.31 33.1415L116.391 22.709Z"/><path fill="#FAB6AD" d="M116.358 28.1237C115.807 32.8927 111.583 39.7288 106.343 40.4294C105.521 37.6397 104.573 34.3524 104.312 33.1414L115.781 23.2321L116.137 23.9382C116.137 23.9382 116.475 27.1176 116.358 28.1237Z"/><path fill="#FFCFC9" d="M115.528 23.4553C115.528 23.4553 115.698 26.7243 115.258 27.6371C113.228 31.8445 106.865 36.6739 101.918 36.6739C98.0886 36.6739 93.6021 25.0523 93.1981 20.7699C92.7941 16.4875 93.3597 9.70262 103.739 8.8959C114.119 8.08918 114.85 18.8308 114.85 18.8308L115.528 23.4553Z"/><path fill="#354051" d="M85.2499 16.4088C85.2499 16.4088 83.3198 12.5893 86.5464 9.78493C90.3534 6.47207 93.8427 8.00685 95.793 5.90681C97.7433 3.80677 101.818 -0.678678 107.877 0.0877998C113.309 0.775618 114.894 4.53301 114.894 4.53301C114.894 4.53301 118.255 3.12261 121.173 6.9111C124.091 10.6996 117.043 26.4846 117.043 26.4846C117.043 26.4846 115.145 20.1955 114.85 18.8418C114.187 15.8107 108.2 16.5259 108.687 10.6008C108.687 10.6008 107.065 14.6399 100.902 14.5631C99.0655 14.5411 96.6928 14.0399 94.3367 13.6923C93.0328 15.9918 92.9979 18.6863 93.1981 20.779C93.1981 20.7699 87.6869 20.6857 85.2499 16.4088Z"/><path stroke="#354051" stroke-miterlimit="10" stroke-width="3" d="M114.727 4.533C114.727 4.533 117.448 1.95551 120.337 4.41958"/><path stroke="#354051" stroke-miterlimit="10" stroke-width="3" d="M108.687 10.2587C108.687 10.2587 107.557 15.6972 101.403 16.0521"/><path stroke="#3F4D79" stroke-linecap="round" stroke-miterlimit="10" stroke-width="5" d="M116.481 17.1113L114.523 2.38723C114.458 1.89712 114.208 1.45022 113.823 1.13802C113.438 0.825825 112.948 0.671959 112.453 0.707928"/><path stroke="#3F4D79" stroke-linecap="round" stroke-miterlimit="10" stroke-width="5" d="M118.11 27.7907C118.635 30.3664 123.207 37.411 115.258 50.8546C107.308 64.2981 117.645 68.3025 112.417 77.5112C107.188 86.7199 95.8536 86.215 96.4394 101.625C96.8251 111.765 87.6979 113.137 88.225 101.625"/><path stroke="#3F4D79" stroke-linecap="round" stroke-miterlimit="10" stroke-width="5" d="M101.451 87.8193C104.18 85.6004 106.94 73.0349 102.562 65.886C98.184 58.7371 93.9051 49.1003 100.358 36.9611"/><path fill="#fff" stroke="#ECBE02" stroke-miterlimit="10" stroke-width="6" d="M118.233 16.8543L114.372 17.4351C113.198 17.6118 112.39 18.7034 112.567 19.8732L113.544 26.3179C113.722 27.4877 114.817 28.2927 115.992 28.116L119.852 27.5351C121.027 27.3584 121.835 26.2669 121.657 25.0971L120.68 18.6524C120.503 17.4826 119.407 16.6776 118.233 16.8543Z"/><path fill="#fff" d="M3.83826 105.304H102.658C103.708 105.304 104.56 106.518 104.56 108.018V108.267C104.56 109.765 103.708 110.98 102.658 110.98H28.263"/><path stroke="#3CBFD4" stroke-linecap="round" stroke-miterlimit="10" stroke-width="5" d="M4.94006 104.938H102.658C103.708 104.938 104.56 106.153 104.56 107.653V107.901C104.56 109.4 103.708 110.614 102.658 110.614H28.6303"/><path fill="#fff" d="M98.0133 227L79.2906 110.797H85.7366L104.276 226.817L98.0133 227Z"/><path fill="#CEEFF7" d="M86.8256 116.698L79.8728 114.114L79.2888 110.797H85.7384L86.8256 116.698Z"/><path stroke="#3CBFD4" stroke-linecap="round" stroke-miterlimit="10" stroke-width="7" d="M97.646 226.268L79.2906 110.797H85.7366L103.908 226.085"/><path fill="#fff" stroke="#FF7867" stroke-miterlimit="10" stroke-width="5" d="M74.3948 100.154H18.7815C18.0446 100.155 17.3253 99.9296 16.721 99.5095C16.1166 99.0894 15.6564 98.4946 15.4025 97.8055L2.58587 63.014C2.4256 62.5825 2.3725 62.1189 2.43109 61.6625C2.48968 61.2062 2.65823 60.7708 2.92236 60.3934C3.18648 60.016 3.53833 59.7078 3.9479 59.4952C4.35747 59.2826 4.81259 59.1719 5.27444 59.1725H61.6222C62.4538 59.1732 63.2651 59.4286 63.9461 59.904C64.6271 60.3795 65.1448 61.052 65.4292 61.8304L77.7738 95.3359C77.973 95.8777 78.038 96.4593 77.9633 97.0314C77.8885 97.6035 77.6764 98.1492 77.3447 98.6221C77.013 99.0951 76.5716 99.4813 76.0581 99.7481C75.5445 100.015 74.9739 100.154 74.3948 100.154Z"/><path fill="#fff" stroke="#FF7867" stroke-miterlimit="10" stroke-width="5" d="M71.9752 100.154H18.2314C17.5102 100.147 16.809 99.9172 16.2243 99.4965C15.6395 99.0759 15.2 98.4851 14.9662 97.8055L2.5812 63.014C1.91824 61.1536 3.25518 59.1725 5.17978 59.1725H59.6324C60.4444 59.1814 61.2337 59.4409 61.8915 59.9153C62.5493 60.3897 63.0432 61.0556 63.3053 61.8213L75.2422 95.3286C76.0723 97.6847 74.3919 100.154 71.9752 100.154Z"/><path fill="#fff" stroke="#FF7867" stroke-miterlimit="10" stroke-width="5" d="M98.1291 100.154H18.1168C17.0954 100.154 16.2675 100.979 16.2675 101.996V102.092C16.2675 103.109 17.0954 103.934 18.1168 103.934H98.1291C99.1504 103.934 99.9784 103.109 99.9784 102.092V101.996C99.9784 100.979 99.1504 100.154 98.1291 100.154Z"/></g><defs><clipPath id="clip0"><rect width="174" height="227" fill="#fff"/></clipPath></defs></svg>