<svg xmlns="http://www.w3.org/2000/svg" width="127" height="127" fill="none" viewBox="0 0 127 127"><path fill="url(#paint0_linear)" d="M63.5 95.25C60.3423 95.25 57.3139 93.9956 55.081 91.7627C52.8482 89.5299 51.5938 86.5015 51.5938 83.3438V79.375C51.5938 76.2173 52.8482 73.1889 55.081 70.956C57.3139 68.7232 60.3423 67.4688 63.5 67.4688C66.6577 67.4688 69.6861 68.7232 71.919 70.956C74.1518 73.1889 75.4062 76.2173 75.4062 79.375V83.3438C75.4062 86.5015 74.1518 89.5299 71.919 91.7627C69.6861 93.9956 66.6577 95.25 63.5 95.25Z"/><path fill="url(#paint1_linear)" d="M103.188 99.2188C100.556 99.2188 98.0324 98.1734 96.1717 96.3127C94.311 94.452 93.2656 91.9283 93.2656 89.2969V85.3281C93.2656 82.6967 94.311 80.173 96.1717 78.3123C98.0324 76.4516 100.556 75.4063 103.188 75.4062C105.819 75.4063 108.343 76.4516 110.203 78.3123C112.064 80.173 113.109 82.6967 113.109 85.3281V89.2969C113.109 91.9283 112.064 94.452 110.203 96.3127C108.343 98.1734 105.819 99.2188 103.188 99.2188Z"/><path fill="url(#paint2_linear)" d="M23.8125 99.2188C21.1811 99.2188 18.6574 98.1734 16.7967 96.3127C14.936 94.452 13.8906 91.9283 13.8906 89.2969V85.3281C13.8906 82.6967 14.936 80.173 16.7967 78.3123C18.6574 76.4516 21.1811 75.4063 23.8125 75.4062C26.4439 75.4063 28.9676 76.4516 30.8283 78.3123C32.689 80.173 33.7344 82.6967 33.7344 85.3281V89.2969C33.7344 91.9283 32.689 94.452 30.8283 96.3127C28.9676 98.1734 26.4439 99.2188 23.8125 99.2188Z"/><path fill="#5B8DC9" d="M75.4062 79.375V83.3438C75.4062 86.5015 74.1518 89.5299 71.919 91.7627C69.6861 93.9956 66.6577 95.25 63.5 95.25C60.3423 95.25 57.3139 93.9956 55.081 91.7627C52.8482 89.5299 51.5938 86.5015 51.5938 83.3438V79.375C51.5938 82.5327 52.8482 85.5611 55.081 87.794C57.3139 90.0268 60.3423 91.2812 63.5 91.2812C66.6577 91.2812 69.6861 90.0268 71.919 87.794C74.1518 85.5611 75.4062 82.5327 75.4062 79.375Z"/><path fill="#5B8DC9" d="M113.109 85.3281V89.2969C113.109 91.9283 112.064 94.452 110.203 96.3127C108.343 98.1734 105.819 99.2188 103.188 99.2188C100.556 99.2188 98.0324 98.1734 96.1717 96.3127C94.311 94.452 93.2656 91.9283 93.2656 89.2969V85.3281C93.2656 87.9596 94.311 90.4832 96.1717 92.344C98.0324 94.2047 100.556 95.25 103.188 95.25C105.819 95.25 108.343 94.2047 110.203 92.344C112.064 90.4832 113.109 87.9596 113.109 85.3281Z"/><path fill="#5B8DC9" d="M33.7344 85.3281V89.2969C33.7344 91.9283 32.689 94.452 30.8283 96.3127C28.9676 98.1734 26.4439 99.2188 23.8125 99.2188C21.1811 99.2188 18.6574 98.1734 16.7967 96.3127C14.936 94.452 13.8906 91.9283 13.8906 89.2969V85.3281C13.8906 87.9596 14.936 90.4832 16.7967 92.344C18.6574 94.2047 21.1811 95.25 23.8125 95.25C26.4439 95.25 28.9676 94.2047 30.8283 92.344C32.689 90.4832 33.7344 87.9596 33.7344 85.3281Z"/><path fill="url(#paint3_linear)" d="M125.016 125.016H1.98438L4.36563 114.697C5.23573 111.015 7.13312 107.656 9.83717 105.01C12.5412 102.364 15.9408 100.54 19.6406 99.7504C23.3405 98.9606 27.1885 99.2372 30.7373 100.548C34.2861 101.859 37.3898 104.151 39.6875 107.156C40.7702 108.598 41.6514 110.18 42.3069 111.859C84.713 111.859 84.6137 112.038 84.6137 111.859C91.8766 93.6823 118.348 95.7858 122.595 114.756L125.016 125.016Z"/><path fill="url(#paint4_linear)" d="M1.98438 7.9375V35.7188C1.98438 37.2976 2.61158 38.8118 3.728 39.9282C4.84443 41.0447 6.35863 41.6719 7.9375 41.6719H55.5625L63.5 55.5625L71.4375 41.6719H119.062C120.641 41.6719 122.156 41.0447 123.272 39.9282C124.388 38.8118 125.016 37.2976 125.016 35.7188V7.9375C125.016 6.35863 124.388 4.84443 123.272 3.728C122.156 2.61158 120.641 1.98438 119.062 1.98438H7.9375C6.35863 1.98438 4.84443 2.61158 3.728 3.728C2.61158 4.84443 1.98438 6.35863 1.98438 7.9375Z"/><path fill="#C7CDD8" d="M125.016 29.7656V35.7188C125.016 37.2976 124.388 38.8118 123.272 39.9282C122.156 41.0447 120.641 41.6719 119.062 41.6719H71.4375L63.5 55.5625L55.5625 41.6719H7.9375C6.35863 41.6719 4.84443 41.0447 3.728 39.9282C2.61158 38.8118 1.98438 37.2976 1.98438 35.7188V29.7656C1.98438 31.3445 2.61158 32.8587 3.728 33.9751C4.84443 35.0915 6.35863 35.7188 7.9375 35.7188H119.062C120.641 35.7188 122.156 35.0915 123.272 33.9751C124.388 32.8587 125.016 31.3445 125.016 29.7656Z"/><path fill="url(#paint5_linear)" d="M63.5 14.0097C62.5355 13.0253 61.3 12.3501 59.9507 12.07C58.6014 11.7899 57.1992 11.9176 55.9227 12.4367C54.6461 12.9558 53.5528 13.843 52.782 14.9853C52.0111 16.1276 51.5975 17.4735 51.5938 18.8516C51.5938 25.7969 63.5 31.75 63.5 31.75C63.5 31.75 75.4062 25.7969 75.4062 18.8516C75.4025 17.4735 74.9889 16.1276 74.218 14.9853C73.4472 13.843 72.3539 12.9558 71.0773 12.4367C69.8008 11.9176 68.3986 11.7899 67.0493 12.07C65.7 12.3501 64.4645 13.0253 63.5 14.0097Z"/><path fill="#CF4055" d="M63.5001 31.75C57.8248 28.9123 50.0063 22.8798 51.8915 16.8275C55.0665 27.305 71.8741 27.4637 75.1087 16.8275C77.0137 22.8996 69.1556 28.9321 63.5001 31.75Z"/><path fill="url(#paint6_linear)" d="M23.4355 11.9062L26.6303 18.4745L33.8733 19.4866L28.5949 24.5467L29.8847 31.75L23.4355 28.317L16.9863 31.75L18.2761 24.5467L12.9977 19.4866L20.2406 18.4745L23.4355 11.9062Z"/><path fill="url(#paint7_linear)" d="M23.4355 11.9062L26.6303 18.4745L33.8733 19.4866L28.5949 24.5467L29.8847 31.75L23.4355 28.317L16.9863 31.75L18.2761 24.5467L12.9977 19.4866L20.2406 18.4745L23.4355 11.9062Z"/><path fill="#DD8B37" d="M29.8848 31.75L23.4355 28.317L16.9863 31.75L18.177 25.1222C21.6245 26.0251 25.2465 26.0251 28.6941 25.1222L29.8848 31.75Z"/><path fill="url(#paint8_linear)" d="M109.141 19.8437H105.172L106.184 15.7559C106.303 15.2995 106.315 14.822 106.219 14.3602C106.124 13.8985 105.924 13.4648 105.634 13.0927C105.345 12.7206 104.973 12.4201 104.549 12.2144C104.125 12.0086 103.659 11.9032 103.187 11.9062C98.3654 21.5701 99.2187 17.5418 99.2187 31.7499H106.601C107.433 31.7521 108.244 31.4927 108.921 31.0084C109.597 30.5241 110.105 29.8395 110.371 29.0512C111.021 26.702 111.276 24.2609 111.125 21.8281C111.125 21.3018 110.916 20.797 110.544 20.4249C110.172 20.0528 109.667 19.8437 109.141 19.8437Z"/><path fill="#5B8DC9" d="M99.2188 21.8281H91.2812V31.75H99.2188V21.8281Z"/><path fill="#5B8DC9" d="M91.2812 125.016H35.7188C38.0008 113.586 38.3381 110.688 39.8066 107.156C40.8934 108.588 41.775 110.164 42.4259 111.839C42.4259 112.038 41.91 111.839 84.7328 111.839C85.3816 110.171 86.2491 108.596 87.3125 107.156C88.5825 110.172 88.642 111.363 91.2812 125.016Z"/><path fill="url(#paint9_linear)" d="M39.6875 125.016L42.1283 112.772C43.1491 107.859 45.8316 103.447 49.7243 100.28C53.6169 97.1133 58.4818 95.3842 63.5 95.3842C68.5182 95.3842 73.3831 97.1133 77.2758 100.28C81.1684 103.447 83.8509 107.859 84.8717 112.772L87.3125 125.016H39.6875Z"/><path fill="#5B8DC9" d="M125.016 125.016H1.98438L2.89719 121.047H124.103L125.016 125.016Z"/><defs><linearGradient id="paint0_linear" x1="63.5" x2="63.5" y1="95.25" y2="67.469" gradientUnits="userSpaceOnUse"><stop stop-color="#7AA8D7"/><stop offset="1" stop-color="#C3D2E7"/></linearGradient><linearGradient id="paint1_linear" x1="1125.14" x2="1125.14" y1="1266.03" y2="980.281" gradientUnits="userSpaceOnUse"><stop stop-color="#7AA8D7"/><stop offset="1" stop-color="#C3D2E7"/></linearGradient><linearGradient id="paint2_linear" x1="252.016" x2="252.016" y1="1266.03" y2="980.281" gradientUnits="userSpaceOnUse"><stop stop-color="#7AA8D7"/><stop offset="1" stop-color="#C3D2E7"/></linearGradient><linearGradient id="paint3_linear" x1="1.984" x2="7.386" y1="1718.76" y2="1382.7" gradientUnits="userSpaceOnUse"><stop stop-color="#7AA8D7"/><stop offset="1" stop-color="#C3D2E7"/></linearGradient><linearGradient id="paint4_linear" x1="63.5" x2="63.5" y1="55.563" y2="1.984" gradientUnits="userSpaceOnUse"><stop stop-color="#D4D8E1"/><stop offset="1" stop-color="#F3F4F5"/></linearGradient><linearGradient id="paint5_linear" x1="63.5" x2="63.5" y1="31.75" y2="11.906" gradientUnits="userSpaceOnUse"><stop stop-color="#DA5466"/><stop offset="1" stop-color="#F4929C"/></linearGradient><linearGradient id="paint6_linear" x1="23.436" x2="23.436" y1="31.75" y2="11.906" gradientUnits="userSpaceOnUse"><stop stop-color="#E9A254"/><stop offset="1" stop-color="#F4BB79"/></linearGradient><linearGradient id="paint7_linear" x1="23.436" x2="23.436" y1="31.75" y2="11.906" gradientUnits="userSpaceOnUse"><stop stop-color="#E9A254"/><stop offset="1" stop-color="#F4BB79"/></linearGradient><linearGradient id="paint8_linear" x1="699.141" x2="771.783" y1="230.188" y2="230.188" gradientUnits="userSpaceOnUse"><stop stop-color="#7AA8D7"/><stop offset="1" stop-color="#C3D2E7"/></linearGradient><linearGradient id="paint9_linear" x1="39.688" x2="58.174" y1="1962.16" y2="1516.48" gradientUnits="userSpaceOnUse"><stop stop-color="#7AA8D7"/><stop offset="1" stop-color="#C3D2E7"/></linearGradient></defs></svg>