<svg xmlns="http://www.w3.org/2000/svg" width="200" height="227" fill="none" viewBox="0 0 200 227"><g opacity=".05"><path fill="#000" d="M72.6562 186.484H2.34375C2.03295 186.484 1.73488 186.608 1.51511 186.828C1.29534 187.047 1.17188 187.345 1.17188 187.656C1.17188 187.967 1.29534 188.265 1.51511 188.485C1.73488 188.705 2.03295 188.828 2.34375 188.828H72.6562C72.967 188.828 73.2651 188.705 73.4849 188.485C73.7047 188.265 73.8281 187.967 73.8281 187.656C73.8281 187.345 73.7047 187.047 73.4849 186.828C73.2651 186.608 72.967 186.484 72.6562 186.484Z"/><path fill="#000" d="M14.0625 160.703H4.6875V184.141H14.0625V160.703Z"/><path fill="#000" d="M32.8125 165.391H23.4375V184.141H32.8125V165.391Z"/><path fill="#000" d="M51.5625 148.984H42.1875V184.141H51.5625V148.984Z"/><path fill="#000" d="M70.3125 131.406H60.9375V184.141H70.3125V131.406Z"/><path fill="#000" d="M50.9883 132.672L61.6055 122.711L60.082 120.93L49.3828 130.973C50.0562 131.39 50.6095 131.976 50.9883 132.672Z"/><path fill="#000" d="M32.3086 149.23L44.2266 138.789C43.5698 138.343 43.0407 137.733 42.6914 137.02L30.7734 147.461C31.4302 147.907 31.9593 148.517 32.3086 149.23Z"/><path fill="#000" d="M23.4375 151.328C23.4394 150.547 23.6325 149.779 24 149.09C13.5937 146.488 14.0625 146.523 14.0625 146.641C14.0609 147.423 13.8635 148.192 13.4883 148.879C23.9063 151.48 23.4375 151.445 23.4375 151.328Z"/><path fill="#000" d="M9.375 148.984C10.6694 148.984 11.7188 147.935 11.7188 146.641C11.7188 145.346 10.6694 144.297 9.375 144.297C8.08058 144.297 7.03125 145.346 7.03125 146.641C7.03125 147.935 8.08058 148.984 9.375 148.984Z"/><path fill="#000" d="M28.125 153.672C29.4194 153.672 30.4688 152.623 30.4688 151.328C30.4688 150.034 29.4194 148.984 28.125 148.984C26.8306 148.984 25.7812 150.034 25.7812 151.328C25.7812 152.623 26.8306 153.672 28.125 153.672Z"/><path fill="#000" d="M46.875 137.266C48.1694 137.266 49.2188 136.216 49.2188 134.922C49.2188 133.627 48.1694 132.578 46.875 132.578C45.5806 132.578 44.5312 133.627 44.5312 134.922C44.5312 136.216 45.5806 137.266 46.875 137.266Z"/><path fill="#000" d="M66.7969 116.172L59.2148 116.289L65.6367 123.836L66.7969 116.172Z"/></g><g opacity=".05"><path fill="#000" d="M33.5938 30.7188V36.4688H72.4062V30.7188H33.5938ZM37.1875 34.3125C36.9969 34.3125 36.8141 34.2368 36.6793 34.102C36.5445 33.9672 36.4688 33.7844 36.4688 33.5938C36.4688 33.4031 36.5445 33.2203 36.6793 33.0855C36.8141 32.9507 36.9969 32.875 37.1875 32.875C37.3781 32.875 37.5609 32.9507 37.6957 33.0855C37.8305 33.2203 37.9062 33.4031 37.9062 33.5938C37.9062 33.7844 37.8305 33.9672 37.6957 34.102C37.5609 34.2368 37.3781 34.3125 37.1875 34.3125ZM40.7812 34.3125C40.5906 34.3125 40.4078 34.2368 40.273 34.102C40.1382 33.9672 40.0625 33.7844 40.0625 33.5938C40.0625 33.4031 40.1382 33.2203 40.273 33.0855C40.4078 32.9507 40.5906 32.875 40.7812 32.875C40.9719 32.875 41.1547 32.9507 41.2895 33.0855C41.4243 33.2203 41.5 33.4031 41.5 33.5938C41.5 33.7844 41.4243 33.9672 41.2895 34.102C41.1547 34.2368 40.9719 34.3125 40.7812 34.3125ZM44.375 34.3125C44.1844 34.3125 44.0016 34.2368 43.8668 34.102C43.732 33.9672 43.6562 33.7844 43.6562 33.5938C43.6562 33.4031 43.732 33.2203 43.8668 33.0855C44.0016 32.9507 44.1844 32.875 44.375 32.875C44.5656 32.875 44.7484 32.9507 44.8832 33.0855C45.018 33.2203 45.0938 33.4031 45.0938 33.5938C45.0938 33.7844 45.018 33.9672 44.8832 34.102C44.7484 34.2368 44.5656 34.3125 44.375 34.3125Z"/><path fill="#000" d="M72.4062 37.9062V43.6562H55.1562C54.9656 43.6562 54.7828 43.732 54.648 43.8668C54.5132 44.0016 54.4375 44.1844 54.4375 44.375V67.375H51.5625V44.375C51.5625 44.1844 51.4868 44.0016 51.352 43.8668C51.2172 43.732 51.0344 43.6562 50.8438 43.6562H33.5938V37.9062H72.4062Z"/><path fill="#000" d="M40.0625 53.6109L39.4803 55.1562H40.6447L40.0625 53.6109ZM40.0625 53.6109L39.4803 55.1562H40.6447L40.0625 53.6109ZM40.0625 53.6109L39.4803 55.1562H40.6447L40.0625 53.6109ZM40.0625 53.6109L39.4803 55.1562H40.6447L40.0625 53.6109ZM34.3125 49.4062V59.4688H45.8125V49.4062H34.3125ZM41.5431 57.5641L41.1766 56.5938H38.9484L38.5819 57.5641C38.5152 57.7432 38.38 57.8886 38.2061 57.9681C38.0322 58.0476 37.8339 58.0548 37.6547 57.9881C37.4755 57.9214 37.3302 57.7862 37.2506 57.6124C37.1711 57.4385 37.1639 57.2401 37.2306 57.0609C39.5234 50.9875 39.3438 50.8438 40.0625 50.8438C40.7812 50.8438 40.6016 50.9875 42.8944 57.0609C42.9611 57.2401 42.9539 57.4385 42.8744 57.6124C42.7948 57.7862 42.6495 57.9214 42.4703 57.9881C42.2911 58.0548 42.0928 58.0476 41.9189 57.9681C41.745 57.8886 41.6098 57.7432 41.5431 57.5641ZM39.4803 55.1562H40.6447L40.0625 53.6109L39.4803 55.1562ZM40.0625 53.6109L39.4803 55.1562H40.6447L40.0625 53.6109ZM40.0625 53.6109L39.4803 55.1562H40.6447L40.0625 53.6109ZM40.0625 53.6109L39.4803 55.1562H40.6447L40.0625 53.6109ZM40.0625 53.6109L39.4803 55.1562H40.6447L40.0625 53.6109ZM40.0625 53.6109L39.4803 55.1562H40.6447L40.0625 53.6109ZM40.0625 53.6109L39.4803 55.1562H40.6447L40.0625 53.6109ZM40.0625 53.6109L39.4803 55.1562H40.6447L40.0625 53.6109ZM40.0625 53.6109L39.4803 55.1562H40.6447L40.0625 53.6109ZM34.3125 49.4062V59.4688H45.8125V49.4062H34.3125ZM41.5431 57.5641L41.1766 56.5938H38.9484L38.5819 57.5641C38.5152 57.7432 38.38 57.8886 38.2061 57.9681C38.0322 58.0476 37.8339 58.0548 37.6547 57.9881C37.4755 57.9214 37.3302 57.7862 37.2506 57.6124C37.1711 57.4385 37.1639 57.2401 37.2306 57.0609C39.5234 50.9875 39.3438 50.8438 40.0625 50.8438C40.7812 50.8438 40.6016 50.9875 42.8944 57.0609C42.9611 57.2401 42.9539 57.4385 42.8744 57.6124C42.7948 57.7862 42.6495 57.9214 42.4703 57.9881C42.2911 58.0548 42.0928 58.0476 41.9189 57.9681C41.745 57.8886 41.6098 57.7432 41.5431 57.5641ZM39.4803 55.1562H40.6447L40.0625 53.6109L39.4803 55.1562ZM40.0625 53.6109L39.4803 55.1562H40.6447L40.0625 53.6109ZM40.0625 53.6109L39.4803 55.1562H40.6447L40.0625 53.6109ZM40.0625 53.6109L39.4803 55.1562H40.6447L40.0625 53.6109ZM40.0625 53.6109L39.4803 55.1562H40.6447L40.0625 53.6109ZM40.0625 53.6109L39.4803 55.1562H40.6447L40.0625 53.6109ZM40.0625 53.6109L39.4803 55.1562H40.6447L40.0625 53.6109ZM40.0625 53.6109L39.4803 55.1562H40.6447L40.0625 53.6109ZM40.0625 53.6109L39.4803 55.1562H40.6447L40.0625 53.6109ZM34.3125 49.4062V59.4688H45.8125V49.4062H34.3125ZM41.5431 57.5641L41.1766 56.5938H38.9484L38.5819 57.5641C38.5152 57.7432 38.38 57.8886 38.2061 57.9681C38.0322 58.0476 37.8339 58.0548 37.6547 57.9881C37.4755 57.9214 37.3302 57.7862 37.2506 57.6124C37.1711 57.4385 37.1639 57.2401 37.2306 57.0609C39.5234 50.9875 39.3438 50.8438 40.0625 50.8438C40.7812 50.8438 40.6016 50.9875 42.8944 57.0609C42.9611 57.2401 42.9539 57.4385 42.8744 57.6124C42.7948 57.7862 42.6495 57.9214 42.4703 57.9881C42.2911 58.0548 42.0928 58.0476 41.9189 57.9681C41.745 57.8886 41.6098 57.7432 41.5431 57.5641ZM39.4803 55.1562H40.6447L40.0625 53.6109L39.4803 55.1562ZM40.0625 53.6109L39.4803 55.1562H40.6447L40.0625 53.6109ZM40.0625 53.6109L39.4803 55.1562H40.6447L40.0625 53.6109ZM40.0625 53.6109L39.4803 55.1562H40.6447L40.0625 53.6109ZM40.0625 53.6109L39.4803 55.1562H40.6447L40.0625 53.6109ZM34.3125 49.4062V59.4688H45.8125V49.4062H34.3125ZM41.5431 57.5641L41.1766 56.5938H38.9484L38.5819 57.5641C38.5152 57.7432 38.38 57.8886 38.2061 57.9681C38.0322 58.0476 37.8339 58.0548 37.6547 57.9881C37.4755 57.9214 37.3302 57.7862 37.2506 57.6124C37.1711 57.4385 37.1639 57.2401 37.2306 57.0609C39.5234 50.9875 39.3438 50.8438 40.0625 50.8438C40.7812 50.8438 40.6016 50.9875 42.8944 57.0609C42.9611 57.2401 42.9539 57.4385 42.8744 57.6124C42.7948 57.7862 42.6495 57.9214 42.4703 57.9881C42.2911 58.0548 42.0928 58.0476 41.9189 57.9681C41.745 57.8886 41.6098 57.7432 41.5431 57.5641ZM39.4803 55.1562H40.6447L40.0625 53.6109L39.4803 55.1562ZM40.0625 53.6109L39.4803 55.1562H40.6447L40.0625 53.6109ZM40.0625 53.6109L39.4803 55.1562H40.6447L40.0625 53.6109ZM40.0625 53.6109L39.4803 55.1562H40.6447L40.0625 53.6109ZM40.0625 53.6109L39.4803 55.1562H40.6447L40.0625 53.6109ZM34.3125 49.4062V59.4688H45.8125V49.4062H34.3125ZM41.5431 57.5641L41.1766 56.5938H38.9484L38.5819 57.5641C38.5152 57.7432 38.38 57.8886 38.2061 57.9681C38.0322 58.0476 37.8339 58.0548 37.6547 57.9881C37.4755 57.9214 37.3302 57.7862 37.2506 57.6124C37.1711 57.4385 37.1639 57.2401 37.2306 57.0609C39.5234 50.9875 39.3438 50.8438 40.0625 50.8438C40.7812 50.8438 40.6016 50.9875 42.8944 57.0609C42.9611 57.2401 42.9539 57.4385 42.8744 57.6124C42.7948 57.7862 42.6495 57.9214 42.4703 57.9881C42.2911 58.0548 42.0928 58.0476 41.9189 57.9681C41.745 57.8886 41.6098 57.7432 41.5431 57.5641ZM39.4803 55.1562H40.6447L40.0625 53.6109L39.4803 55.1562ZM34.3125 49.4062V59.4688H45.8125V49.4062H34.3125ZM41.5431 57.5641L41.1766 56.5938H38.9484L38.5819 57.5641C38.5152 57.7432 38.38 57.8886 38.2061 57.9681C38.0322 58.0476 37.8339 58.0548 37.6547 57.9881C37.4755 57.9214 37.3302 57.7862 37.2506 57.6124C37.1711 57.4385 37.1639 57.2401 37.2306 57.0609C39.5234 50.9875 39.3438 50.8438 40.0625 50.8438C40.7812 50.8438 40.6016 50.9875 42.8944 57.0609C42.9611 57.2401 42.9539 57.4385 42.8744 57.6124C42.7948 57.7862 42.6495 57.9214 42.4703 57.9881C42.2911 58.0548 42.0928 58.0476 41.9189 57.9681C41.745 57.8886 41.6098 57.7432 41.5431 57.5641ZM39.4803 55.1562H40.6447L40.0625 53.6109L39.4803 55.1562ZM30 45.0938V75.2812H50.125V45.0938H30ZM33.5938 71.6875C33.4031 71.6875 33.2203 71.6118 33.0855 71.477C32.9507 71.3422 32.875 71.1594 32.875 70.9688C32.875 70.7781 32.9507 70.5953 33.0855 70.4605C33.2203 70.3257 33.4031 70.25 33.5938 70.25C33.7844 70.25 33.9672 70.3257 34.102 70.4605C34.2368 70.5953 34.3125 70.7781 34.3125 70.9688C34.3125 71.1594 34.2368 71.3422 34.102 71.477C33.9672 71.6118 33.7844 71.6875 33.5938 71.6875ZM33.5938 68.0938C33.4031 68.0938 33.2203 68.018 33.0855 67.8832C32.9507 67.7484 32.875 67.5656 32.875 67.375C32.875 67.1844 32.9507 67.0016 33.0855 66.8668C33.2203 66.732 33.4031 66.6562 33.5938 66.6562C33.7844 66.6562 33.9672 66.732 34.102 66.8668C34.2368 67.0016 34.3125 67.1844 34.3125 67.375C34.3125 67.5656 34.2368 67.7484 34.102 67.8832C33.9672 68.018 33.7844 68.0938 33.5938 68.0938ZM33.5938 64.5C33.4031 64.5 33.2203 64.4243 33.0855 64.2895C32.9507 64.1547 32.875 63.9719 32.875 63.7812C32.875 63.5906 32.9507 63.4078 33.0855 63.273C33.2203 63.1382 33.4031 63.0625 33.5938 63.0625C33.7844 63.0625 33.9672 63.1382 34.102 63.273C34.2368 63.4078 34.3125 63.5906 34.3125 63.7812C34.3125 63.9719 34.2368 64.1547 34.102 64.2895C33.9672 64.4243 33.7844 64.5 33.5938 64.5ZM46.5312 71.6875H36.4688C36.2781 71.6875 36.0953 71.6118 35.9605 71.477C35.8257 71.3422 35.75 71.1594 35.75 70.9688C35.75 70.7781 35.8257 70.5953 35.9605 70.4605C36.0953 70.3257 36.2781 70.25 36.4688 70.25H46.5312C46.7219 70.25 46.9047 70.3257 47.0395 70.4605C47.1743 70.5953 47.25 70.7781 47.25 70.9688C47.25 71.1594 47.1743 71.3422 47.0395 71.477C46.9047 71.6118 46.7219 71.6875 46.5312 71.6875ZM46.5312 68.0938H36.4688C36.2781 68.0938 36.0953 68.018 35.9605 67.8832C35.8257 67.7484 35.75 67.5656 35.75 67.375C35.75 67.1844 35.8257 67.0016 35.9605 66.8668C36.0953 66.732 36.2781 66.6562 36.4688 66.6562H46.5312C46.7219 66.6562 46.9047 66.732 47.0395 66.8668C47.1743 67.0016 47.25 67.1844 47.25 67.375C47.25 67.5656 47.1743 67.7484 47.0395 67.8832C46.9047 68.018 46.7219 68.0938 46.5312 68.0938ZM46.5312 64.5H36.4688C36.2781 64.5 36.0953 64.4243 35.9605 64.2895C35.8257 64.1547 35.75 63.9719 35.75 63.7812C35.75 63.5906 35.8257 63.4078 35.9605 63.273C36.0953 63.1382 36.2781 63.0625 36.4688 63.0625H46.5312C46.7219 63.0625 46.9047 63.1382 47.0395 63.273C47.1743 63.4078 47.25 63.5906 47.25 63.7812C47.25 63.9719 47.1743 64.1547 47.0395 64.2895C46.9047 64.4243 46.7219 64.5 46.5312 64.5ZM47.25 60.1875C47.25 60.3781 47.1743 60.5609 47.0395 60.6957C46.9047 60.8305 46.7219 60.9062 46.5312 60.9062H33.5938C33.4031 60.9062 33.2203 60.8305 33.0855 60.6957C32.9507 60.5609 32.875 60.3781 32.875 60.1875V48.6875C32.875 48.4969 32.9507 48.3141 33.0855 48.1793C33.2203 48.0445 33.4031 47.9688 33.5938 47.9688H46.5312C46.7219 47.9688 46.9047 48.0445 47.0395 48.1793C47.1743 48.3141 47.25 48.4969 47.25 48.6875V60.1875ZM34.3125 59.4688H45.8125V49.4062H34.3125V59.4688ZM37.2306 57.0609C37.9494 55.1059 37.4894 56.3925 39.3869 51.3109C39.4372 51.1722 39.5291 51.0523 39.65 50.9676C39.7709 50.8829 39.9149 50.8374 40.0625 50.8374C40.2101 50.8374 40.3541 50.8829 40.475 50.9676C40.5959 51.0523 40.6878 51.1722 40.7381 51.3109C42.6356 56.3925 42.1756 55.1059 42.8944 57.0609C42.9351 57.1698 42.9487 57.287 42.9342 57.4023C42.9197 57.5177 42.8774 57.6278 42.8109 57.7232C42.7445 57.8186 42.6559 57.8965 42.5528 57.9501C42.4496 58.0038 42.335 58.0316 42.2188 58.0312C41.6006 58.0312 41.5 57.5138 41.1766 56.5938H38.9484L38.5819 57.5641C38.5152 57.7432 38.38 57.8886 38.2061 57.9681C38.0322 58.0476 37.8339 58.0548 37.6547 57.9881C37.4755 57.9214 37.3302 57.7862 37.2506 57.6124C37.1711 57.4385 37.1639 57.2401 37.2306 57.0609ZM40.0625 53.6109L39.4803 55.1562H40.6447L40.0625 53.6109ZM40.0625 53.6109L39.4803 55.1562H40.6447L40.0625 53.6109ZM40.0625 53.6109L39.4803 55.1562H40.6447L40.0625 53.6109ZM34.3125 49.4062V59.4688H45.8125V49.4062H34.3125ZM41.5431 57.5641L41.1766 56.5938H38.9484L38.5819 57.5641C38.5152 57.7432 38.38 57.8886 38.2061 57.9681C38.0322 58.0476 37.8339 58.0548 37.6547 57.9881C37.4755 57.9214 37.3302 57.7862 37.2506 57.6124C37.1711 57.4385 37.1639 57.2401 37.2306 57.0609C39.5234 50.9875 39.3438 50.8438 40.0625 50.8438C40.7812 50.8438 40.6016 50.9875 42.8944 57.0609C42.9611 57.2401 42.9539 57.4385 42.8744 57.6124C42.7948 57.7862 42.6495 57.9214 42.4703 57.9881C42.2911 58.0548 42.0928 58.0476 41.9189 57.9681C41.745 57.8886 41.6098 57.7432 41.5431 57.5641ZM39.4803 55.1562H40.6447L40.0625 53.6109L39.4803 55.1562ZM40.0625 53.6109L39.4803 55.1562H40.6447L40.0625 53.6109ZM40.0625 53.6109L39.4803 55.1562H40.6447L40.0625 53.6109ZM34.3125 49.4062V59.4688H45.8125V49.4062H34.3125ZM41.5431 57.5641L41.1766 56.5938H38.9484L38.5819 57.5641C38.5152 57.7432 38.38 57.8886 38.2061 57.9681C38.0322 58.0476 37.8339 58.0548 37.6547 57.9881C37.4755 57.9214 37.3302 57.7862 37.2506 57.6124C37.1711 57.4385 37.1639 57.2401 37.2306 57.0609C39.5234 50.9875 39.3438 50.8438 40.0625 50.8438C40.7812 50.8438 40.6016 50.9875 42.8944 57.0609C42.9611 57.2401 42.9539 57.4385 42.8744 57.6124C42.7948 57.7862 42.6495 57.9214 42.4703 57.9881C42.2911 58.0548 42.0928 58.0476 41.9189 57.9681C41.745 57.8886 41.6098 57.7432 41.5431 57.5641ZM39.4803 55.1562H40.6447L40.0625 53.6109L39.4803 55.1562ZM40.0625 53.6109L39.4803 55.1562H40.6447L40.0625 53.6109ZM40.0625 53.6109L39.4803 55.1562H40.6447L40.0625 53.6109ZM40.0625 53.6109L39.4803 55.1562H40.6447L40.0625 53.6109ZM40.0625 53.6109L39.4803 55.1562H40.6447L40.0625 53.6109ZM40.0625 53.6109L39.4803 55.1562H40.6447L40.0625 53.6109ZM40.0625 53.6109L39.4803 55.1562H40.6447L40.0625 53.6109ZM34.3125 49.4062V59.4688H45.8125V49.4062H34.3125ZM41.5431 57.5641L41.1766 56.5938H38.9484L38.5819 57.5641C38.5152 57.7432 38.38 57.8886 38.2061 57.9681C38.0322 58.0476 37.8339 58.0548 37.6547 57.9881C37.4755 57.9214 37.3302 57.7862 37.2506 57.6124C37.1711 57.4385 37.1639 57.2401 37.2306 57.0609C39.5234 50.9875 39.3438 50.8438 40.0625 50.8438C40.7812 50.8438 40.6016 50.9875 42.8944 57.0609C42.9611 57.2401 42.9539 57.4385 42.8744 57.6124C42.7948 57.7862 42.6495 57.9214 42.4703 57.9881C42.2911 58.0548 42.0928 58.0476 41.9189 57.9681C41.745 57.8886 41.6098 57.7432 41.5431 57.5641ZM39.4803 55.1562H40.6447L40.0625 53.6109L39.4803 55.1562ZM40.0625 53.6109L39.4803 55.1562H40.6447L40.0625 53.6109ZM40.0625 53.6109L39.4803 55.1562H40.6447L40.0625 53.6109ZM40.0625 53.6109L39.4803 55.1562H40.6447L40.0625 53.6109ZM40.0625 53.6109L39.4803 55.1562H40.6447L40.0625 53.6109ZM40.0625 53.6109L39.4803 55.1562H40.6447L40.0625 53.6109ZM40.0625 53.6109L39.4803 55.1562H40.6447L40.0625 53.6109ZM34.3125 49.4062V59.4688H45.8125V49.4062H34.3125ZM41.5431 57.5641L41.1766 56.5938H38.9484L38.5819 57.5641C38.5152 57.7432 38.38 57.8886 38.2061 57.9681C38.0322 58.0476 37.8339 58.0548 37.6547 57.9881C37.4755 57.9214 37.3302 57.7862 37.2506 57.6124C37.1711 57.4385 37.1639 57.2401 37.2306 57.0609C39.5234 50.9875 39.3438 50.8438 40.0625 50.8438C40.7812 50.8438 40.6016 50.9875 42.8944 57.0609C42.9611 57.2401 42.9539 57.4385 42.8744 57.6124C42.7948 57.7862 42.6495 57.9214 42.4703 57.9881C42.2911 58.0548 42.0928 58.0476 41.9189 57.9681C41.745 57.8886 41.6098 57.7432 41.5431 57.5641ZM39.4803 55.1562H40.6447L40.0625 53.6109L39.4803 55.1562ZM40.0625 53.6109L39.4803 55.1562H40.6447L40.0625 53.6109ZM40.0625 53.6109L39.4803 55.1562H40.6447L40.0625 53.6109ZM40.0625 53.6109L39.4803 55.1562H40.6447L40.0625 53.6109ZM40.0625 53.6109L39.4803 55.1562H40.6447L40.0625 53.6109ZM40.0625 53.6109L39.4803 55.1562H40.6447L40.0625 53.6109ZM40.0625 53.6109L39.4803 55.1562H40.6447L40.0625 53.6109ZM40.0625 53.6109L39.4803 55.1562H40.6447L40.0625 53.6109ZM40.0625 53.6109L39.4803 55.1562H40.6447L40.0625 53.6109ZM34.3125 49.4062V59.4688H45.8125V49.4062H34.3125ZM41.5431 57.5641L41.1766 56.5938H38.9484L38.5819 57.5641C38.5152 57.7432 38.38 57.8886 38.2061 57.9681C38.0322 58.0476 37.8339 58.0548 37.6547 57.9881C37.4755 57.9214 37.3302 57.7862 37.2506 57.6124C37.1711 57.4385 37.1639 57.2401 37.2306 57.0609C39.5234 50.9875 39.3438 50.8438 40.0625 50.8438C40.7812 50.8438 40.6016 50.9875 42.8944 57.0609C42.9611 57.2401 42.9539 57.4385 42.8744 57.6124C42.7948 57.7862 42.6495 57.9214 42.4703 57.9881C42.2911 58.0548 42.0928 58.0476 41.9189 57.9681C41.745 57.8886 41.6098 57.7432 41.5431 57.5641ZM39.4803 55.1562H40.6447L40.0625 53.6109L39.4803 55.1562ZM40.0625 53.6109L39.4803 55.1562H40.6447L40.0625 53.6109ZM40.0625 53.6109L39.4803 55.1562H40.6447L40.0625 53.6109ZM40.0625 53.6109L39.4803 55.1562H40.6447L40.0625 53.6109ZM40.0625 53.6109L39.4803 55.1562H40.6447L40.0625 53.6109ZM40.0625 53.6109L39.4803 55.1562H40.6447L40.0625 53.6109ZM40.0625 53.6109L39.4803 55.1562H40.6447L40.0625 53.6109ZM40.0625 53.6109L39.4803 55.1562H40.6447L40.0625 53.6109ZM40.0625 53.6109L39.4803 55.1562H40.6447L40.0625 53.6109ZM34.3125 49.4062V59.4688H45.8125V49.4062H34.3125ZM41.5431 57.5641L41.1766 56.5938H38.9484L38.5819 57.5641C38.5152 57.7432 38.38 57.8886 38.2061 57.9681C38.0322 58.0476 37.8339 58.0548 37.6547 57.9881C37.4755 57.9214 37.3302 57.7862 37.2506 57.6124C37.1711 57.4385 37.1639 57.2401 37.2306 57.0609C39.5234 50.9875 39.3438 50.8438 40.0625 50.8438C40.7812 50.8438 40.6016 50.9875 42.8944 57.0609C42.9611 57.2401 42.9539 57.4385 42.8744 57.6124C42.7948 57.7862 42.6495 57.9214 42.4703 57.9881C42.2911 58.0548 42.0928 58.0476 41.9189 57.9681C41.745 57.8886 41.6098 57.7432 41.5431 57.5641ZM39.4803 55.1562H40.6447L40.0625 53.6109L39.4803 55.1562ZM40.0625 53.6109L39.4803 55.1562H40.6447L40.0625 53.6109ZM40.0625 53.6109L39.4803 55.1562H40.6447L40.0625 53.6109ZM40.0625 53.6109L39.4803 55.1562H40.6447L40.0625 53.6109ZM40.0625 53.6109L39.4803 55.1562H40.6447L40.0625 53.6109Z"/><path fill="#000" d="M66.6562 56.5938H64.5V55.1562H66.6562C66.8469 55.1562 67.0297 55.232 67.1645 55.3668C67.2993 55.5016 67.375 55.6844 67.375 55.875C67.375 56.0656 67.2993 56.2484 67.1645 56.3832C67.0297 56.518 66.8469 56.5938 66.6562 56.5938Z"/><path fill="#000" d="M65.9375 52.2812H64.5V53.7188H65.9375C66.1281 53.7188 66.3109 53.643 66.4457 53.5082C66.5805 53.3734 66.6562 53.1906 66.6562 53C66.6562 52.8094 66.5805 52.6266 66.4457 52.4918C66.3109 52.357 66.1281 52.2812 65.9375 52.2812ZM65.9375 52.2812H64.5V53.7188H65.9375C66.1281 53.7188 66.3109 53.643 66.4457 53.5082C66.5805 53.3734 66.6562 53.1906 66.6562 53C66.6562 52.8094 66.5805 52.6266 66.4457 52.4918C66.3109 52.357 66.1281 52.2812 65.9375 52.2812ZM65.9375 52.2812H64.5V53.7188H65.9375C66.1281 53.7188 66.3109 53.643 66.4457 53.5082C66.5805 53.3734 66.6562 53.1906 66.6562 53C66.6562 52.8094 66.5805 52.6266 66.4457 52.4918C66.3109 52.357 66.1281 52.2812 65.9375 52.2812ZM65.9375 52.2812H64.5V53.7188H65.9375C66.1281 53.7188 66.3109 53.643 66.4457 53.5082C66.5805 53.3734 66.6562 53.1906 66.6562 53C66.6562 52.8094 66.5805 52.6266 66.4457 52.4918C66.3109 52.357 66.1281 52.2812 65.9375 52.2812ZM65.9375 52.2812H64.5V53.7188H65.9375C66.1281 53.7188 66.3109 53.643 66.4457 53.5082C66.5805 53.3734 66.6562 53.1906 66.6562 53C66.6562 52.8094 66.5805 52.6266 66.4457 52.4918C66.3109 52.357 66.1281 52.2812 65.9375 52.2812ZM65.9375 52.2812H64.5V53.7188H65.9375C66.1281 53.7188 66.3109 53.643 66.4457 53.5082C66.5805 53.3734 66.6562 53.1906 66.6562 53C66.6562 52.8094 66.5805 52.6266 66.4457 52.4918C66.3109 52.357 66.1281 52.2812 65.9375 52.2812ZM65.9375 52.2812H64.5V53.7188H65.9375C66.1281 53.7188 66.3109 53.643 66.4457 53.5082C66.5805 53.3734 66.6562 53.1906 66.6562 53C66.6562 52.8094 66.5805 52.6266 66.4457 52.4918C66.3109 52.357 66.1281 52.2812 65.9375 52.2812ZM60.1875 49.4062V59.4688H71.6875V49.4062H60.1875ZM66.6562 58.0312H63.7812C63.5906 58.0312 63.4078 57.9555 63.273 57.8207C63.1382 57.6859 63.0625 57.5031 63.0625 57.3125V51.5625C63.0625 51.3719 63.1382 51.1891 63.273 51.0543C63.4078 50.9195 63.5906 50.8438 63.7812 50.8438H65.9375C66.3142 50.8431 66.6845 50.9412 67.0115 51.1282C67.3385 51.3153 67.6107 51.5847 67.8012 51.9096C67.9917 52.2346 68.0937 52.6038 68.0971 52.9805C68.1005 53.3572 68.0052 53.7282 67.8206 54.0566C68.2145 54.3076 68.5163 54.6797 68.6805 55.1169C68.8447 55.5542 68.8625 56.033 68.7312 56.4812C68.5999 56.9294 68.3266 57.3229 67.9524 57.6025C67.5782 57.882 67.1233 58.0325 66.6562 58.0312ZM65.9375 52.2812H64.5V53.7188H65.9375C66.1281 53.7188 66.3109 53.643 66.4457 53.5082C66.5805 53.3734 66.6562 53.1906 66.6562 53C66.6562 52.8094 66.5805 52.6266 66.4457 52.4918C66.3109 52.357 66.1281 52.2812 65.9375 52.2812ZM65.9375 52.2812H64.5V53.7188H65.9375C66.1281 53.7188 66.3109 53.643 66.4457 53.5082C66.5805 53.3734 66.6562 53.1906 66.6562 53C66.6562 52.8094 66.5805 52.6266 66.4457 52.4918C66.3109 52.357 66.1281 52.2812 65.9375 52.2812ZM65.9375 52.2812H64.5V53.7188H65.9375C66.1281 53.7188 66.3109 53.643 66.4457 53.5082C66.5805 53.3734 66.6562 53.1906 66.6562 53C66.6562 52.8094 66.5805 52.6266 66.4457 52.4918C66.3109 52.357 66.1281 52.2812 65.9375 52.2812ZM65.9375 52.2812H64.5V53.7188H65.9375C66.1281 53.7188 66.3109 53.643 66.4457 53.5082C66.5805 53.3734 66.6562 53.1906 66.6562 53C66.6562 52.8094 66.5805 52.6266 66.4457 52.4918C66.3109 52.357 66.1281 52.2812 65.9375 52.2812ZM65.9375 52.2812H64.5V53.7188H65.9375C66.1281 53.7188 66.3109 53.643 66.4457 53.5082C66.5805 53.3734 66.6562 53.1906 66.6562 53C66.6562 52.8094 66.5805 52.6266 66.4457 52.4918C66.3109 52.357 66.1281 52.2812 65.9375 52.2812ZM65.9375 52.2812H64.5V53.7188H65.9375C66.1281 53.7188 66.3109 53.643 66.4457 53.5082C66.5805 53.3734 66.6562 53.1906 66.6562 53C66.6562 52.8094 66.5805 52.6266 66.4457 52.4918C66.3109 52.357 66.1281 52.2812 65.9375 52.2812ZM65.9375 52.2812H64.5V53.7188H65.9375C66.1281 53.7188 66.3109 53.643 66.4457 53.5082C66.5805 53.3734 66.6562 53.1906 66.6562 53C66.6562 52.8094 66.5805 52.6266 66.4457 52.4918C66.3109 52.357 66.1281 52.2812 65.9375 52.2812Z"/><path fill="#000" d="M55.875 45.0938V75.2812H76V45.0938H55.875ZM59.4688 71.6875C59.2781 71.6875 59.0953 71.6118 58.9605 71.477C58.8257 71.3422 58.75 71.1594 58.75 70.9688C58.75 70.7781 58.8257 70.5953 58.9605 70.4605C59.0953 70.3257 59.2781 70.25 59.4688 70.25C59.6594 70.25 59.8422 70.3257 59.977 70.4605C60.1118 70.5953 60.1875 70.7781 60.1875 70.9688C60.1875 71.1594 60.1118 71.3422 59.977 71.477C59.8422 71.6118 59.6594 71.6875 59.4688 71.6875ZM59.4688 68.0938C59.2781 68.0938 59.0953 68.018 58.9605 67.8832C58.8257 67.7484 58.75 67.5656 58.75 67.375C58.75 67.1844 58.8257 67.0016 58.9605 66.8668C59.0953 66.732 59.2781 66.6562 59.4688 66.6562C59.6594 66.6562 59.8422 66.732 59.977 66.8668C60.1118 67.0016 60.1875 67.1844 60.1875 67.375C60.1875 67.5656 60.1118 67.7484 59.977 67.8832C59.8422 68.018 59.6594 68.0938 59.4688 68.0938ZM59.4688 64.5C59.2781 64.5 59.0953 64.4243 58.9605 64.2895C58.8257 64.1547 58.75 63.9719 58.75 63.7812C58.75 63.5906 58.8257 63.4078 58.9605 63.273C59.0953 63.1382 59.2781 63.0625 59.4688 63.0625C59.6594 63.0625 59.8422 63.1382 59.977 63.273C60.1118 63.4078 60.1875 63.5906 60.1875 63.7812C60.1875 63.9719 60.1118 64.1547 59.977 64.2895C59.8422 64.4243 59.6594 64.5 59.4688 64.5ZM72.4062 71.6875H62.3438C62.1531 71.6875 61.9703 71.6118 61.8355 71.477C61.7007 71.3422 61.625 71.1594 61.625 70.9688C61.625 70.7781 61.7007 70.5953 61.8355 70.4605C61.9703 70.3257 62.1531 70.25 62.3438 70.25H72.4062C72.5969 70.25 72.7797 70.3257 72.9145 70.4605C73.0493 70.5953 73.125 70.7781 73.125 70.9688C73.125 71.1594 73.0493 71.3422 72.9145 71.477C72.7797 71.6118 72.5969 71.6875 72.4062 71.6875ZM72.4062 68.0938H62.3438C62.1531 68.0938 61.9703 68.018 61.8355 67.8832C61.7007 67.7484 61.625 67.5656 61.625 67.375C61.625 67.1844 61.7007 67.0016 61.8355 66.8668C61.9703 66.732 62.1531 66.6562 62.3438 66.6562H72.4062C72.5969 66.6562 72.7797 66.732 72.9145 66.8668C73.0493 67.0016 73.125 67.1844 73.125 67.375C73.125 67.5656 73.0493 67.7484 72.9145 67.8832C72.7797 68.018 72.5969 68.0938 72.4062 68.0938ZM72.4062 64.5H62.3438C62.1531 64.5 61.9703 64.4243 61.8355 64.2895C61.7007 64.1547 61.625 63.9719 61.625 63.7812C61.625 63.5906 61.7007 63.4078 61.8355 63.273C61.9703 63.1382 62.1531 63.0625 62.3438 63.0625H72.4062C72.5969 63.0625 72.7797 63.1382 72.9145 63.273C73.0493 63.4078 73.125 63.5906 73.125 63.7812C73.125 63.9719 73.0493 64.1547 72.9145 64.2895C72.7797 64.4243 72.5969 64.5 72.4062 64.5ZM73.125 60.1875C73.125 60.3781 73.0493 60.5609 72.9145 60.6957C72.7797 60.8305 72.5969 60.9062 72.4062 60.9062H59.4688C59.2781 60.9062 59.0953 60.8305 58.9605 60.6957C58.8257 60.5609 58.75 60.3781 58.75 60.1875V48.6875C58.75 48.4969 58.8257 48.3141 58.9605 48.1793C59.0953 48.0445 59.2781 47.9688 59.4688 47.9688H72.4062C72.5969 47.9688 72.7797 48.0445 72.9145 48.1793C73.0493 48.3141 73.125 48.4969 73.125 48.6875V60.1875Z"/></g><path fill="#000" fill-opacity=".05" d="M178 48.71V27.29C176.628 29.2341 174.838 30.846 172.762 32.0072C170.685 33.1684 168.374 33.8494 166 34V42C168.373 42.1563 170.682 42.8396 172.757 44.0004C174.833 45.1611 176.624 46.77 178 48.71Z"/><path fill="#000" fill-opacity=".05" d="M162.19 45H158.19L160.61 56.31C160.82 57.23 161.55 57 165.07 57C165.265 56.9987 165.453 56.9329 165.606 56.813C165.76 56.693 165.869 56.5257 165.917 56.3371C165.965 56.1485 165.949 55.9494 165.872 55.7708C165.794 55.5922 165.66 55.4442 165.49 55.35C163.94 54.5 164.16 54.05 162.19 45Z"/><path fill="#000" fill-opacity=".05" d="M186 36.62L184 35.62V40.38L186 39.38V36.62Z"/><path fill="#000" fill-opacity=".05" d="M182 52V24C182 23.7348 181.895 23.4804 181.707 23.2929C181.52 23.1054 181.265 23 181 23C180.735 23 180.48 23.1054 180.293 23.2929C180.105 23.4804 180 23.7348 180 24V52C180 52.2652 180.105 52.5196 180.293 52.7071C180.48 52.8946 180.735 53 181 53C181.265 53 181.52 52.8946 181.707 52.7071C181.895 52.5196 182 52.2652 182 52Z"/><path fill="#000" fill-opacity=".05" d="M164 33H156V43H164V33Z"/><path fill="#000" fill-opacity=".05" d="M138 70H200V18H138V70ZM194 65H178C177.735 65 177.48 64.8946 177.293 64.7071C177.105 64.5196 177 64.2652 177 64C177 63.7348 177.105 63.4804 177.293 63.2929C177.48 63.1054 177.735 63 178 63H194C194.265 63 194.52 63.1054 194.707 63.2929C194.895 63.4804 195 63.7348 195 64C195 64.2652 194.895 64.5196 194.707 64.7071C194.52 64.8946 194.265 65 194 65ZM150 37C150 35.8473 150.398 34.73 151.127 33.8371C151.856 32.9442 152.871 32.3305 154 32.1C153.986 31.9605 154.001 31.8197 154.045 31.6865C154.089 31.5534 154.161 31.431 154.255 31.3273C154.349 31.2236 154.464 31.1408 154.593 31.0845C154.721 31.0281 154.86 30.9993 155 31H165C165.265 31 165.52 31.1054 165.707 31.2929C165.895 31.4804 166 31.7348 166 32C168.123 31.8531 170.184 31.2203 172.023 30.1505C173.863 29.0807 175.432 27.6025 176.61 25.83L178 23.67C178.044 22.8744 178.402 22.1287 178.995 21.597C179.589 21.0653 180.369 20.7912 181.165 20.835C181.961 20.8788 182.706 21.2368 183.238 21.8304C183.77 22.4239 184.044 23.2044 184 24V33.39C187.61 35.19 188 35.18 188 36C188 40 188.19 40.54 187.45 40.89L184 42.62V52C184.044 52.7957 183.77 53.5761 183.238 54.1696C182.706 54.7632 181.961 55.1212 181.165 55.165C180.369 55.2088 179.589 54.9347 178.995 54.403C178.402 53.8713 178.044 53.1257 178 52.33C176.32 49.8 175 47.52 171.57 45.65C169.849 44.7166 167.952 44.1545 166 44C166 44.2652 165.895 44.5196 165.707 44.7071C165.52 44.8946 165.265 45 165 45H164.24C166.15 53.74 165.91 53.27 166.42 53.55C166.998 53.8423 167.46 54.3209 167.733 54.9084C168.005 55.496 168.072 56.1582 167.922 56.7882C167.771 57.4182 167.413 57.9791 166.905 58.3805C166.396 58.7818 165.768 59 165.12 59H161.52C160.861 58.9952 160.224 58.7671 159.711 58.353C159.199 57.9388 158.843 57.3631 158.7 56.72L156.19 45H155C154.86 45.0007 154.721 44.9719 154.593 44.9155C154.464 44.8591 154.349 44.7764 154.255 44.6727C154.161 44.569 154.089 44.4466 154.045 44.3135C154.001 44.1803 153.986 44.0395 154 43.9C152.871 43.6695 151.856 43.0558 151.127 42.1629C150.398 41.27 150 40.1527 150 39V37ZM151 63H173C173 62.7348 173.105 62.4804 173.293 62.2929C173.48 62.1054 173.735 62 174 62C174.265 62 174.52 62.1054 174.707 62.2929C174.895 62.4804 175 62.7348 175 63V65C175 65.2652 174.895 65.5196 174.707 65.7071C174.52 65.8946 174.265 66 174 66C173.735 66 173.48 65.8946 173.293 65.7071C173.105 65.5196 173 65.2652 173 65H151C150.735 65 150.48 64.8946 150.293 64.7071C150.105 64.5196 150 64.2652 150 64C150 63.7348 150.105 63.4804 150.293 63.2929C150.48 63.1054 150.735 63 151 63ZM143 62C143.001 61.8199 143.05 61.6434 143.143 61.4892C143.236 61.3349 143.369 61.2086 143.528 61.1236C143.687 61.0386 143.865 60.998 144.045 61.0062C144.225 61.0144 144.4 61.0709 144.55 61.17C147.72 63.29 148 63.3 148 64C148 64.7 147.66 64.76 144.55 66.83C144.402 66.9255 144.232 66.9804 144.057 66.9892C143.881 66.9979 143.706 66.9603 143.55 66.88C142.83 66.52 143 66.16 143 62Z"/><path fill="#000" fill-opacity=".05" d="M154 41.83V34.17C153.415 34.3769 152.908 34.7602 152.55 35.267C152.192 35.7739 152 36.3794 152 37V39C152 39.6207 152.192 40.2261 152.55 40.733C152.908 41.2399 153.415 41.6231 154 41.83Z"/><path fill="#000" fill-opacity=".05" d="M138 8V16H200V8H138ZM143 13C142.735 13 142.48 12.8946 142.293 12.7071C142.105 12.5196 142 12.2652 142 12C142 11.7348 142.105 11.4804 142.293 11.2929C142.48 11.1054 142.735 11 143 11C143.265 11 143.52 11.1054 143.707 11.2929C143.895 11.4804 144 11.7348 144 12C144 12.2652 143.895 12.5196 143.707 12.7071C143.52 12.8946 143.265 13 143 13ZM148 13C147.735 13 147.48 12.8946 147.293 12.7071C147.105 12.5196 147 12.2652 147 12C147 11.7348 147.105 11.4804 147.293 11.2929C147.48 11.1054 147.735 11 148 11C148.265 11 148.52 11.1054 148.707 11.2929C148.895 11.4804 149 11.7348 149 12C149 12.2652 148.895 12.5196 148.707 12.7071C148.52 12.8946 148.265 13 148 13ZM153 13C152.735 13 152.48 12.8946 152.293 12.7071C152.105 12.5196 152 12.2652 152 12C152 11.7348 152.105 11.4804 152.293 11.2929C152.48 11.1054 152.735 11 153 11C153.265 11 153.52 11.1054 153.707 11.2929C153.895 11.4804 154 11.7348 154 12C154 12.2652 153.895 12.5196 153.707 12.7071C153.52 12.8946 153.265 13 153 13Z"/><g clip-path="url(#clip0)"><path fill="#fff" stroke="#D8BAA3" stroke-miterlimit="10" stroke-width="1.024" d="M133.682 139.454H84.1011C80.3666 139.454 77.3392 142.481 77.3392 146.215C77.3392 149.95 80.3666 152.977 84.1011 152.977H133.682C137.416 152.977 140.443 149.95 140.443 146.215C140.443 142.481 137.416 139.454 133.682 139.454Z"/><path stroke="#D8BAA3" stroke-miterlimit="10" stroke-width="1.024" d="M81.4199 225.748C81.3608 225.749 81.3021 225.738 81.2479 225.714C81.1936 225.691 81.1451 225.656 81.1054 225.612C81.0658 225.568 81.036 225.516 81.0181 225.46C81.0003 225.404 80.9947 225.344 81.0018 225.286L91.1769 152.977H124.334L81.7885 225.542C81.7504 225.605 81.6964 225.658 81.6317 225.694C81.567 225.73 81.494 225.749 81.4199 225.748V225.748Z"/><path stroke="#D8BAA3" stroke-miterlimit="10" stroke-width="1.024" d="M135.96 225.748C136.019 225.749 136.078 225.738 136.133 225.714C136.187 225.69 136.236 225.655 136.276 225.61C136.315 225.566 136.344 225.513 136.361 225.456C136.379 225.399 136.383 225.339 136.375 225.28L124.505 152.977H91.3475L135.598 225.548C135.636 225.61 135.69 225.66 135.753 225.695C135.816 225.73 135.888 225.748 135.96 225.748V225.748Z"/><path fill="#B65A18" d="M146.956 198.537C149.257 198.766 152.98 199.22 157.423 198.798C156.283 203.198 155.759 207.405 154.929 211.142C154.394 213.549 157.66 216.807 158.65 219.164C158.625 219.15 158.599 219.138 158.573 219.128C154.044 218.406 147.978 222.69 148.603 216.003C149.202 209.309 147.695 204.399 146.956 198.537Z"/><path fill="#642648" d="M148.74 211.081C147.181 211.081 144.312 213.895 144.563 218.401C144.703 221.059 145.143 223.692 145.874 226.251H164.05C164.903 219.812 158.573 219.118 158.573 219.118C154.042 218.396 148.205 222.679 148.83 215.994L148.74 211.081Z"/><path fill="#C36F0B" d="M134.327 198.708C136.627 198.936 141.546 199.22 145.988 198.798C144.848 203.198 144.178 211.142 144.178 211.142C143.642 213.549 146.908 216.807 147.898 219.164C147.873 219.15 147.848 219.138 147.821 219.128C143.292 218.406 137.226 222.69 137.851 216.003C138.45 209.309 134.327 198.708 134.327 198.708Z"/><path fill="#722D54" d="M137.646 211.081C136.088 211.081 133.56 213.895 133.811 218.401C133.951 221.059 134.391 223.692 135.122 226.251H153.298C154.151 219.812 147.821 219.118 147.821 219.118C143.29 218.396 137.453 222.679 138.078 215.994L137.646 211.081Z"/><path fill="#3C4564" d="M97.8039 101.706C97.8039 101.706 82.1861 120.607 83.2972 133.212C84.4082 145.818 97.355 149.545 121.185 149.267C121.185 149.267 121.883 168.175 134.258 198.76C134.258 198.76 140.001 199.87 147.058 198.76C147.058 198.76 153.032 199.363 157.469 198.731C157.469 198.731 166.931 136.89 165.781 130.618C164.256 122.307 134.139 114.809 126.343 113.009L119.825 101.706C119.825 101.706 106.738 103.368 97.8039 101.706Z"/><path stroke="#3C4564" stroke-miterlimit="10" stroke-width=".683" d="M115.309 120.32C115.309 120.32 140.288 126.874 143.338 134.907C146.388 142.94 146.543 199.443 146.543 199.443"/><path fill="#F0E1D4" d="M127.937 78.0528C127.937 78.0528 126.968 91.5577 119.762 101.738C119.762 101.738 107.986 103.747 97.7459 101.738C97.7459 101.738 87.5998 91.0679 84.6916 79.5035C84.6916 79.5035 75.0301 59.9075 79.4009 56.5829C83.7717 53.2583 94.6466 47.5376 94.6466 47.5376L116.767 48.623C119.497 50.2819 125.319 52.9938 131.137 56.0402L127.937 78.0528Z"/><path fill="#F0E1D4" stroke="#fff" stroke-linejoin="round" stroke-width=".853" d="M110.012 73.5694C110.893 73.5694 111.607 72.855 111.607 71.9737C111.607 71.0924 110.893 70.3779 110.012 70.3779C109.13 70.3779 108.416 71.0924 108.416 71.9737C108.416 72.855 109.13 73.5694 110.012 73.5694Z"/><path fill="#F0E1D4" stroke="#fff" stroke-linejoin="round" stroke-width=".853" d="M110.012 80.0274C110.893 80.0274 111.607 79.313 111.607 78.4317C111.607 77.5504 110.893 76.836 110.012 76.836C109.13 76.836 108.416 77.5504 108.416 78.4317C108.416 79.313 109.13 80.0274 110.012 80.0274Z"/><path fill="#F0E1D4" stroke="#fff" stroke-linejoin="round" stroke-width=".853" d="M110.012 86.4838C110.893 86.4838 111.607 85.7693 111.607 84.888C111.607 84.0067 110.893 83.2923 110.012 83.2923C109.13 83.2923 108.416 84.0067 108.416 84.888C108.416 85.7693 109.13 86.4838 110.012 86.4838Z"/><path fill="#F0E1D4" d="M131.123 56.0385C136.94 59.0866 154.054 98.3127 146.932 102.46C132.142 111.084 127.937 78.0546 127.937 78.0546L131.123 56.0385Z"/><path fill="#B65A18" d="M140.71 103.684C142.706 104.537 147.859 102.965 153.585 99.2138C159.311 95.4626 152.815 92.9862 152.815 92.9862C152.815 92.9862 145.203 89.9312 140.559 92.1329C135.916 94.3345 136.885 102.037 140.71 103.684Z"/><path fill="#fff" stroke="#3F4D79" stroke-linejoin="round" stroke-width=".853" d="M171.619 84.5467H140.356L106.052 107.001H137.313L171.619 84.5467Z"/><path fill="#C36F0B" d="M160.06 93.8105C160.06 92.9947 154.875 88.1956 152.892 90.008C152.061 90.7658 152.013 97.2733 152.09 98.4475C152.332 102.185 160.017 97.9952 160.06 93.8105Z"/><path fill="#F0E1D4" d="M79.3873 56.5829C77.6106 57.9926 58.7485 86.709 65.4233 99.9323C72.9531 114.859 103.543 102.465 103.543 102.465C103.543 102.465 99.6625 101.27 102.156 96.2835C102.156 96.2835 89.4993 89.5489 79.319 91.5577C79.319 91.5577 87.2141 78.4675 88.0452 73.3424C88.8764 68.2173 85.76 51.5278 79.3873 56.5829Z"/><path stroke="#722D54" stroke-miterlimit="10" stroke-width="1.024" d="M110.155 87.5453L115.729 99.9955"/><path fill="#C36F0B" d="M102.165 95.8841C102.165 95.8841 107.774 92.6858 110.015 93.8839C112.471 95.1946 115.417 99.3452 115.686 100.043C115.956 100.741 115.879 101.467 115.837 102.214C115.794 102.962 110.717 102.919 109.74 102.863C108.764 102.806 103.525 103.428 102.61 102.532C99.253 99.2445 102.165 95.8841 102.165 95.8841Z"/><path fill="#B65A18" d="M109.739 102.863C110.722 102.919 115.21 102.975 115.782 102.443C116.917 101.39 116.267 99.8163 115.698 99.2002C115.178 98.6336 112.408 95.1946 110.013 93.889C110.013 93.889 112.79 98.7206 109.739 102.868"/><path fill="#722D54" d="M100.511 11.5661C100.511 11.5661 98.0173 7.54859 100.511 5.47158C103.004 3.39456 104.03 0.0221811 108.544 -5.65423e-06C113.207 -0.0221924 115.067 3.61301 117.202 3.25461C120.103 2.76821 122.138 1.83296 125.822 3.77685C128.771 5.33334 128.894 11.1684 131.884 10.8732C134.264 10.6394 136.905 10.7896 138.255 13.4332C139.279 15.4351 138.187 20.8435 139.709 22.2976C141.232 23.7517 144.829 24.2262 145.113 27.9757C145.488 33.0428 140.198 33.7886 141.58 37.8113C143.399 43.1019 140.832 46.4231 136.317 47.0273C133.141 47.4488 127.56 42.7265 125.513 45.9879C123.767 48.7681 120.11 50.0054 115.615 48.2066C111.119 46.4078 108.343 46.959 105.573 48.1366C102.803 49.3142 99.4082 50.9748 97.123 48.966C94.8377 46.9573 92.0798 46.901 89.0368 48.1588C84.8145 49.9047 80.2833 47.0341 80.8448 43.2197C81.3107 40.0675 76.9843 39.6698 76.4825 36.0858C75.8271 31.4044 82.7153 30.1995 80.7065 28.1908C78.6978 26.182 78.7694 20.3094 84.7206 19.5311C90.3663 18.7973 89.1579 15.2798 90.7503 12.8751C92.0934 10.8647 96.2867 8.31148 100.511 11.5661Z"/><path stroke="#722D54" stroke-miterlimit="10" stroke-width=".512" d="M78.2883 27.0883C76.4109 24.9618 77.01 18.4184 82.997 18.0105C88.6768 17.6248 87.6835 14.0391 89.4226 11.7436C90.8869 9.81336 95.7953 7.50936 100.441 11.5405"/><path fill="#C36F0B" d="M101.316 28.8308C101.274 32.4148 101.497 42.2981 94.6329 47.5359C94.6329 47.5359 106.959 53.726 109.74 67.439C109.74 67.439 111.698 52.9853 116.753 48.6213C116.753 48.6213 110.763 45.225 112.079 28.8239L101.316 28.8308Z"/><path fill="#B65A18" d="M113.207 43.0337C112.353 43.8051 111.391 44.2454 110.346 44.2454C106.022 44.2454 101.716 37.6577 101.301 30.6143C101.315 29.9213 101.315 29.3172 101.321 28.8308H112.084C111.543 35.4987 112.217 40.0197 113.207 43.0337Z"/><path fill="#C36F0B" d="M100.927 25.5881C100.975 23.7859 101.61 14.3685 109.237 14.7149C116.864 15.0614 118.101 22.7482 117.419 28.9127C116.736 35.0772 112.981 39.2312 110.355 38.9547C107.728 38.6783 100.719 33.2067 100.927 25.5881Z"/></g><defs><clipPath id="clip0"><rect width="108.046" height="226.26" fill="#fff" transform="translate(64)"/></clipPath></defs></svg>