<svg xmlns="http://www.w3.org/2000/svg" width="130" height="130" fill="none" viewBox="0 0 130 130"><path fill="url(#paint0_linear)" d="M65 54.8438C78.4619 54.8438 89.375 43.9307 89.375 30.4688C89.375 17.0068 78.4619 6.09375 65 6.09375C51.5381 6.09375 40.625 17.0068 40.625 30.4688C40.625 43.9307 51.5381 54.8438 65 54.8438Z"/><path fill="url(#paint1_linear)" d="M56.1438 26.4063V23.3594C56.1438 11.9844 73.8563 12.2891 73.8563 23.3594V26.4063C73.8563 37.8422 56.1438 37.5172 56.1438 26.4063Z"/><path fill="url(#paint2_linear)" d="M80.8031 49.014C76.3938 52.7689 70.7915 54.831 65 54.831C59.2085 54.831 53.6063 52.7689 49.1969 49.014C49.7387 47.066 50.4175 45.1586 51.2281 43.3062C52.5123 40.7787 54.4711 38.6559 56.8875 37.1732C59.304 35.6905 62.0837 34.9056 64.9188 34.9056C67.7538 34.9056 70.5336 35.6905 72.95 37.1732C75.3664 38.6559 77.3252 40.7787 78.6094 43.3062C79.4754 45.1543 80.2085 47.0617 80.8031 49.014Z"/><path fill="#F6B756" d="M51.3093 43.3062C50.4986 45.1586 49.8199 47.0659 49.2781 49.014C46.1286 46.3278 43.7151 42.8837 42.2652 39.0065C40.8152 35.1293 40.3766 30.9467 40.9906 26.8531C41.4912 30.1563 42.6654 33.3214 44.4405 36.1517C46.2156 38.9821 48.5536 41.4173 51.3093 43.3062Z"/><path fill="#F6B756" d="M80.8031 49.014C80.2613 47.0659 79.5825 45.1586 78.7719 43.3062C81.5426 41.4253 83.8961 38.9936 85.6854 36.1628C87.4748 33.332 88.6616 30.1629 89.1719 26.8531C89.7762 30.9538 89.3249 35.1408 87.8606 39.0185C86.3962 42.8962 83.9672 46.3365 80.8031 49.014Z"/><path fill="#5B8DC9" d="M80.8031 49.0141C76.3938 52.7689 70.7915 54.831 65 54.831C59.2085 54.831 53.6063 52.7689 49.1969 49.0141C49.7387 47.066 50.4175 45.1587 51.2281 43.3063C55.2673 46.0483 60.0368 47.5143 64.9188 47.5143C69.8007 47.5143 74.5702 46.0483 78.6094 43.3063C79.4754 45.1543 80.2085 47.0617 80.8031 49.0141Z"/><path fill="url(#paint3_linear)" d="M26.4062 123.906C39.8682 123.906 50.7812 112.993 50.7812 99.5312C50.7812 86.0693 39.8682 75.1562 26.4062 75.1562C12.9443 75.1562 2.03125 86.0693 2.03125 99.5312C2.03125 112.993 12.9443 123.906 26.4062 123.906Z"/><path fill="url(#paint4_linear)" d="M17.55 95.4688V92.4219C17.55 81.0469 35.2625 81.3516 35.2625 92.4219V95.4688C35.2625 106.905 17.55 106.58 17.55 95.4688Z"/><path fill="url(#paint5_linear)" d="M42.2094 118.077C37.8 121.831 32.1978 123.893 26.4063 123.893C20.6148 123.893 15.0125 121.831 10.6031 118.077C11.1449 116.128 11.8237 114.221 12.6344 112.369C13.9186 109.841 15.8774 107.718 18.2938 106.236C20.7102 104.753 23.49 103.968 26.325 103.968C29.1601 103.968 31.9398 104.753 34.3563 106.236C36.7727 107.718 38.7315 109.841 40.0157 112.369C40.8817 114.217 41.6148 116.124 42.2094 118.077Z"/><path fill="#F6B756" d="M12.7156 112.369C11.9049 114.221 11.2261 116.128 10.6843 118.077C7.52023 115.399 5.09121 111.959 3.62685 108.081C2.1625 104.203 1.71118 100.016 2.31557 95.9156C2.82584 99.2254 4.01266 102.395 5.802 105.225C7.59134 108.056 9.9448 110.488 12.7156 112.369Z"/><path fill="#F6B756" d="M42.2094 118.077C41.6676 116.128 40.9888 114.221 40.1781 112.369C42.9489 110.488 45.3023 108.056 47.0917 105.225C48.881 102.395 50.0678 99.2254 50.5781 95.9156C51.1825 100.016 50.7312 104.203 49.2668 108.081C47.8025 111.959 45.3734 115.399 42.2094 118.077Z"/><path fill="#5B8DC9" d="M42.2094 118.077C37.8 121.831 32.1978 123.894 26.4063 123.894C20.6148 123.894 15.0125 121.831 10.6031 118.077C11.1449 116.129 11.8237 114.221 12.6344 112.369C16.6736 115.111 21.4431 116.577 26.325 116.577C31.207 116.577 35.9765 115.111 40.0157 112.369C40.8817 114.217 41.6148 116.124 42.2094 118.077Z"/><path fill="url(#paint6_linear)" d="M103.594 123.906C117.056 123.906 127.969 112.993 127.969 99.5312C127.969 86.0693 117.056 75.1562 103.594 75.1562C90.1318 75.1562 79.2188 86.0693 79.2188 99.5312C79.2188 112.993 90.1318 123.906 103.594 123.906Z"/><path fill="url(#paint7_linear)" d="M94.7375 95.4688V92.4219C94.7375 81.0469 112.45 81.3516 112.45 92.4219V95.4688C112.45 106.905 94.7375 106.58 94.7375 95.4688Z"/><path fill="url(#paint8_linear)" d="M119.397 118.077C114.988 121.831 109.385 123.893 103.594 123.893C97.8023 123.893 92.2 121.831 87.7906 118.077C88.3324 116.128 89.0112 114.221 89.8219 112.369C91.1061 109.841 93.0649 107.718 95.4813 106.236C97.8977 104.753 100.677 103.968 103.513 103.968C106.348 103.968 109.127 104.753 111.544 106.236C113.96 107.718 115.919 109.841 117.203 112.369C118.069 114.217 118.802 116.124 119.397 118.077Z"/><path fill="#F6B756" d="M89.9031 112.369C89.0924 114.221 88.4136 116.128 87.8718 118.077C84.7224 115.39 82.3089 111.946 80.8589 108.069C79.409 104.192 78.9703 100.009 79.5843 95.9156C80.0849 99.2188 81.2592 102.384 83.0343 105.214C84.8094 108.045 87.1474 110.48 89.9031 112.369Z"/><path fill="#F6B756" d="M119.397 118.077C118.855 116.128 118.176 114.221 117.366 112.369C120.136 110.488 122.49 108.056 124.279 105.225C126.069 102.395 127.255 99.2254 127.766 95.9156C128.37 100.016 127.919 104.203 126.454 108.081C124.99 111.959 122.561 115.399 119.397 118.077Z"/><path fill="#5B8DC9" d="M119.397 118.077C114.988 121.831 109.385 123.894 103.594 123.894C97.8023 123.894 92.2 121.831 87.7906 118.077C88.3324 116.129 89.0112 114.221 89.8219 112.369C93.8611 115.111 98.6306 116.577 103.513 116.577C108.394 116.577 113.164 115.111 117.203 112.369C118.069 114.217 118.802 116.124 119.397 118.077Z"/><path fill="url(#paint9_linear)" d="M82.9562 71.825L89.05 68.25L82.9562 57.6875L76.8625 61.2625C75.1564 59.813 73.2019 58.6844 71.0937 57.9313V50.7812H58.9062V57.9313C56.798 58.6844 54.8435 59.813 53.1375 61.2625L46.9421 57.6875L40.8484 68.25L47.0437 71.825C46.607 74.0244 46.607 76.2881 47.0437 78.4875L40.8484 82.0625L46.9421 92.625L53.1375 89.05C54.8435 90.4995 56.798 91.6281 58.9062 92.3812V99.5312H71.0937V92.3812C73.2019 91.6281 75.1564 90.4995 76.8625 89.05L82.9562 92.625L89.05 82.0625L82.9562 78.4875C83.3929 76.2881 83.3929 74.0244 82.9562 71.825Z"/><path fill="#42455E" d="M83.4234 78.7516L89.1515 82.0625L83.0578 92.625L76.964 89.05C75.2275 90.5102 73.2378 91.6393 71.0937 92.3813V99.5313H58.9062V92.3813C56.798 91.6281 54.8435 90.4995 53.1374 89.05L46.9421 92.625L40.8484 82.0625L46.5765 78.7516C48.4465 81.982 51.133 84.664 54.3667 86.5285C57.6003 88.393 61.2673 89.3744 64.9999 89.3744C68.7326 89.3744 72.3996 88.393 75.6332 86.5285C78.8669 84.664 81.5534 81.982 83.4234 78.7516Z"/><path fill="#42455E" d="M65 81.25C68.3655 81.25 71.0938 78.5217 71.0938 75.1562C71.0938 71.7908 68.3655 69.0625 65 69.0625C61.6345 69.0625 58.9062 71.7908 58.9062 75.1562C58.9062 78.5217 61.6345 81.25 65 81.25Z"/><defs><linearGradient id="paint0_linear" x1="65" x2="65" y1="54.844" y2="6.094" gradientUnits="userSpaceOnUse"><stop stop-color="#FBCC88"/><stop offset="1" stop-color="#FFE5C3"/></linearGradient><linearGradient id="paint1_linear" x1="65" x2="65" y1="34.877" y2="14.991" gradientUnits="userSpaceOnUse"><stop stop-color="#7AA8D7"/><stop offset="1" stop-color="#C3D2E7"/></linearGradient><linearGradient id="paint2_linear" x1="1060.6" x2="1060.6" y1="572.691" y2="377.422" gradientUnits="userSpaceOnUse"><stop stop-color="#7AA8D7"/><stop offset="1" stop-color="#C3D2E7"/></linearGradient><linearGradient id="paint3_linear" x1="635.781" x2="635.781" y1="3048.91" y2="1878.91" gradientUnits="userSpaceOnUse"><stop stop-color="#FBCC88"/><stop offset="1" stop-color="#FFE5C3"/></linearGradient><linearGradient id="paint4_linear" x1="247.813" x2="247.813" y1="1103.3" y2="908.285" gradientUnits="userSpaceOnUse"><stop stop-color="#7AA8D7"/><stop offset="1" stop-color="#C3D2E7"/></linearGradient><linearGradient id="paint5_linear" x1="421.484" x2="421.484" y1="1319.21" y2="1123.95" gradientUnits="userSpaceOnUse"><stop stop-color="#7AA8D7"/><stop offset="1" stop-color="#C3D2E7"/></linearGradient><linearGradient id="paint6_linear" x1="2565.47" x2="2565.47" y1="3048.91" y2="1878.91" gradientUnits="userSpaceOnUse"><stop stop-color="#FBCC88"/><stop offset="1" stop-color="#FFE5C3"/></linearGradient><linearGradient id="paint7_linear" x1="998.075" x2="998.075" y1="1103.3" y2="908.285" gradientUnits="userSpaceOnUse"><stop stop-color="#7AA8D7"/><stop offset="1" stop-color="#C3D2E7"/></linearGradient><linearGradient id="paint8_linear" x1="1699.71" x2="1699.71" y1="1319.21" y2="1123.95" gradientUnits="userSpaceOnUse"><stop stop-color="#7AA8D7"/><stop offset="1" stop-color="#C3D2E7"/></linearGradient><linearGradient id="paint9_linear" x1="65" x2="65" y1="99.531" y2="50.781" gradientUnits="userSpaceOnUse"><stop stop-color="#474F72"/><stop offset="1" stop-color="#878C9F"/></linearGradient></defs></svg>