<svg xmlns="http://www.w3.org/2000/svg" width="270" height="218" fill="none" viewBox="0 0 270 218"><path stroke="#DFDFDF" stroke-miterlimit="10" stroke-width="4" d="M27.9306 69.8005H20.2V132.701"/><path fill="#F3F3F3" d="M111.471 62.041H42.5859V194.703H111.471V62.041Z"/><path fill="#DFDFDF" d="M42.7749 62.041H26.752V194.703H42.7749V62.041Z"/><path fill="#3F3D56" d="M43.0217 198.675C27.4738 198.675 0.945557 174.948 0.945557 155.242C0.945557 153.743 1.65693 150.913 3.22668 150.913C11.7133 150.9 43.0217 176.197 43.0217 198.675Z"/><path stroke="#DFDFDF" stroke-miterlimit="10" stroke-width="4" d="M146.087 26.1365V112.722H151.056"/><path stroke="#ED7562" stroke-linecap="round" stroke-linejoin="round" stroke-width="4" d="M228.066 207.742L211.009 179.04"/><path stroke="#ED7562" stroke-linecap="round" stroke-linejoin="round" stroke-width="4" d="M235.463 207.742L218.406 179.04"/><path stroke="#ED7562" stroke-linecap="round" stroke-linejoin="round" stroke-width="4" d="M181.013 207.742L198.067 179.04"/><path fill="#ED7562" d="M220.225 118.56H245.443L228.507 179.94H185.541V177.754H217.406L220.225 118.56Z"/><path fill="#FFA8A7" d="M182.737 205.526L177.957 206.27L178.621 210.542L183.401 209.798L182.737 205.526Z"/><path fill="#FFA8A7" d="M154.591 202.824L150.534 200.189L148.179 203.815L152.237 206.45L154.591 202.824Z"/><path fill="#3F3D56" d="M170.502 158.843C166.972 158.843 149.35 199.869 149.35 201.368C149.35 202.867 153.175 204.568 153.739 204.568C154.618 203.752 171.487 179.368 173.243 177.667C174.999 175.966 170.502 158.843 170.502 158.843Z"/><path fill="#D37C59" d="M198.542 128.716C197.382 129.081 191.717 133.935 190.728 139.765C189.72 139.644 183.672 139.392 181.152 139.29C180.328 138.006 178.592 137.116 176.579 137.116C173.773 137.116 171.497 138.841 171.497 140.967C171.497 141.014 171.497 141.059 171.497 141.106H181.643C181.643 141.059 181.643 141.014 181.643 140.967C181.639 140.43 181.494 139.903 181.223 139.439L190.037 140.844L200.509 141.933L201.587 132.787L198.542 128.716Z"/><path fill="#FE9292" d="M207.237 122.219C207.237 121.482 205.399 120.644 204.05 120.644C200.448 120.644 194.356 127.207 194.356 128.031C194.356 128.855 198.742 132.525 202.113 132.746C205.483 132.966 207.237 122.219 207.237 122.219Z"/><path fill="#E4363D" d="M216.182 116.959C236.539 116.959 231.888 162.946 229.307 164.889C226.727 166.831 204.107 167.01 202.635 165.067C201.162 163.125 192.025 116.959 216.182 116.959Z"/><path fill="#D37C59" d="M219.76 108.162H211.623V119.064C211.623 120.794 219.76 120.807 219.76 119.064V108.162Z"/><path fill="#D37C59" d="M222.077 104.033C223.117 97.5117 220.404 91.6582 216.017 90.9587C211.631 90.2592 207.232 94.9787 206.192 101.5C205.152 108.021 207.865 113.875 212.252 114.574C216.638 115.274 221.037 110.554 222.077 104.033Z"/><path fill="#000" d="M233.219 85.1438C237.156 85.1438 241.094 87.2438 246.081 87.2438C250.019 87.2438 253.694 85.6688 258.419 85.6688C266.819 85.6688 269.444 91.1813 269.444 94.5938C269.444 103.256 262.356 106.669 257.106 106.669C248.706 106.669 247.656 100.894 237.681 100.894C227.969 100.894 229.281 93.0188 227.181 93.0188C226.131 93.0188 225.475 93.1501 225.081 93.5438C224.688 93.9376 222.719 92.4938 222.719 91.9688C222.719 91.4438 225.344 85.1438 233.219 85.1438Z"/><path fill="#000" d="M215.631 88.0312C206.347 88.0312 204.404 95.0951 204.404 97.1347C204.404 99.1744 205.693 100.686 206.352 100.736C206.761 98.2976 208.714 94.9324 208.806 94.8562C209.331 95.3812 211.276 97.0665 213.269 97.2188C214.928 97.304 216.54 97.8059 217.954 98.6782C218.071 99.3566 218.327 100.004 218.705 100.579C219.242 101.444 220.054 102.105 221.01 102.456C221.243 103.042 221.377 103.663 221.406 104.293C221.406 107.097 221.144 108.231 220.881 109.018C225.16 109.018 227.181 104.611 227.181 99.0431C227.181 89.8766 219.07 88.0312 215.631 88.0312Z"/><path fill="#D37C59" d="M221.393 106.616C222.646 106.616 223.661 105.601 223.661 104.348C223.661 103.096 222.646 102.08 221.393 102.08C220.141 102.08 219.125 103.096 219.125 104.348C219.125 105.601 220.141 106.616 221.393 106.616Z"/><path fill="#D37C59" d="M213.794 133.935C212.878 134.155 209.205 136.431 207.003 140.358C204.837 139.954 196.028 137.751 188.208 137.751C187.473 137.751 185.564 137.148 184.795 137.148C180.209 137.148 179.251 139.626 179.251 140.358C179.251 141.09 179.409 141.111 179.551 141.111C195.301 141.111 199.262 147.755 208.121 147.755C210.988 147.755 216.896 145.679 220.459 140.361C219.209 136.124 213.794 133.935 213.794 133.935Z"/><path fill="#FE9292" d="M229.276 124.983C234.195 129.758 221.755 142.975 219.76 142.781C217.765 142.587 210.573 135.014 210.505 132.711C210.436 130.409 224.522 120.366 229.276 124.983Z"/><path fill="#FD8369" d="M239.388 141.699H128.29V145.285H239.388V141.699Z"/><path fill="#3F3D56" d="M229.263 167.175C229.263 166.046 229.46 164.739 228.756 164.448C212.056 157.562 187.607 156.67 183.84 156.67C180.073 156.67 169.058 157.053 169.058 160.206C169.058 171.593 175.403 206.65 176.692 207.959C177.304 208.576 182.638 208.164 183.302 207.497C183.257 204.61 184.934 175.606 183.404 172.094C197.44 177.239 213.379 179.675 217.579 179.675C229.751 179.662 229.263 168.514 229.263 167.175Z"/><path fill="#000" d="M152.637 205.91L148.4 203.085L136.997 200.696L135.913 202.487L149.35 210.795L152.637 205.91Z"/><path fill="#000" d="M183.798 208.671L178.771 209.461L168.762 215.425L169.177 217.48L184.69 214.493L183.798 208.671Z"/><path stroke="#FD8369" stroke-linecap="round" stroke-linejoin="round" stroke-width="4" d="M233.418 198.761V144.282"/><path stroke="#FD8369" stroke-linecap="round" stroke-linejoin="round" stroke-width="4" d="M141.11 198.761V144.282"/><path stroke="#FD8369" stroke-linecap="round" stroke-linejoin="round" stroke-width="4" d="M225.617 209.679V144.282"/><path stroke="#FD8369" stroke-linecap="round" stroke-linejoin="round" stroke-width="4" d="M132.868 209.679V144.282"/><path stroke="#ED7562" stroke-linecap="round" stroke-linejoin="round" stroke-width="4" d="M188.602 207.742L205.656 179.04"/><path fill="#3F3D56" d="M187.504 141.041H169.058V141.699H187.504V141.041Z"/><path fill="#3F3D56" d="M188.869 98.0981H148.597V127.343H188.869V98.0981Z"/><path fill="#3F3D56" d="M163.076 121.844L157.522 141.699H167.258L172.649 121.844H163.076Z"/><path fill="#DFDFDF" d="M170.925 27.5486C172.858 25.6573 174.08 23.1566 174.382 20.4689C174.685 17.7813 174.05 15.0715 172.586 12.7976C171.122 10.5237 168.917 8.82509 166.345 7.98878C163.773 7.15247 160.991 7.22978 158.469 8.20762C156.857 5.73666 154.603 3.7505 151.949 2.46162C149.295 1.17273 146.34 0.629604 143.401 0.890337C140.462 1.15107 137.649 2.20585 135.264 3.94185C132.878 5.67785 131.009 8.02976 129.857 10.746C127.586 9.82773 125.085 9.6425 122.704 10.2163C120.323 10.79 118.181 12.094 116.578 13.9457C114.975 15.7974 113.991 18.1041 113.764 20.5428C113.537 22.9815 114.078 25.4302 115.312 27.546L170.925 27.5486Z"/><path stroke="#DFDFDF" stroke-miterlimit="10" stroke-width="4" d="M141.987 25.3252V44.1517H84.2185V62.0411"/><path fill="#3F3D56" d="M51.8259 209.679C53.3616 209.679 56.3541 204.476 56.3541 194.386C56.3541 187.007 51.1828 182.235 49.6472 174.924C47.2847 163.713 35.5851 130.779 17.3177 130.779C15.2177 130.779 12.3984 135.192 12.3984 144.282C12.3984 155.307 23.0769 166.723 23.0769 169.091C23.0874 196.126 46.9303 209.679 51.8259 209.679Z"/><path stroke="#959595" stroke-linecap="round" stroke-linejoin="round" stroke-width="3" d="M51.9442 209.679C51.9442 208.201 49.8074 198.286 48.6971 195.808C47.5867 193.33 43.2266 180.938 42.5441 177.517C41.8616 174.097 29.2117 140.683 17.3309 132.22"/><path stroke="#959595" stroke-linecap="round" stroke-linejoin="round" stroke-width="3" d="M46.492 189.973L26.563 185.915"/><path stroke="#959595" stroke-linecap="round" stroke-linejoin="round" stroke-width="3" d="M47.4948 192.743L29.2432 191.223"/><path stroke="#959595" stroke-linecap="round" stroke-linejoin="round" stroke-width="3" d="M41.7512 174.935L23.2266 169.328"/><path stroke="#959595" stroke-linecap="round" stroke-linejoin="round" stroke-width="3" d="M43.5153 181.074L49.1695 176.964"/><path stroke="#959595" stroke-linecap="round" stroke-linejoin="round" stroke-width="3" d="M32.8105 154.066L38.3965 147.732"/><path stroke="#959595" stroke-linecap="round" stroke-linejoin="round" stroke-width="3" d="M31.0648 150.693L35.8187 144.243"/><path fill="#DFDFDF" d="M105.762 70.4333H48.2927V81.5109H105.762V70.4333Z"/><path fill="#F3F3F3" d="M101.635 76.5232C102.708 76.5232 103.578 75.6535 103.578 74.5807C103.578 73.5079 102.708 72.6382 101.635 72.6382C100.563 72.6382 99.6929 73.5079 99.6929 74.5807C99.6929 75.6535 100.563 76.5232 101.635 76.5232Z"/><path stroke="#F3F3F3" stroke-linecap="round" stroke-linejoin="round" stroke-width="4" d="M68.1377 74.5808H98.0575"/><path fill="#DFDFDF" d="M105.762 89.1599H48.2927V100.237H105.762V89.1599Z"/><path fill="#F3F3F3" d="M101.635 95.25C102.708 95.25 103.578 94.3803 103.578 93.3075C103.578 92.2347 102.708 91.365 101.635 91.365C100.563 91.365 99.6929 92.2347 99.6929 93.3075C99.6929 94.3803 100.563 95.25 101.635 95.25Z"/><path stroke="#F3F3F3" stroke-linecap="round" stroke-linejoin="round" stroke-width="4" d="M68.1377 93.3074H98.0575"/><path fill="#DFDFDF" d="M105.762 107.884H48.2927V118.962H105.762V107.884Z"/><path fill="#F3F3F3" d="M101.635 113.974C102.708 113.974 103.578 113.104 103.578 112.032C103.578 110.959 102.708 110.089 101.635 110.089C100.563 110.089 99.6929 110.959 99.6929 112.032C99.6929 113.104 100.563 113.974 101.635 113.974Z"/><path stroke="#F3F3F3" stroke-linecap="round" stroke-linejoin="round" stroke-width="4" d="M68.1377 112.032H98.0575"/><path fill="#DFDFDF" d="M105.762 126.611H48.2927V137.688H105.762V126.611Z"/><path fill="#F3F3F3" d="M101.635 132.701C102.708 132.701 103.578 131.831 103.578 130.758C103.578 129.686 102.708 128.816 101.635 128.816C100.563 128.816 99.6929 129.686 99.6929 130.758C99.6929 131.831 100.563 132.701 101.635 132.701Z"/><path stroke="#F3F3F3" stroke-linecap="round" stroke-linejoin="round" stroke-width="4" d="M68.1377 130.758H98.0575"/><path fill="#DFDFDF" d="M105.762 145.335H48.2927V156.412H105.762V145.335Z"/><path fill="#F3F3F3" d="M101.635 151.428C102.708 151.428 103.578 150.558 103.578 149.485C103.578 148.412 102.708 147.543 101.635 147.543C100.563 147.543 99.6929 148.412 99.6929 149.485C99.6929 150.558 100.563 151.428 101.635 151.428Z"/><path stroke="#F3F3F3" stroke-linecap="round" stroke-linejoin="round" stroke-width="4" d="M68.1377 149.485H98.0575"/><path stroke="#F3F3F3" stroke-linecap="round" stroke-linejoin="round" stroke-width="2" d="M30.4532 78.4026H39.0738"/><path stroke="#F3F3F3" stroke-linecap="round" stroke-linejoin="round" stroke-width="2" d="M30.4532 80.634H39.0738"/><path stroke="#F3F3F3" stroke-linecap="round" stroke-linejoin="round" stroke-width="2" d="M30.4532 93.583H39.0738"/><path stroke="#F3F3F3" stroke-linecap="round" stroke-linejoin="round" stroke-width="2" d="M30.4532 95.8145H39.0738"/><path stroke="#F3F3F3" stroke-linecap="round" stroke-linejoin="round" stroke-width="2" d="M30.4532 112.032H39.0738"/><path stroke="#F3F3F3" stroke-linecap="round" stroke-linejoin="round" stroke-width="2" d="M30.4532 114.266H39.0738"/><path stroke="#F3F3F3" stroke-linecap="round" stroke-linejoin="round" stroke-width="2" d="M30.4532 129.882H39.0738"/><path stroke="#F3F3F3" stroke-linecap="round" stroke-linejoin="round" stroke-width="2" d="M30.4532 132.115H39.0738"/></svg>